<svg viewBox="0 0 2313.92041015625 400" xmlns="http://www.w3.org/2000/svg"><g><g><g><g><g><line x1="48.875" y1="377" x2="43.875" y2="377" style="visibility: inherit;" fill="rgb(0, 0, 0)" stroke="rgb(204, 204, 204)" stroke-width="1px"></line><line x1="48.875" y1="345.5833333333333" x2="43.875" y2="345.5833333333333" style="visibility: inherit;" fill="rgb(0, 0, 0)" stroke="rgb(204, 204, 204)" stroke-width="1px"></line><line x1="48.875" y1="314.1666666666667" x2="43.875" y2="314.1666666666667" style="visibility: inherit;" fill="rgb(0, 0, 0)" stroke="rgb(204, 204, 204)" stroke-width="1px"></line><line x1="48.875" y1="282.75" x2="43.875" y2="282.75" style="visibility: inherit;" fill="rgb(0, 0, 0)" stroke="rgb(204, 204, 204)" stroke-width="1px"></line><line x1="48.875" y1="251.33333333333334" x2="43.875" y2="251.33333333333334" style="visibility: inherit;" fill="rgb(0, 0, 0)" stroke="rgb(204, 204, 204)" stroke-width="1px"></line><line x1="48.875" y1="219.91666666666669" x2="43.875" y2="219.91666666666669" style="visibility: inherit;" fill="rgb(0, 0, 0)" stroke="rgb(204, 204, 204)" stroke-width="1px"></line><line x1="48.875" y1="188.50000000000003" x2="43.875" y2="188.50000000000003" style="visibility: inherit;" fill="rgb(0, 0, 0)" stroke="rgb(204, 204, 204)" stroke-width="1px"></line><line x1="48.875" y1="157.08333333333337" x2="43.875" y2="157.08333333333337" style="visibility: inherit;" fill="rgb(0, 0, 0)" stroke="rgb(204, 204, 204)" stroke-width="1px"></line><line x1="48.875" y1="125.66666666666671" x2="43.875" y2="125.66666666666671" style="visibility: inherit;" fill="rgb(0, 0, 0)" stroke="rgb(204, 204, 204)" stroke-width="1px"></line><line x1="48.875" y1="94.25000000000006" x2="43.875" y2="94.25000000000006" style="visibility: inherit;" fill="rgb(0, 0, 0)" stroke="rgb(204, 204, 204)" stroke-width="1px"></line><line x1="48.875" y1="62.83333333333337" x2="43.875" y2="62.83333333333337" style="visibility: inherit;" fill="rgb(0, 0, 0)" stroke="rgb(204, 204, 204)" stroke-width="1px"></line><line x1="48.875" y1="31.416666666666686" x2="43.875" y2="31.416666666666686" style="visibility: inherit;" fill="rgb(0, 0, 0)" stroke="rgb(204, 204, 204)" stroke-width="1px"></line><line x1="48.875" y1="0" x2="43.875" y2="0" style="visibility: inherit;" fill="rgb(0, 0, 0)" stroke="rgb(204, 204, 204)" stroke-width="1px"></line></g><g transform="translate(38.875, 0)"><text x="0" y="377" dx="0em" dy="0.3em" style="text-anchor: end; visibility: hidden; font-family: &quot;Helvetica Neue&quot;, sans-serif; font-size: 12px; font-weight: 200;" fill="rgb(50, 49, 63)" stroke="none" stroke-width="1px">-0.1</text><text x="0" y="345.5833333333333" dx="0em" dy="0.3em" style="text-anchor: end; visibility: inherit; font-family: &quot;Helvetica Neue&quot;, sans-serif; font-size: 12px; font-weight: 200;" fill="rgb(50, 49, 63)" stroke="none" stroke-width="1px">0</text><text x="0" y="314.1666666666667" dx="0em" dy="0.3em" style="text-anchor: end; visibility: inherit; font-family: &quot;Helvetica Neue&quot;, sans-serif; font-size: 12px; font-weight: 200;" fill="rgb(50, 49, 63)" stroke="none" stroke-width="1px">0.1</text><text x="0" y="282.75" dx="0em" dy="0.3em" style="text-anchor: end; visibility: inherit; font-family: &quot;Helvetica Neue&quot;, sans-serif; font-size: 12px; font-weight: 200;" fill="rgb(50, 49, 63)" stroke="none" stroke-width="1px">0.2</text><text x="0" y="251.33333333333334" dx="0em" dy="0.3em" style="text-anchor: end; visibility: inherit; font-family: &quot;Helvetica Neue&quot;, sans-serif; font-size: 12px; font-weight: 200;" fill="rgb(50, 49, 63)" stroke="none" stroke-width="1px">0.3</text><text x="0" y="219.91666666666669" dx="0em" dy="0.3em" style="text-anchor: end; visibility: inherit; font-family: &quot;Helvetica Neue&quot;, sans-serif; font-size: 12px; font-weight: 200;" fill="rgb(50, 49, 63)" stroke="none" stroke-width="1px">0.4</text><text x="0" y="188.50000000000003" dx="0em" dy="0.3em" style="text-anchor: end; visibility: inherit; font-family: &quot;Helvetica Neue&quot;, sans-serif; font-size: 12px; font-weight: 200;" fill="rgb(50, 49, 63)" stroke="none" stroke-width="1px">0.5</text><text x="0" y="157.08333333333337" dx="0em" dy="0.3em" style="text-anchor: end; visibility: inherit; font-family: &quot;Helvetica Neue&quot;, sans-serif; font-size: 12px; font-weight: 200;" fill="rgb(50, 49, 63)" stroke="none" stroke-width="1px">0.6</text><text x="0" y="125.66666666666671" dx="0em" dy="0.3em" style="text-anchor: end; visibility: inherit; font-family: &quot;Helvetica Neue&quot;, sans-serif; font-size: 12px; font-weight: 200;" fill="rgb(50, 49, 63)" stroke="none" stroke-width="1px">0.7</text><text x="0" y="94.25000000000006" dx="0em" dy="0.3em" style="text-anchor: end; visibility: inherit; font-family: &quot;Helvetica Neue&quot;, sans-serif; font-size: 12px; font-weight: 200;" fill="rgb(50, 49, 63)" stroke="none" stroke-width="1px">0.8</text><text x="0" y="62.83333333333337" dx="0em" dy="0.3em" style="text-anchor: end; visibility: inherit; font-family: &quot;Helvetica Neue&quot;, sans-serif; font-size: 12px; font-weight: 200;" fill="rgb(50, 49, 63)" stroke="none" stroke-width="1px">0.9</text><text x="0" y="31.416666666666686" dx="0em" dy="0.3em" style="text-anchor: end; visibility: inherit; font-family: &quot;Helvetica Neue&quot;, sans-serif; font-size: 12px; font-weight: 200;" fill="rgb(50, 49, 63)" stroke="none" stroke-width="1px">1</text><text x="0" y="0" dx="0em" dy="0.3em" style="text-anchor: end; visibility: hidden; font-family: &quot;Helvetica Neue&quot;, sans-serif; font-size: 12px; font-weight: 200;" fill="rgb(50, 49, 63)" stroke="none" stroke-width="1px">1.1</text></g><line x1="48.875" y1="0" x2="48.875" y2="377" fill="rgb(0, 0, 0)" stroke="rgb(204, 204, 204)" stroke-width="1px"></line></g></g><g transform="translate(48, 0)" clip-path="url(#clip_0)"><clipPath id="clip_0"><rect width="2265" height="376"></rect></clipPath><g><g><g><line x1="0" y1="0" x2="0" y2="377" fill="rgb(0, 0, 0)" stroke="rgb(60, 60, 60)" stroke-width="1px" opacity="0.25"></line><line x1="205.91318181818184" y1="0" x2="205.91318181818184" y2="377" fill="rgb(0, 0, 0)" stroke="rgb(60, 60, 60)" stroke-width="1px" opacity="0.25"></line><line x1="411.8263636363637" y1="0" x2="411.8263636363637" y2="377" fill="rgb(0, 0, 0)" stroke="rgb(60, 60, 60)" stroke-width="1px" opacity="0.25"></line><line x1="617.7395454545455" y1="0" x2="617.7395454545455" y2="377" fill="rgb(0, 0, 0)" stroke="rgb(60, 60, 60)" stroke-width="1px" opacity="0.25"></line><line x1="823.6527272727274" y1="0" x2="823.6527272727274" y2="377" fill="rgb(0, 0, 0)" stroke="rgb(60, 60, 60)" stroke-width="1px" opacity="0.25"></line><line x1="1029.5659090909091" y1="0" x2="1029.5659090909091" y2="377" fill="rgb(0, 0, 0)" stroke="rgb(60, 60, 60)" stroke-width="1px" opacity="0.25"></line><line x1="1235.479090909091" y1="0" x2="1235.479090909091" y2="377" fill="rgb(0, 0, 0)" stroke="rgb(60, 60, 60)" stroke-width="1px" opacity="0.25"></line><line x1="1441.3922727272727" y1="0" x2="1441.3922727272727" y2="377" fill="rgb(0, 0, 0)" stroke="rgb(60, 60, 60)" stroke-width="1px" opacity="0.25"></line><line x1="1647.3054545454547" y1="0" x2="1647.3054545454547" y2="377" fill="rgb(0, 0, 0)" stroke="rgb(60, 60, 60)" stroke-width="1px" opacity="0.25"></line><line x1="1853.2186363636365" y1="0" x2="1853.2186363636365" y2="377" fill="rgb(0, 0, 0)" stroke="rgb(60, 60, 60)" stroke-width="1px" opacity="0.25"></line><line x1="2059.1318181818183" y1="0" x2="2059.1318181818183" y2="377" fill="rgb(0, 0, 0)" stroke="rgb(60, 60, 60)" stroke-width="1px" opacity="0.25"></line><line x1="2265.045" y1="0" x2="2265.045" y2="377" fill="rgb(0, 0, 0)" stroke="rgb(60, 60, 60)" stroke-width="1px" opacity="0.25"></line></g><g><line x1="0" y1="377" x2="2265.045" y2="377" fill="rgb(0, 0, 0)" stroke="rgb(60, 60, 60)" stroke-width="1px" opacity="0.25"></line><line x1="0" y1="345.5833333333333" x2="2265.045" y2="345.5833333333333" fill="rgb(0, 0, 0)" stroke="rgb(60, 60, 60)" stroke-width="1px" opacity="0.25"></line><line x1="0" y1="314.1666666666667" x2="2265.045" y2="314.1666666666667" fill="rgb(0, 0, 0)" stroke="rgb(60, 60, 60)" stroke-width="1px" opacity="0.25"></line><line x1="0" y1="282.75" x2="2265.045" y2="282.75" fill="rgb(0, 0, 0)" stroke="rgb(60, 60, 60)" stroke-width="1px" opacity="0.25"></line><line x1="0" y1="251.33333333333334" x2="2265.045" y2="251.33333333333334" fill="rgb(0, 0, 0)" stroke="rgb(60, 60, 60)" stroke-width="1px" opacity="0.25"></line><line x1="0" y1="219.91666666666669" x2="2265.045" y2="219.91666666666669" fill="rgb(0, 0, 0)" stroke="rgb(60, 60, 60)" stroke-width="1px" opacity="0.25"></line><line x1="0" y1="188.50000000000003" x2="2265.045" y2="188.50000000000003" fill="rgb(0, 0, 0)" stroke="rgb(60, 60, 60)" stroke-width="1px" opacity="0.25"></line><line x1="0" y1="157.08333333333337" x2="2265.045" y2="157.08333333333337" fill="rgb(0, 0, 0)" stroke="rgb(60, 60, 60)" stroke-width="1px" opacity="0.25"></line><line x1="0" y1="125.66666666666671" x2="2265.045" y2="125.66666666666671" fill="rgb(0, 0, 0)" stroke="rgb(60, 60, 60)" stroke-width="1px" opacity="0.25"></line><line x1="0" y1="94.25000000000006" x2="2265.045" y2="94.25000000000006" fill="rgb(0, 0, 0)" stroke="rgb(60, 60, 60)" stroke-width="1px" opacity="0.25"></line><line x1="0" y1="62.83333333333337" x2="2265.045" y2="62.83333333333337" fill="rgb(0, 0, 0)" stroke="rgb(60, 60, 60)" stroke-width="1px" opacity="0.25"></line><line x1="0" y1="31.416666666666686" x2="2265.045" y2="31.416666666666686" fill="rgb(0, 0, 0)" stroke="rgb(60, 60, 60)" stroke-width="1px" opacity="0.25"></line><line x1="0" y1="0" x2="2265.045" y2="0" fill="rgb(0, 0, 0)" stroke="rgb(60, 60, 60)" stroke-width="1px" opacity="0.25"></line></g></g></g><g><g><line x1="0" y1="345.5833333333333" x2="2265.045" y2="345.5833333333333" fill="rgb(0, 0, 0)" stroke="rgb(153, 153, 153)" stroke-width="1.5px"></line></g></g><g><g><line x1="205.91318181818184" y1="0" x2="205.91318181818184" y2="377" fill="rgb(0, 0, 0)" stroke="rgb(153, 153, 153)" stroke-width="1.5px"></line></g></g><g><g><g><g><g><path stroke="rgb(51, 187, 238)" stroke-width="2px" d="M205.91318181818184,291.0580808147788L222.38623636363636,180.29933043816953L238.8592909090909,146.70764873524817L255.33234545454548,143.21361015763182L271.8054,150.7641967989085L288.2784545454545,140.23456122652706L304.7515090909091,141.93443528977517L321.22456363636365,154.47572275177606L337.69761818181814,152.87654528124278L354.17067272727274,142.48326000093817L359.1125890909091,147.4142682727401L375.5856436363636,144.0773523616707L392.0586981818182,150.8855587591862L408.53175272727276,148.69659598316835L425.00480727272725,151.33689254024594L441.47786181818185,145.63837568191414L457.9509163636364,141.99569075307622L474.4239709090909,143.72365077047093L490.8970254545455,141.41846971528642L507.37008000000003,145.90363506430376L512.3119963636364,153.09180826403352L528.7850509090908,152.80776292682603L545.2581054545454,155.99180703970757L561.73116,148.81113199886133L578.2042145454545,146.52483286543986L594.677269090909,153.31811854104342L611.1503236363637,153.89723955063752L627.6233781818182,152.25514020078037L644.0964327272728,152.88018513817215L660.5694872727273,143.94462532848556L665.5114036363636,146.71753443449316L681.9844581818181,151.03957308301025L698.4575127272727,152.774078024235L714.9305672727273,154.06925249706757L731.4036218181818,153.350025110889L747.8766763636364,149.36945112152642L764.3497309090909,148.68386470701833L780.8227854545454,153.47869362979307L797.29584,158.4331777299679L813.7688945454546,158.61663974330634L818.7108109090909,157.76684114239933L835.1838654545455,155.81815882991884L851.65692,150.3322053180713L868.1299745454545,142.91562531189882L884.6030290909091,150.2076141568904L901.0760836363636,154.56820719421614L917.5491381818183,155.8134447051297L934.0221927272728,152.85256133974792L950.4952472727273,143.08027773679595L966.9683018181819,149.7311856430482L971.9102181818182,141.626991067836L988.3832727272727,140.79158769329302L1004.8563272727274,142.9037866829426L1021.3293818181819,142.93259195895047L1037.8024363636364,147.07844444154355L1054.2754909090909,146.56397624845704L1070.7485454545454,144.44165531525582L1087.2216,146.56232599207618L1103.6946545454546,144.80818000510905L1120.1677090909093,146.8307041788763L1125.1096254545455,147.37485738887946L1141.58268,146.78152080343412L1158.0557345454547,137.24873744943136L1174.5287890909092,148.3039374643574L1191.0018436363637,148.83809635377966L1207.4748981818182,152.96727276167837L1223.9479527272729,149.28031002187066L1240.4210072727271,157.21563196402604L1256.8940618181819,147.04094251635L1273.3671163636366,140.98880337670053L1278.3090327272728,144.50759304514682L1294.7820872727273,147.47272784203383L1311.255141818182,146.4765451150756L1327.7281963636362,138.25469425297933L1344.201250909091,138.73522855007764L1360.6743054545457,141.96696825014206L1377.14736,143.72372514567851L1393.6204145454547,142.01115604846538L1410.0934690909091,155.07246521748763L1426.5665236363636,161.78548763795007L1431.50844,151.37683391249766L1447.9814945454548,148.443056194705L1464.454549090909,146.08027924750638L1480.9276036363638,146.99170749546826L1497.4006581818182,155.7174340677604L1513.8737127272727,149.5390012458792L1530.3467672727272,151.02398311357476L1546.819821818182,145.09384955010603L1563.2928763636364,146.87088837537465L1579.765930909091,142.5310574362041L1584.7078472727273,151.22389473570814L1601.1809018181818,147.7405644773389L1617.6539563636363,146.42752197891284L1634.127010909091,141.13105379723885L1650.6000654545455,140.11052570929672L1667.07312,137.37777231106733L1683.5461745454547,145.17053579435424L1700.019229090909,151.94016197588172L1716.4922836363637,141.03869345282072L1732.9653381818182,143.97861670505688L1737.9072545454544,151.2438181320452L1754.3803090909091,146.00556180774328L1770.8533636363638,142.6382871483198L1787.326418181818,155.4330932574984L1803.7994727272728,148.17796173871943L1820.2725272727273,144.9562215967889L1836.7455818181818,146.23794744648583L1853.2186363636365,139.4297108247466L1869.691690909091,139.52801981879333L1886.1647454545455,143.88563762309604L1891.106661818182,140.815350140243L1907.5797163636364,148.17627028156477L1924.052770909091,149.33515975236836L1940.5258254545456,144.9990369956227L1956.99888,139.95422958561312L1973.4719345454546,137.93851124428912L1989.944989090909,136.8449107213262L2006.4180436363638,144.09845588760712L2022.891098181818,146.9494876167889L2039.3641527272728,153.06354742487295L2044.3060690909092,155.21049040852247L2060.7791236363637,143.81145453548513L2077.252178181818,145.28735507267075L2093.7252327272727,149.6966930315285L2110.198287272727,144.20353612341066L2126.671341818182,147.10292358474277L2143.1443963636366,144.18105805572586L2159.617450909091,146.443705606792L2176.0905054545456,151.80158476071747L2192.56356,152.9795721509563" style="fill: none;" fill="none"></path></g><g><path stroke="rgb(204, 51, 17)" stroke-width="2px" d="M205.91318181818184,235.61437498529756L222.38623636363636,155.82731765782557L238.8592909090909,126.0954523592458L255.33234545454548,108.76436316506977L271.8054,105.81601831493157L288.2784545454545,105.10888962291165L304.7515090909091,91.94832348217119L321.22456363636365,84.17776938914312L337.69761818181814,88.761333570327L354.17067272727274,86.4106451975112L359.1125890909091,97.06844638047505L375.5856436363636,98.59446256802232L392.0586981818182,91.93586719645486L408.53175272727276,88.08094709118126L425.00480727272725,86.5060175463372L441.47786181818185,87.71244073429654L457.9509163636364,86.71926322543612L474.4239709090909,87.86683533903357L490.8970254545455,83.47339869288396L507.37008000000003,83.31777443269203L512.3119963636364,82.46720123733434L528.7850509090908,81.91221662224137L545.2581054545454,76.41230006583368L561.73116,72.295300916234L578.2042145454545,76.85848467453081L594.677269090909,72.21932045520214L611.1503236363637,74.00761189985815L627.6233781818182,75.74757393827502L644.0964327272728,78.9996425345073L660.5694872727273,78.81685650019682L665.5114036363636,78.7774098904751L681.9844581818181,76.37983135165348L698.4575127272727,73.44687452287138L714.9305672727273,74.17582025789238L731.4036218181818,73.61050675344944L747.8766763636364,74.90528624207866L764.3497309090909,74.74249242268439L780.8227854545454,72.90926231951727L797.29584,73.41755695321774L813.7688945454546,75.47943222312114L818.7108109090909,75.05615734596324L835.1838654545455,71.39192608745924L851.65692,70.98980518627877L868.1299745454545,77.724243097591L884.6030290909091,72.34997978333422L901.0760836363636,76.8170162987654L917.5491381818183,73.21075888725085L934.0221927272728,69.07952899591612L950.4952472727273,77.88272316515952L966.9683018181819,78.95683587854165L971.9102181818182,79.09727935748526L988.3832727272727,79.39656679679723L1004.8563272727274,74.36470661837359L1021.3293818181819,67.07796643159821L1037.8024363636364,74.48377018564793L1054.2754909090909,77.31954389417524L1070.7485454545454,81.97758447790159L1087.2216,82.95817728625389L1103.6946545454546,83.1548698352384L1120.1677090909093,80.75273153193291L1125.1096254545455,75.27841905099609L1141.58268,87.99077116018628L1158.0557345454547,80.77682991434523L1174.5287890909092,84.62786276307696L1191.0018436363637,83.40846994487998L1207.4748981818182,82.9041681301855L1223.9479527272729,82.14446103615012L1240.4210072727271,82.32911180253183L1256.8940618181819,85.34043064279763L1273.3671163636366,81.65320191515548L1278.3090327272728,80.41540888855349L1294.7820872727273,93.18951829382354L1311.255141818182,95.7623199516587L1327.7281963636362,96.5169462079466L1344.201250909091,88.13588991403088L1360.6743054545457,88.41397723407891L1377.14736,81.53919519473999L1393.6204145454547,87.9144415675998L1410.0934690909091,91.6694136834069L1426.5665236363636,87.9848774176246L1431.50844,87.57769836657098L1447.9814945454548,83.97700127570414L1464.454549090909,84.61862758116553L1480.9276036363638,94.47985964145329L1497.4006581818182,97.73395373110372L1513.8737127272727,93.77195697155338L1530.3467672727272,86.9212600393476L1546.819821818182,75.03607615511294L1563.2928763636364,82.51938590963852L1579.765930909091,84.19224374225422L1584.7078472727273,81.10494241389841L1601.1809018181818,74.24584946131222L1617.6539563636363,74.08089713252542L1634.127010909091,79.95618037092555L1650.6000654545455,80.204621658983L1667.07312,80.84305467409871L1683.5461745454547,75.0043111189533L1700.019229090909,89.49696420049418L1716.4922836363637,83.30014988023481L1732.9653381818182,81.97822176153602L1737.9072545454544,77.27813522116679L1754.3803090909091,74.64907468444642L1770.8533636363638,70.83785457269016L1787.326418181818,74.08173019598746L1803.7994727272728,79.54737579064061L1820.2725272727273,77.20911327719472L1836.7455818181818,83.67252865137232L1853.2186363636365,90.22289605785215L1869.691690909091,82.39309957226129L1886.1647454545455,94.2301628694396L1891.106661818182,86.34386014445903L1907.5797163636364,82.77505375503011L1924.052770909091,83.40363848847659L1940.5258254545456,92.41276355949446L1956.99888,90.6587129989619L1973.4719345454546,84.84420462788228L1989.944989090909,82.75975802806119L2006.4180436363638,75.85003922800456L2022.891098181818,80.36982283173586L2039.3641527272728,77.2306129966596L2044.3060690909092,79.6665687208502L2060.7791236363637,81.23242349727303L2077.252178181818,77.1780840372806L2093.7252327272727,86.62136095392225L2110.198287272727,82.35785616984862L2126.671341818182,80.63472318657415L2143.1443963636366,80.44793237370982L2159.617450909091,79.61845927957728L2176.0905054545456,79.49727101921394L2192.56356,81.43002279701182" style="fill: none;" fill="none"></path></g><g><path stroke="rgb(238, 51, 119)" stroke-width="2px" d="M205.91318181818184,266.7369605700175L222.38623636363636,292.9924372620333L238.8592909090909,302.7915613543446L255.33234545454548,307.766140552699L271.8054,307.7948544315092L288.2784545454545,310.68590119768766L304.7515090909091,312.28595010026027L321.22456363636365,307.040101246335L337.69761818181814,307.25404115637104L354.17067272727274,310.5453835340194L359.1125890909091,309.26130497772124L375.5856436363636,310.2468972020646L392.0586981818182,308.99626554225017L408.53175272727276,309.5600271943865L425.00480727272725,307.53905214117833L441.47786181818185,309.52042228752543L457.9509163636364,310.8065216113848L474.4239709090909,310.7766906468087L490.8970254545455,312.1535216110211L507.37008000000003,310.4390634268841L512.3119963636364,310.65508626616446L528.7850509090908,309.99306072425793L545.2581054545454,309.54820353475657L561.73116,312.48646479594015L578.2042145454545,313.19647457037735L594.677269090909,312.8336012320408L611.1503236363637,313.1239540893536L627.6233781818182,312.26361814888776L644.0964327272728,310.5596961122245L660.5694872727273,311.6033207756648L665.5114036363636,312.4595924287647L681.9844581818181,312.70014698793113L698.4575127272727,309.8141973831446L714.9305672727273,309.5059889431582L731.4036218181818,308.51055014623546L747.8766763636364,310.347541344249L764.3497309090909,311.16262244589666L780.8227854545454,312.46052227776283L797.29584,307.8662911271955L813.7688945454546,306.72238988385885L818.7108109090909,308.703539317045L835.1838654545455,309.9528419609843L851.65692,310.63743019455916L868.1299745454545,309.9720819730973L884.6030290909091,309.6392429699123L901.0760836363636,309.66204407238195L917.5491381818183,308.4173092446417L934.0221927272728,312.892568280252L950.4952472727273,315.01384001355717L966.9683018181819,313.91437663788196L971.9102181818182,314.8160105345178L988.3832727272727,314.63552726396154L1004.8563272727274,313.7615179921534L1021.3293818181819,312.9953797745781L1037.8024363636364,310.7944696891014L1054.2754909090909,310.198805383225L1070.7485454545454,311.646029241679L1087.2216,311.4809781126173L1103.6946545454546,313.9520208068932L1120.1677090909093,311.4662396530659L1125.1096254545455,311.574964385896L1141.58268,311.60880710093113L1158.0557345454547,314.9520730660272L1174.5287890909092,311.23291316879005L1191.0018436363637,312.900829290743L1207.4748981818182,310.4545996856991L1223.9479527272729,311.2998401772655L1240.4210072727271,309.4033465812215L1256.8940618181819,312.99404754380123L1273.3671163636366,314.9977219162301L1278.3090327272728,315.808175292322L1294.7820872727273,310.79234127559624L1311.255141818182,310.13182732263056L1327.7281963636362,311.87230940338634L1344.201250909091,312.9411692265037L1360.6743054545457,311.61235546902543L1377.14736,313.0156898117565L1393.6204145454547,311.0574823325426L1410.0934690909091,307.9681666094035L1426.5665236363636,308.2092355958997L1431.50844,311.9739552394896L1447.9814945454548,311.1562385068237L1464.454549090909,312.4848018815555L1480.9276036363638,311.6164679813818L1497.4006581818182,308.2049453135124L1513.8737127272727,308.5412169745892L1530.3467672727272,310.3891901059531L1546.819821818182,312.86292014368297L1563.2928763636364,313.2680234171489L1579.765930909091,313.4625062044L1584.7078472727273,310.4736941128939L1601.1809018181818,311.7488732946365L1617.6539563636363,312.43001144589255L1634.127010909091,313.0924806456601L1650.6000654545455,311.90198278252734L1667.07312,313.281337908476L1683.5461745454547,313.9612381017508L1700.019229090909,312.5179693261949L1716.4922836363637,314.19152405894573L1732.9653381818182,315.18166542308313L1737.9072545454544,312.49887841546536L1754.3803090909091,311.9070029040615L1770.8533636363638,314.9889275070517L1787.326418181818,310.596989708799L1803.7994727272728,312.13944183798446L1820.2725272727273,312.043833254966L1836.7455818181818,312.54163996656155L1853.2186363636365,314.00959860916805L1869.691690909091,314.94314086934673L1886.1647454545455,312.41220889158075L1891.106661818182,312.3605504120249L1907.5797163636364,310.69453261934575L1924.052770909091,310.14290380097077L1940.5258254545456,311.9747645052599L1956.99888,313.2030879075747L1973.4719345454546,316.1272665460716L1989.944989090909,315.28363596587053L2006.4180436363638,314.25606550005335L2022.891098181818,312.1548878735732L2039.3641527272728,309.14559347078085L2044.3060690909092,307.7499745176043L2060.7791236363637,312.1614785214613L2077.252178181818,310.34956667262963L2093.7252327272727,309.6068881869763L2110.198287272727,311.5171376086906L2126.671341818182,312.40686814804496L2143.1443963636366,312.4871515496428L2159.617450909091,312.6123204575343L2176.0905054545456,308.7466239006917L2192.56356,310.9049547564578" style="fill: none;" fill="none"></path></g></g></g></g><g opacity="0.2"><g><g><g><path stroke="rgb(51, 187, 238)" stroke-width="2px" d="M205.91318181818184,291.0580808147788L222.38623636363636,102.65744642416644L238.8592909090909,106.65289388100314L255.33234545454548,137.843716253837L271.8054,164.1917677819729L288.2784545454545,119.72681155800825L304.7515090909091,145.44685618082687L321.22456363636365,181.43277353048327L337.69761818181814,149.34592198332155L354.17067272727274,119.11239957809454L359.1125890909091,158.6436712344488L375.5856436363636,136.4111556708813L392.0586981818182,166.62252546350166L408.53175272727276,143.61526768406236L425.00480727272725,157.48418888449672L441.47786181818185,132.3431083162626L457.9509163636364,133.48452027638757L474.4239709090909,147.76516547799113L490.8970254545455,136.02304489413902L507.37008000000003,156.40670678019526L512.3119963636364,169.93051162362102L528.7850509090908,152.14220713575685L545.2581054545454,163.45372811953231L561.73116,131.9809327622255L578.2042145454545,141.16570930679643L594.677269090909,169.24263835946724L611.1503236363637,155.25484582781795L627.6233781818182,148.40553140640262L644.0964327272728,154.3455213407676L660.5694872727273,122.9960727790992L665.5114036363636,153.21841588616374L681.9844581818181,161.17234608531L698.4575127272727,156.84054594238603L714.9305672727273,157.10574061671898L731.4036218181818,151.66381931304934L747.8766763636364,140.03710578878724L764.3497309090909,147.0765244563421L780.8227854545454,164.7200598418713L797.29584,170.04885863264406L813.7688945454546,159.04676264524463L818.7108109090909,155.77450529734298L835.1838654545455,151.2495111525059L851.65692,137.4704924821854L868.1299745454545,125.5275939504306L884.6030290909091,167.30354508757594L901.0760836363636,164.7915361920993L917.5491381818183,158.73288091023767L934.0221927272728,145.91082514325782L950.4952472727273,120.16933948795008L966.9683018181819,165.3241164584955L971.9102181818182,122.62685632705691L988.3832727272727,138.83299987514818L1004.8563272727274,147.85579831401512L1021.3293818181819,143.00012539823854L1037.8024363636364,156.79831928014758L1054.2754909090909,145.3578150371711L1070.7485454545454,139.465912938118L1087.2216,151.53419937690103L1103.6946545454546,140.6956170101961L1120.1677090909093,151.57247489690783L1125.1096254545455,148.65061457951867L1141.58268,145.39045409361526L1158.0557345454547,114.89930223425233L1174.5287890909092,174.22265053788826L1191.0018436363637,150.09042204419777L1207.4748981818182,162.64805089433992L1223.9479527272729,140.63629369934404L1240.4210072727271,175.81984828909242L1256.8940618181819,123.18657026688263L1273.3671163636366,126.79967449108764L1278.3090327272728,152.7573306957881L1294.7820872727273,154.42443183064464L1311.255141818182,144.14101303617164L1327.7281963636362,118.97871614495921L1344.201250909091,139.86183237036073L1360.6743054545457,149.54372253020608L1377.14736,147.84240937232974L1393.6204145454547,137.99606930216157L1410.0934690909091,185.69446430603668L1426.5665236363636,177.52404521902406L1431.50844,126.97393671671554L1447.9814945454548,141.5648683011532L1464.454549090909,140.54079215725267L1480.9276036363638,149.12853425741199L1497.4006581818182,176.17473950982097L1513.8737127272727,135.05377914508188L1530.3467672727272,154.5054957866669L1546.819821818182,131.19076049327853L1563.2928763636364,151.03712321321174L1579.765930909091,132.35640362898513L1584.7078472727273,171.60409188270572L1601.1809018181818,139.57396076122924L1617.6539563636363,143.3491179943085L1634.127010909091,128.7135815719764L1650.6000654545455,137.71791637937233L1667.07312,130.97088223695758L1683.5461745454547,163.44052643577263L1700.019229090909,167.81142603357637L1716.4922836363637,115.48040102918947L1732.9653381818182,150.87121269106868L1737.9072545454544,168.2769492367904L1754.3803090909091,133.7245662113031L1770.8533636363638,134.74377364913627L1787.326418181818,185.43028082450235L1803.7994727272728,131.16843934853875L1820.2725272727273,137.40291109681132L1836.7455818181818,149.2429301242034L1853.2186363636365,123.46792530020082L1869.691690909091,139.7585034469764L1886.1647454545455,154.1019924084346L1891.106661818182,133.61711761355403L1907.5797163636364,165.4338121513526L1924.052770909091,152.05215479930246L1940.5258254545456,134.83307695388797L1956.99888,128.12677141030633L1973.4719345454546,133.21269667148593L1989.944989090909,134.28098441163704L2006.4180436363638,161.10425910353663L2022.891098181818,153.6336790621281L2039.3641527272728,167.39784817894304L2044.3060690909092,160.2439587414265L2060.7791236363637,117.0866246124109L2077.252178181818,148.74757673343026L2093.7252327272727,160.0343047678471L2110.198287272727,131.32493079702064L2126.671341818182,153.9004841546218L2143.1443963636366,137.33079806963607L2159.617450909091,151.74844116965934L2176.0905054545456,164.3630338807901L2192.56356,155.74134191870692" style="fill: none;" fill="none"></path></g><g><path stroke="rgb(204, 51, 17)" stroke-width="2px" d="M205.91318181818184,235.61437498529756L222.38623636363636,99.89659047126776L238.8592909090909,90.64314644535392L255.33234545454548,82.12867837150901L271.8054,100.57283501823747L288.2784545454545,103.73167024056124L304.7515090909091,64.75486930211395L321.22456363636365,67.47524009148287L337.69761818181814,98.88080985347437L354.17067272727274,81.12476990620303L359.1125890909091,121.33949553966525L375.5856436363636,102.10031664371496L392.0586981818182,76.54472193121916L408.53175272727276,79.13236430287367L425.00480727272725,82.83917239308363L441.47786181818185,90.52715888619429L457.9509163636364,84.39869384964317L474.4239709090909,90.55088446537661L490.8970254545455,73.19027707974124L507.37008000000003,82.95334355036425L512.3119963636364,80.4746852914493L528.7850509090908,80.61181427041697L545.2581054545454,63.523049215475794L561.73116,62.64580201109254L578.2042145454545,87.55466402570414L594.677269090909,61.34439687927568L611.1503236363637,78.1998198330403L627.6233781818182,79.82660433650022L644.0964327272728,86.62369252244639L660.5694872727273,78.38833238681167L665.5114036363636,78.68493021527934L681.9844581818181,70.75884526968008L698.4575127272727,66.57069068153709L714.9305672727273,75.8848062753678L731.4036218181818,72.28514717022586L747.8766763636364,77.94086084763217L764.3497309090909,74.36082637310034L780.8227854545454,68.61129647493368L797.29584,74.6092427372933L813.7688945454546,80.31345621744799L818.7108109090909,74.06379785140365L835.1838654545455,62.8012073636055L851.65692,70.04704044262576L868.1299745454545,93.5130052367847L884.6030290909091,59.75012035171193L901.0760836363636,87.28990004460024L917.5491381818183,64.75595539808279L934.0221927272728,59.393937051296234L950.4952472727273,98.52164915204054L966.9683018181819,81.47507330775267L971.9102181818182,79.42654650410026L988.3832727272727,80.0982406834762L1004.8563272727274,62.56760310133302L1021.3293818181819,49.99433821439743L1037.8024363636364,91.84654077887541L1054.2754909090909,83.9679631690185L1070.7485454545454,92.89827491839736L1087.2216,85.2571590840817L1103.6946545454546,83.61601189772296L1120.1677090909093,75.12096247076994L1125.1096254545455,62.44399414459866L1141.58268,117.79464682936674L1158.0557345454547,63.86387736598658L1174.5287890909092,93.65653843681025L1191.0018436363637,80.54962591330218L1207.4748981818182,81.72184180219978L1223.9479527272729,80.36334172884631L1240.4210072727271,82.7620221277079L1256.8940618181819,92.40041227142024L1273.3671163636366,73.00856198867172L1278.3090327272728,77.51342590649932L1294.7820872727273,123.13818281888965L1311.255141818182,101.79420611262327L1327.7281963636362,98.28615358471876L1344.201250909091,68.48665759960818L1360.6743054545457,89.06594784061122L1377.14736,65.42139516274142L1393.6204145454547,102.86108941833186L1410.0934690909091,100.47287673751521L1426.5665236363636,79.34654991825431L1431.50844,86.62307457129168L1447.9814945454548,75.53523317972827L1464.454549090909,86.12290865182882L1480.9276036363638,117.59933681289363L1497.4006581818182,105.36311746637034L1513.8737127272727,84.48312844832748L1530.3467672727272,70.85992709795642L1546.819821818182,47.17148116230965L1563.2928763636364,100.06386797626817L1579.765930909091,88.11422815918928L1584.7078472727273,73.86682123939204L1601.1809018181818,58.16483220458031L1617.6539563636363,73.69416943192488L1634.127010909091,93.73067384958273L1650.6000654545455,80.78708768884349L1667.07312,82.33984913428634L1683.5461745454547,61.31548425555229L1700.019229090909,123.47472276290262L1716.4922836363637,68.77183269461005L1732.9653381818182,78.8789856036505L1737.9072545454544,66.25886878371244L1754.3803090909091,68.48529061675077L1770.8533636363638,61.90251912673318L1787.326418181818,81.68693692485499L1803.7994727272728,92.36148134867358L1820.2725272727273,71.72709982593864L1836.7455818181818,98.82588710387552L1853.2186363636365,105.58011195063597L1869.691690909091,64.03628573815035L1886.1647454545455,121.98194003105166L1891.106661818182,67.8545684715113L1907.5797163636364,74.40805282195419L1924.052770909091,84.87734383344656L1940.5258254545456,113.53449156880384L1956.99888,86.5463737249375L1973.4719345454546,71.21219670772558L1989.944989090909,77.8728113174439L2006.4180436363638,59.65033060312271L2022.891098181818,90.96637235085177L2039.3641527272728,69.87079328298574L2044.3060690909092,85.37762210766482L2060.7791236363637,84.90354121724772L2077.252178181818,67.6727597514789L2093.7252327272727,108.76094997922587L2110.198287272727,72.36214762926107L2126.671341818182,76.59486960371345L2143.1443963636366,80.01000474890083L2159.617450909091,77.67377486824995L2176.0905054545456,79.21314737200743L2192.56356,85.96132378776878" style="fill: none;" fill="none"></path></g><g><path stroke="rgb(238, 51, 119)" stroke-width="2px" d="M205.91318181818184,266.7369605700175L222.38623636363636,311.3975264231364L238.8592909090909,314.47604672114056L255.33234545454548,315.4114375114441L271.8054,307.8459177017212L288.2784545454545,316.3165674209595L304.7515090909091,315.5921039581299L321.22456363636365,295.7643359502157L337.69761818181814,307.7263722419739L354.17067272727274,317.94646040598553L359.1125890909091,306.33706823984784L375.5856436363636,312.5111867586772L392.0586981818182,306.10546763738L408.53175272727276,310.86871004104614L425.00480727272725,302.8336971600851L441.47786181818185,314.1431770324707L457.9509163636364,313.81150579452515L474.4239709090909,310.7069191932678L490.8970254545455,315.37608321507776L507.37008000000003,306.4242555300395L512.3119963636364,311.1611320177714L528.7850509090908,308.44184732437134L545.2581054545454,308.50566482543945L561.73116,319.3732159932455L578.2042145454545,314.8607494036357L594.677269090909,311.9829696019491L611.1503236363637,313.80461470286053L627.6233781818182,310.2467141151428L644.0964327272728,306.5650734901428L660.5694872727273,314.04999748865765L665.5114036363636,314.46705834070843L681.9844581818181,313.2641134262085L698.4575127272727,303.04821983973187L714.9305672727273,308.78340578079224L731.4036218181818,306.17677545547485L747.8766763636364,314.6543162663778L764.3497309090909,313.07355976104736L780.8227854545454,315.5034186045329L797.29584,297.0952154795329L813.7688945454546,304.0405370394389L818.7108109090909,313.3483045895895L835.1838654545455,312.881807645162L851.65692,312.24243418375653L868.1299745454545,308.4121856689453L884.6030290909091,308.8589081764221L901.0760836363636,309.715500831604L917.5491381818183,305.49905157089233L934.0221927272728,323.3847301801046L950.4952472727273,319.9871223767599L966.9683018181819,311.336705048879L971.9102181818182,316.92987457911175L988.3832727272727,314.2123875617981L1004.8563272727274,311.712419350942L1021.3293818181819,311.19918282826745L1037.8024363636364,305.63447650273645L1054.2754909090909,308.8022813796997L1070.7485454545454,315.0390189488729L1087.2216,311.09401877721155L1103.6946545454546,319.7453349431356L1120.1677090909093,305.63837146759033L1125.1096254545455,311.8298675219218L1141.58268,311.68815072377527L1158.0557345454547,322.7902986208598L1174.5287890909092,302.5134112040202L1191.0018436363637,316.81122795740765L1207.4748981818182,304.7194593747457L1223.9479527272729,313.28149096171063L1240.4210072727271,304.95705223083496L1256.8940618181819,321.41237990061444L1273.3671163636366,319.69529962539673L1278.3090327272728,317.7082683245341L1294.7820872727273,299.0328106880188L1311.255141818182,308.58326450983685L1327.7281963636362,315.95283762613934L1344.201250909091,315.4470914204916L1360.6743054545457,308.4969760576884L1377.14736,316.3057813644409L1393.6204145454547,306.4665009180705L1410.0934690909091,300.7253227233887L1426.5665236363636,308.7744174003601L1431.50844,320.80027119318646L1447.9814945454548,309.2391166687012L1464.454549090909,315.5995942751567L1480.9276036363638,309.58067512512207L1497.4006581818182,300.20669317245483L1513.8737127272727,309.32959969838464L1530.3467672727272,314.7217291196188L1546.819821818182,318.6625347137451L1563.2928763636364,314.2177805900574L1579.765930909091,313.9184675216675L1584.7078472727273,303.46647914250696L1601.1809018181818,314.7385074297587L1617.6539563636363,314.0269273122152L1634.127010909091,314.6456274986267L1650.6000654545455,309.1108824412028L1667.07312,316.5152106285095L1683.5461745454547,315.55525159835815L1700.019229090909,309.13425223032635L1716.4922836363637,318.11514234542847L1732.9653381818182,317.5030336380005L1737.9072545454544,306.2091336250305L1754.3803090909091,310.5193616549174L1770.8533636363638,322.2144430478414L1787.326418181818,300.300172328949L1803.7994727272728,315.75569248199463L1820.2725272727273,311.8196806907654L1836.7455818181818,313.70873864491784L1853.2186363636365,317.45120064417523L1869.691690909091,317.13181352615356L1886.1647454545455,306.47848542531335L1891.106661818182,312.2394380569458L1907.5797163636364,306.7885845502218L1924.052770909091,308.84962018330896L1940.5258254545456,316.26952823003137L1956.99888,316.0828695297241L1973.4719345454546,322.98294957478845L1989.944989090909,313.3057595888774L2006.4180436363638,311.84694544474286L2022.891098181818,307.228715578715L2039.3641527272728,302.090358098348L2044.3060690909092,304.4779715538025L2060.7791236363637,322.504168510437L2077.252178181818,306.10157267252606L2093.7252327272727,307.8656921386719L2110.198287272727,315.99568223953247L2126.671341818182,314.4928250312805L2143.1443963636366,312.67537450790405L2159.617450909091,312.90577665964764L2176.0905054545456,299.68356943130493L2192.56356,315.96512174606323" style="fill: none;" fill="none"></path></g></g></g></g></g></g><g transform="translate(48, 377)" clip-path="url(#clip_1)"><clipPath id="clip_1"><rect width="2265" height="22"></rect></clipPath><g><g><line x1="0" y1="0" x2="0" y2="5" style="visibility: inherit;" fill="rgb(0, 0, 0)" stroke="rgb(204, 204, 204)" stroke-width="1px"></line><line x1="205.91318181818184" y1="0" x2="205.91318181818184" y2="5" style="visibility: inherit;" fill="rgb(0, 0, 0)" stroke="rgb(204, 204, 204)" stroke-width="1px"></line><line x1="411.8263636363637" y1="0" x2="411.8263636363637" y2="5" style="visibility: inherit;" fill="rgb(0, 0, 0)" stroke="rgb(204, 204, 204)" stroke-width="1px"></line><line x1="617.7395454545455" y1="0" x2="617.7395454545455" y2="5" style="visibility: inherit;" fill="rgb(0, 0, 0)" stroke="rgb(204, 204, 204)" stroke-width="1px"></line><line x1="823.6527272727274" y1="0" x2="823.6527272727274" y2="5" style="visibility: inherit;" fill="rgb(0, 0, 0)" stroke="rgb(204, 204, 204)" stroke-width="1px"></line><line x1="1029.5659090909091" y1="0" x2="1029.5659090909091" y2="5" style="visibility: inherit;" fill="rgb(0, 0, 0)" stroke="rgb(204, 204, 204)" stroke-width="1px"></line><line x1="1235.479090909091" y1="0" x2="1235.479090909091" y2="5" style="visibility: inherit;" fill="rgb(0, 0, 0)" stroke="rgb(204, 204, 204)" stroke-width="1px"></line><line x1="1441.3922727272727" y1="0" x2="1441.3922727272727" y2="5" style="visibility: inherit;" fill="rgb(0, 0, 0)" stroke="rgb(204, 204, 204)" stroke-width="1px"></line><line x1="1647.3054545454547" y1="0" x2="1647.3054545454547" y2="5" style="visibility: inherit;" fill="rgb(0, 0, 0)" stroke="rgb(204, 204, 204)" stroke-width="1px"></line><line x1="1853.2186363636365" y1="0" x2="1853.2186363636365" y2="5" style="visibility: inherit;" fill="rgb(0, 0, 0)" stroke="rgb(204, 204, 204)" stroke-width="1px"></line><line x1="2059.1318181818183" y1="0" x2="2059.1318181818183" y2="5" style="visibility: inherit;" fill="rgb(0, 0, 0)" stroke="rgb(204, 204, 204)" stroke-width="1px"></line><line x1="2265.045" y1="0" x2="2265.045" y2="5" style="visibility: inherit;" fill="rgb(0, 0, 0)" stroke="rgb(204, 204, 204)" stroke-width="1px"></line></g><g transform="translate(0, 8)"><text x="0" y="0" dx="0em" dy="0.95em" style="text-anchor: middle; visibility: hidden; font-family: &quot;Helvetica Neue&quot;, sans-serif; font-size: 12px; font-weight: 200;" fill="rgb(50, 49, 63)" stroke="none" stroke-width="1px">-2k</text><text x="205.91318181818184" y="0" dx="0em" dy="0.95em" style="text-anchor: middle; visibility: inherit; font-family: &quot;Helvetica Neue&quot;, sans-serif; font-size: 12px; font-weight: 200;" fill="rgb(50, 49, 63)" stroke="none" stroke-width="1px">0</text><text x="411.8263636363637" y="0" dx="0em" dy="0.95em" style="text-anchor: middle; visibility: inherit; font-family: &quot;Helvetica Neue&quot;, sans-serif; font-size: 12px; font-weight: 200;" fill="rgb(50, 49, 63)" stroke="none" stroke-width="1px">2k</text><text x="617.7395454545455" y="0" dx="0em" dy="0.95em" style="text-anchor: middle; visibility: inherit; font-family: &quot;Helvetica Neue&quot;, sans-serif; font-size: 12px; font-weight: 200;" fill="rgb(50, 49, 63)" stroke="none" stroke-width="1px">4k</text><text x="823.6527272727274" y="0" dx="0em" dy="0.95em" style="text-anchor: middle; visibility: inherit; font-family: &quot;Helvetica Neue&quot;, sans-serif; font-size: 12px; font-weight: 200;" fill="rgb(50, 49, 63)" stroke="none" stroke-width="1px">6k</text><text x="1029.5659090909091" y="0" dx="0em" dy="0.95em" style="text-anchor: middle; visibility: inherit; font-family: &quot;Helvetica Neue&quot;, sans-serif; font-size: 12px; font-weight: 200;" fill="rgb(50, 49, 63)" stroke="none" stroke-width="1px">8k</text><text x="1235.479090909091" y="0" dx="0em" dy="0.95em" style="text-anchor: middle; visibility: inherit; font-family: &quot;Helvetica Neue&quot;, sans-serif; font-size: 12px; font-weight: 200;" fill="rgb(50, 49, 63)" stroke="none" stroke-width="1px">10k</text><text x="1441.3922727272727" y="0" dx="0em" dy="0.95em" style="text-anchor: middle; visibility: inherit; font-family: &quot;Helvetica Neue&quot;, sans-serif; font-size: 12px; font-weight: 200;" fill="rgb(50, 49, 63)" stroke="none" stroke-width="1px">12k</text><text x="1647.3054545454547" y="0" dx="0em" dy="0.95em" style="text-anchor: middle; visibility: inherit; font-family: &quot;Helvetica Neue&quot;, sans-serif; font-size: 12px; font-weight: 200;" fill="rgb(50, 49, 63)" stroke="none" stroke-width="1px">14k</text><text x="1853.2186363636365" y="0" dx="0em" dy="0.95em" style="text-anchor: middle; visibility: inherit; font-family: &quot;Helvetica Neue&quot;, sans-serif; font-size: 12px; font-weight: 200;" fill="rgb(50, 49, 63)" stroke="none" stroke-width="1px">16k</text><text x="2059.1318181818183" y="0" dx="0em" dy="0.95em" style="text-anchor: middle; visibility: inherit; font-family: &quot;Helvetica Neue&quot;, sans-serif; font-size: 12px; font-weight: 200;" fill="rgb(50, 49, 63)" stroke="none" stroke-width="1px">18k</text><text x="2265.045" y="0" dx="0em" dy="0.95em" style="text-anchor: middle; visibility: hidden; font-family: &quot;Helvetica Neue&quot;, sans-serif; font-size: 12px; font-weight: 200;" fill="rgb(50, 49, 63)" stroke="none" stroke-width="1px">20k</text></g><line x1="0" y1="0" x2="2265.045" y2="0" fill="rgb(0, 0, 0)" stroke="rgb(204, 204, 204)" stroke-width="1px"></line></g></g></g></g></svg>