<svg viewBox="0 0 2327.556640625 400" xmlns="http://www.w3.org/2000/svg"><g><g><g><g><g><line x1="58.59375" y1="377" x2="53.59375" y2="377" style="visibility: inherit;" fill="rgb(0, 0, 0)" stroke="rgb(204, 204, 204)" stroke-width="1px"></line><line x1="58.59375" y1="345.5833333333333" x2="53.59375" y2="345.5833333333333" style="visibility: inherit;" fill="rgb(0, 0, 0)" stroke="rgb(204, 204, 204)" stroke-width="1px"></line><line x1="58.59375" y1="314.1666666666667" x2="53.59375" y2="314.1666666666667" style="visibility: inherit;" fill="rgb(0, 0, 0)" stroke="rgb(204, 204, 204)" stroke-width="1px"></line><line x1="58.59375" y1="282.75" x2="53.59375" y2="282.75" style="visibility: inherit;" fill="rgb(0, 0, 0)" stroke="rgb(204, 204, 204)" stroke-width="1px"></line><line x1="58.59375" y1="251.33333333333334" x2="53.59375" y2="251.33333333333334" style="visibility: inherit;" fill="rgb(0, 0, 0)" stroke="rgb(204, 204, 204)" stroke-width="1px"></line><line x1="58.59375" y1="219.91666666666669" x2="53.59375" y2="219.91666666666669" style="visibility: inherit;" fill="rgb(0, 0, 0)" stroke="rgb(204, 204, 204)" stroke-width="1px"></line><line x1="58.59375" y1="188.50000000000003" x2="53.59375" y2="188.50000000000003" style="visibility: inherit;" fill="rgb(0, 0, 0)" stroke="rgb(204, 204, 204)" stroke-width="1px"></line><line x1="58.59375" y1="157.08333333333337" x2="53.59375" y2="157.08333333333337" style="visibility: inherit;" fill="rgb(0, 0, 0)" stroke="rgb(204, 204, 204)" stroke-width="1px"></line><line x1="58.59375" y1="125.66666666666671" x2="53.59375" y2="125.66666666666671" style="visibility: inherit;" fill="rgb(0, 0, 0)" stroke="rgb(204, 204, 204)" stroke-width="1px"></line><line x1="58.59375" y1="94.25000000000006" x2="53.59375" y2="94.25000000000006" style="visibility: inherit;" fill="rgb(0, 0, 0)" stroke="rgb(204, 204, 204)" stroke-width="1px"></line><line x1="58.59375" y1="62.83333333333337" x2="53.59375" y2="62.83333333333337" style="visibility: inherit;" fill="rgb(0, 0, 0)" stroke="rgb(204, 204, 204)" stroke-width="1px"></line><line x1="58.59375" y1="31.416666666666686" x2="53.59375" y2="31.416666666666686" style="visibility: inherit;" fill="rgb(0, 0, 0)" stroke="rgb(204, 204, 204)" stroke-width="1px"></line><line x1="58.59375" y1="0" x2="53.59375" y2="0" style="visibility: inherit;" fill="rgb(0, 0, 0)" stroke="rgb(204, 204, 204)" stroke-width="1px"></line></g><g transform="translate(48.59375, 0)"><text x="0" y="377" dx="0em" dy="0.3em" style="text-anchor: end; visibility: hidden; font-family: &quot;Helvetica Neue&quot;, sans-serif; font-size: 12px; font-weight: 200;" fill="rgb(50, 49, 63)" stroke="none" stroke-width="1px">-0.05</text><text x="0" y="345.5833333333333" dx="0em" dy="0.3em" style="text-anchor: end; visibility: inherit; font-family: &quot;Helvetica Neue&quot;, sans-serif; font-size: 12px; font-weight: 200;" fill="rgb(50, 49, 63)" stroke="none" stroke-width="1px">0</text><text x="0" y="314.1666666666667" dx="0em" dy="0.3em" style="text-anchor: end; visibility: inherit; font-family: &quot;Helvetica Neue&quot;, sans-serif; font-size: 12px; font-weight: 200;" fill="rgb(50, 49, 63)" stroke="none" stroke-width="1px">0.05</text><text x="0" y="282.75" dx="0em" dy="0.3em" style="text-anchor: end; visibility: inherit; font-family: &quot;Helvetica Neue&quot;, sans-serif; font-size: 12px; font-weight: 200;" fill="rgb(50, 49, 63)" stroke="none" stroke-width="1px">0.1</text><text x="0" y="251.33333333333334" dx="0em" dy="0.3em" style="text-anchor: end; visibility: inherit; font-family: &quot;Helvetica Neue&quot;, sans-serif; font-size: 12px; font-weight: 200;" fill="rgb(50, 49, 63)" stroke="none" stroke-width="1px">0.15</text><text x="0" y="219.91666666666669" dx="0em" dy="0.3em" style="text-anchor: end; visibility: inherit; font-family: &quot;Helvetica Neue&quot;, sans-serif; font-size: 12px; font-weight: 200;" fill="rgb(50, 49, 63)" stroke="none" stroke-width="1px">0.2</text><text x="0" y="188.50000000000003" dx="0em" dy="0.3em" style="text-anchor: end; visibility: inherit; font-family: &quot;Helvetica Neue&quot;, sans-serif; font-size: 12px; font-weight: 200;" fill="rgb(50, 49, 63)" stroke="none" stroke-width="1px">0.25</text><text x="0" y="157.08333333333337" dx="0em" dy="0.3em" style="text-anchor: end; visibility: inherit; font-family: &quot;Helvetica Neue&quot;, sans-serif; font-size: 12px; font-weight: 200;" fill="rgb(50, 49, 63)" stroke="none" stroke-width="1px">0.3</text><text x="0" y="125.66666666666671" dx="0em" dy="0.3em" style="text-anchor: end; visibility: inherit; font-family: &quot;Helvetica Neue&quot;, sans-serif; font-size: 12px; font-weight: 200;" fill="rgb(50, 49, 63)" stroke="none" stroke-width="1px">0.35</text><text x="0" y="94.25000000000006" dx="0em" dy="0.3em" style="text-anchor: end; visibility: inherit; font-family: &quot;Helvetica Neue&quot;, sans-serif; font-size: 12px; font-weight: 200;" fill="rgb(50, 49, 63)" stroke="none" stroke-width="1px">0.4</text><text x="0" y="62.83333333333337" dx="0em" dy="0.3em" style="text-anchor: end; visibility: inherit; font-family: &quot;Helvetica Neue&quot;, sans-serif; font-size: 12px; font-weight: 200;" fill="rgb(50, 49, 63)" stroke="none" stroke-width="1px">0.45</text><text x="0" y="31.416666666666686" dx="0em" dy="0.3em" style="text-anchor: end; visibility: inherit; font-family: &quot;Helvetica Neue&quot;, sans-serif; font-size: 12px; font-weight: 200;" fill="rgb(50, 49, 63)" stroke="none" stroke-width="1px">0.5</text><text x="0" y="0" dx="0em" dy="0.3em" style="text-anchor: end; visibility: hidden; font-family: &quot;Helvetica Neue&quot;, sans-serif; font-size: 12px; font-weight: 200;" fill="rgb(50, 49, 63)" stroke="none" stroke-width="1px">0.55</text></g><line x1="58.59375" y1="0" x2="58.59375" y2="377" fill="rgb(0, 0, 0)" stroke="rgb(204, 204, 204)" stroke-width="1px"></line></g></g><g transform="translate(58, 0)" clip-path="url(#clip_0)"><clipPath id="clip_0"><rect width="2268" height="376"></rect></clipPath><g><g><g><line x1="0" y1="0" x2="0" y2="377" fill="rgb(0, 0, 0)" stroke="rgb(60, 60, 60)" stroke-width="1px" opacity="0.25"></line><line x1="283.62078125" y1="0" x2="283.62078125" y2="377" fill="rgb(0, 0, 0)" stroke="rgb(60, 60, 60)" stroke-width="1px" opacity="0.25"></line><line x1="567.2415625" y1="0" x2="567.2415625" y2="377" fill="rgb(0, 0, 0)" stroke="rgb(60, 60, 60)" stroke-width="1px" opacity="0.25"></line><line x1="850.86234375" y1="0" x2="850.86234375" y2="377" fill="rgb(0, 0, 0)" stroke="rgb(60, 60, 60)" stroke-width="1px" opacity="0.25"></line><line x1="1134.483125" y1="0" x2="1134.483125" y2="377" fill="rgb(0, 0, 0)" stroke="rgb(60, 60, 60)" stroke-width="1px" opacity="0.25"></line><line x1="1418.10390625" y1="0" x2="1418.10390625" y2="377" fill="rgb(0, 0, 0)" stroke="rgb(60, 60, 60)" stroke-width="1px" opacity="0.25"></line><line x1="1701.7246875" y1="0" x2="1701.7246875" y2="377" fill="rgb(0, 0, 0)" stroke="rgb(60, 60, 60)" stroke-width="1px" opacity="0.25"></line><line x1="1985.34546875" y1="0" x2="1985.34546875" y2="377" fill="rgb(0, 0, 0)" stroke="rgb(60, 60, 60)" stroke-width="1px" opacity="0.25"></line><line x1="2268.96625" y1="0" x2="2268.96625" y2="377" fill="rgb(0, 0, 0)" stroke="rgb(60, 60, 60)" stroke-width="1px" opacity="0.25"></line></g><g><line x1="0" y1="377" x2="2268.96625" y2="377" fill="rgb(0, 0, 0)" stroke="rgb(60, 60, 60)" stroke-width="1px" opacity="0.25"></line><line x1="0" y1="345.5833333333333" x2="2268.96625" y2="345.5833333333333" fill="rgb(0, 0, 0)" stroke="rgb(60, 60, 60)" stroke-width="1px" opacity="0.25"></line><line x1="0" y1="314.1666666666667" x2="2268.96625" y2="314.1666666666667" fill="rgb(0, 0, 0)" stroke="rgb(60, 60, 60)" stroke-width="1px" opacity="0.25"></line><line x1="0" y1="282.75" x2="2268.96625" y2="282.75" fill="rgb(0, 0, 0)" stroke="rgb(60, 60, 60)" stroke-width="1px" opacity="0.25"></line><line x1="0" y1="251.33333333333334" x2="2268.96625" y2="251.33333333333334" fill="rgb(0, 0, 0)" stroke="rgb(60, 60, 60)" stroke-width="1px" opacity="0.25"></line><line x1="0" y1="219.91666666666669" x2="2268.96625" y2="219.91666666666669" fill="rgb(0, 0, 0)" stroke="rgb(60, 60, 60)" stroke-width="1px" opacity="0.25"></line><line x1="0" y1="188.50000000000003" x2="2268.96625" y2="188.50000000000003" fill="rgb(0, 0, 0)" stroke="rgb(60, 60, 60)" stroke-width="1px" opacity="0.25"></line><line x1="0" y1="157.08333333333337" x2="2268.96625" y2="157.08333333333337" fill="rgb(0, 0, 0)" stroke="rgb(60, 60, 60)" stroke-width="1px" opacity="0.25"></line><line x1="0" y1="125.66666666666671" x2="2268.96625" y2="125.66666666666671" fill="rgb(0, 0, 0)" stroke="rgb(60, 60, 60)" stroke-width="1px" opacity="0.25"></line><line x1="0" y1="94.25000000000006" x2="2268.96625" y2="94.25000000000006" fill="rgb(0, 0, 0)" stroke="rgb(60, 60, 60)" stroke-width="1px" opacity="0.25"></line><line x1="0" y1="62.83333333333337" x2="2268.96625" y2="62.83333333333337" fill="rgb(0, 0, 0)" stroke="rgb(60, 60, 60)" stroke-width="1px" opacity="0.25"></line><line x1="0" y1="31.416666666666686" x2="2268.96625" y2="31.416666666666686" fill="rgb(0, 0, 0)" stroke="rgb(60, 60, 60)" stroke-width="1px" opacity="0.25"></line><line x1="0" y1="0" x2="2268.96625" y2="0" fill="rgb(0, 0, 0)" stroke="rgb(60, 60, 60)" stroke-width="1px" opacity="0.25"></line></g></g></g><g><g><line x1="0" y1="345.5833333333333" x2="2268.96625" y2="345.5833333333333" fill="rgb(0, 0, 0)" stroke="rgb(153, 153, 153)" stroke-width="1.5px"></line></g></g><g><g><line x1="283.62078125" y1="0" x2="283.62078125" y2="377" fill="rgb(0, 0, 0)" stroke="rgb(153, 153, 153)" stroke-width="1.5px"></line></g></g><g><g><g><g><g><path stroke="rgb(0, 119, 187)" stroke-width="2px" d="M283.62078125,-81.61850913365674L292.69664625,69.285513954858L301.77251125000004,120.93322991594977L310.84837625,159.1106590424829L319.92424124999997,174.15655062130668L329.00010625,196.61362554324202L338.07597124999995,216.62938480720413L347.15183625,213.21568343632853L356.22770125,217.09548925818584L365.30356625,233.75165121459568L368.02632575,245.6660302184943L377.10219075,242.60686241976714L386.17805574999994,250.03587580696149L395.25392074999996,262.8761637381944L404.32978575,270.05412651170593L413.40565075,270.17541044940344L422.48151575,270.6747166558009L431.55738075,270.571791873637L440.63324575,259.13779109549733L449.70911075,260.57425773228124L452.43187025,270.2078023183832L461.50773525,277.0408338961872L470.58360025,279.7072968195001L479.65946525,277.29759599148235L488.73533025,274.7648485728486L497.81119525,272.80883122380897L506.88706024999993,278.61155594468534L515.96292525,279.583492920103L525.0387902499999,276.7973890382192L534.1146552499999,280.8278635438596L536.83741475,291.32904909942647L545.91327975,297.29596851706646L554.98914475,294.72214813125197L564.06500975,291.6831818986981L573.14087475,294.10774271398714L582.21673975,298.93812353254623L591.29260475,295.48068312953785L600.36846975,295.85201902120633L609.44433475,291.06383215967566L618.52019975,292.1487267960731L621.24295925,298.81224030589794L630.3188242499999,296.19824296111676L639.3946892499999,297.08012574861965L648.47055425,298.95271868311335L657.54641925,290.1700829942016L666.62228425,297.9329435013003L675.69814925,286.36262205988186L684.77401425,296.3351192829266L693.8498792500001,292.0330809348593L702.92574425,293.81509492957656L705.64850375,299.96061851085665L714.7243687499999,304.9173363482189L723.80023375,306.2617802323066L732.87609875,308.1449876959838L741.95196375,304.66144334091825L751.02782875,306.5577495881768L760.10369375,297.68067611389273L769.1795587500001,302.28793130099587L778.2554237500001,304.71594670780405L787.3312887499999,295.05945310017165L790.05404825,301.5228971035524L799.12991325,302.71539647427664L808.20577825,303.3738217535464L817.28164325,306.10752617415875L826.35750825,301.0259102380102L835.43337325,304.39055833692305L844.50923825,308.7975626859563L853.58510325,302.0222525143721L862.6609682499999,307.55847873255203L871.7368332499999,305.5045918283736L874.4595927500001,307.4293908610667L883.53545775,306.63510065981103L892.61132275,306.8743059155843L901.6871877499999,306.9692028672L910.7630527499999,309.7553541467886L919.83891775,307.27710966902777L928.91478275,309.676010247893L937.99064775,304.67158253599814L947.06651275,305.43056873744496L956.1423777499999,308.1331398324118L958.86513725,309.72779786900355L967.9410022499999,312.9442865122299L977.0168672499999,306.9095870327318L986.0927322499999,312.2053811771491L995.16859725,315.3711802595547L1004.24446225,315.17084389579446L1013.32032725,318.07286796163805L1022.39619225,318.39669439161594L1031.47205725,317.90410102584826L1040.54792225,317.0416122735274L1043.27068175,310.71187082692376L1052.34654675,308.7691977188849L1061.42241175,309.359725833388L1070.49827675,309.7057630929064L1079.57414175,314.4644983289268L1088.6500067499999,315.71697641378404L1097.72587175,318.36954130509946L1106.80173675,320.3891752652096L1115.87760175,322.9697895432572L1124.95346675,322.72391633401674L1127.67622625,320.84043747063697L1136.75209125,319.33415366138746L1145.82795625,320.19689038053593L1154.90382125,315.4924200792438L1163.97968625,316.77175571338296L1173.05555125,318.1506325035252L1182.13141625,319.49237014376865L1191.20728125,320.1969825572197L1200.28314625,315.96938574292807L1209.35901125,317.1640897570762L1212.08177075,319.8122576407818L1221.15763575,319.95688480479885L1230.23350075,317.31757332936945L1239.30936575,318.7563583893936L1248.3852307500001,320.6788632448531L1257.4610957500001,319.6293197319518L1266.53696075,319.11585177107315L1275.61282575,318.00626119448935L1284.68869075,317.2364766442231L1293.76455575,307.90728679459005L1296.48731525,309.69386036293133L1305.56318025,315.94921811379845L1314.63904525,316.9697357219926L1323.71491025,317.39898012990585L1332.79077525,320.45449912099934L1341.86664025,322.7692028917803L1350.94250525,321.13525247700613L1360.01837025,320.94337666607464L1369.09423525,321.1324104830219L1378.1701002500001,322.649120133495L1380.89285975,320.27923628074467L1389.96872475,320.94537415633124L1399.0445897500001,315.645457436817L1408.1204547500001,314.0441310426655L1417.1963197500002,315.469649091625L1426.2721847500002,316.127741746265L1435.34804975,312.895946876501L1444.42391475,315.6674498118728L1453.4997797499998,313.9766454541347L1462.5756447499998,315.23717904053103L1465.29840425,317.25382180787307L1474.37426925,319.61651669905893L1483.45013425,317.8712498950937L1492.52599925,317.51783454912777L1501.60186425,313.91860312321506L1510.6777292499999,314.8332392455065L1519.7535942499999,313.5411491104518L1528.82945925,314.75188611250445L1537.90532425,315.10499499619795L1546.98118925,315.2956393219876L1549.70394875,316.58391589221446L1558.7798137500001,315.233460287037L1567.85567875,318.55509672151953L1576.93154375,316.7397149011708L1586.00740875,318.9910941723118L1595.0832737499998,321.0673046342411L1604.1591387499998,321.42351456772553L1613.2350037499998,322.8585282924251L1622.3108687499998,321.94458138123014L1631.3867337499998,322.6232713521015L1634.1094932499998,324.57566189778794L1643.1853582499998,323.39941084094613L1652.2612232499998,325.85188918163044L1661.3370882499999,326.2800358830372L1670.4129532499999,324.4328718482542L1679.48881825,324.8623121057404L1688.56468325,325.6641665180198L1697.64054825,325.37732036787304L1706.71641325,326.5156178936543L1715.79227825,328.0289888716349" style="fill: none;" fill="none"></path></g><g><path stroke="rgb(255, 112, 67)" stroke-width="2px" d="M288.15871375,-14.13565419862664L292.69664625,7.196613441519219L297.23457875,27.981916529144826L301.77251125000004,46.25320484975754L306.31044375,42.83798101007403L310.84837625,59.573842048833455L315.38630875,39.30241018756584L319.92424124999997,33.818306014903385L324.46217375,64.09712462109604L329.00010625,53.25947327977036L333.53803875,62.58966548945733L338.07597124999995,62.56338373100277L342.61390374999996,74.44433221933554L347.15183625,55.382973979780274L351.68976875,65.55230461719515L356.22770125,60.97472988870993L360.76563375,58.82561502068654L365.30356625,64.53277310256726L368.48011899999995,65.57571386460393L373.01805149999996,51.750914682390714L377.55598399999997,53.39717180898515L382.0939165,58.6007580946831L386.631849,70.3025131092615L391.1697815,79.56647499042379L395.707714,59.94695301504805L400.2456465,61.867305136134235L404.783579,56.85280076865598L409.3215115,56.9778476790641L413.859444,51.84652755681452L418.3973765,49.21020427557801L422.935309,70.66411087716324L427.47324150000003,80.8208466679348L432.01117400000004,77.89421638471089L436.54910649999994,87.59347241677472L441.08703899999995,87.56179993651011L445.62497149999996,81.96885452764013L450.16290399999997,70.75904045371254L453.33945675,81.22275552220668L457.87738925,72.9902630044295L462.41532175000003,79.97490279797279L466.95325425,79.75396484279071L471.49118675,76.32489856468038L476.02911924999995,76.03735329932795L480.56705174999996,78.55634422860999L485.10498425,69.97830422126873L489.64291675,67.38839730851276L494.18084925,63.189277664124575L498.71878175,67.09956891659186L503.25671424999996,62.2955469567583L507.79464674999997,57.12907395831263L512.33257925,68.62235760337393L516.87051175,71.61115371970624L521.40844425,75.89789051486486L525.94637675,82.39891097550066L530.48430925,97.44917473955212L535.02224175,91.15895314472732L538.1987945,81.66799301380479L542.736727,82.7944966066355L547.2746595,56.77833944410804L551.812592,77.80306665411092L556.3505245,76.11541975921688L560.888457,70.61804175408457L565.4263895,64.83091966727437L569.9643219999999,66.66137141239085L574.5022544999999,77.95352200419569L579.040187,71.4041301036927L583.5781195,75.463374981784L588.116052,82.71537552446318L592.6539845,86.6783077766708L597.191917,91.11347744764157L601.7298495,92.97544481695456L606.267782,85.93330305620486L610.8057145,89.93515002213593L615.343647,82.18815198431025L619.8815794999999,67.71980298493077L623.05813225,83.33590642770395L627.59606475,74.9439669857041L632.13399725,80.96495318072732L636.67192975,84.86541276171425L641.20986225,75.26962114768003L645.74779475,85.53661583302483L650.28572725,78.11431367658417L654.82365975,69.4778599746794L659.3615922500001,75.94721334026877L663.8995247500001,71.73259411760148L668.43745725,88.14081962014035L672.97538975,92.14527010384086L677.5133222499999,88.07388711052863L682.0512547499999,87.01711800939478L686.5891872499999,89.4318028365372L691.1271197499999,86.32917502372254L695.6650522499999,81.37116119970159L700.2029847499999,89.42302087769474L704.7409172499999,81.84109342391633L707.91747,87.63055938260965L712.4554025,83.4332704649998L716.993335,69.10876428127091L721.5312675,73.92582525237287L726.0692,70.32489317709536L730.6071325,77.26079214843713L735.145065,67.51628082930608L739.6829975,69.27283755504823L744.2209300000001,35.4707910352771L748.7588625,57.59003067814257L753.296795,69.73246909461187L757.8347275,69.97169354328571L762.37266,71.96341150662738L766.9105925,67.02834435896932L771.448525,69.07275336541852L775.9864575,74.15453760757924L780.5243899999999,78.05558677276895L785.0623224999999,72.450248279736L789.600255,76.08120361083684L792.77680775,86.12290938564502L797.31474025,76.43704531909043L801.85267275,75.11258631341269L806.39060525,75.71603850558967L810.9285377499999,78.00870907327874L815.4664702499999,83.80792037261335L820.0044027499999,79.4531672772535L824.54233525,78.68730775376775L829.08026775,77.29019160584971L833.61820025,94.46569243778612L838.15613275,87.61953018333412L842.69406525,95.6155859205677L847.23199775,83.95970434984889L851.76993025,93.91298771922584L856.30786275,86.20277014389512L860.84579525,81.16063488134671L865.38372775,77.68596466347935L869.9216602500001,90.8635823128543L874.4595927500001,76.72254705019321L877.6361454999999,84.31729957016825L882.1740779999999,83.66596137614562L886.7120104999999,80.30204939324568L891.2499429999999,85.0635626602903L895.7878754999999,80.23058158688161L900.3258079999999,80.63256213982356L904.8637405,89.02254875850349L909.401673,61.73390523802243L913.9396055,77.697945754991L918.477538,73.30897366678681L923.0154705,76.63786029622531L927.553403,67.11190879229059L932.0913355,67.5068785978358L936.629268,78.00591689147564L941.1672005,74.44644228099594L945.7051329999999,84.12620830225234L950.2430655,80.19243873171382L954.780998,67.5683828255278L959.3189305,77.83632636829668L962.49548325,82.63786960501147L967.03341575,65.44682073310224L971.57134825,64.9268520377986L976.10928075,72.78530114310468L980.6472132499999,77.12492595563822L985.18514575,96.53201366136761L989.72307825,79.8638491551298L994.26101075,76.37569871267982L998.79894325,68.58447486592127L1003.33687575,67.27145476201844L1007.8748082499999,65.24677413936263L1012.4127407499999,57.548369818344554L1016.9506732499999,67.85436814630918L1021.4886057499999,82.27725595000322L1026.02653825,92.95594340818883L1030.56447075,83.82197646453636L1035.10240325,84.29702003094354L1039.64033575,70.01377654051458L1044.17826825,71.73941351558176L1047.354821,84.03181339255224L1051.8927535,77.9833018915927L1056.430686,94.30362821839702L1060.9686185,81.44180958602306L1065.506551,78.96390304446305L1070.0444835,85.36566139944449L1074.582416,100.49366541120241L1079.1203485,92.54628053156239L1083.658281,86.54813429622476L1088.1962135,74.61132525349825L1092.734146,76.23508208758739L1097.2720785,74.31410394768182L1101.810011,79.1393668055153L1106.3479435,72.3579562306175L1110.8858759999998,77.30614827075226L1115.4238085,76.67276030778066L1119.9617409999998,79.99668929973751L1124.4996735,78.0280622720689L1129.0376059999999,82.97153103033526L1132.21415875,91.4368008077929L1136.75209125,79.71070986394824L1141.29002375,78.96084695302295L1145.82795625,80.15703872785673L1150.36588875,76.95919805732791L1154.90382125,79.78062843064919L1159.44175375,83.41888677346981L1163.97968625,85.0751226858394L1168.51761875,79.79030073381051L1173.05555125,90.01035665291505L1177.59348375,93.62384600729519L1182.13141625,98.31380951776566L1186.66934875,84.22471127335905L1191.20728125,80.72486862793374L1195.74521375,84.47231647921495L1200.28314625,77.42408083808158L1204.82107875,89.61880555310887L1209.35901125,92.02611957724326L1213.89694375,88.02390898507099L1217.0734965,93.39717216834191L1221.611429,71.41067044860978L1226.1493615,69.58864371534304L1230.687294,70.27493225270183L1235.2252265,74.03137161771662L1239.7631589999999,80.38215401832389L1244.3010915,69.40255056061824L1248.8390239999999,72.9389181985764L1253.3769565,75.10336617555078L1257.914889,67.455502930835L1262.4528215,79.32458445840388L1266.990754,88.16543564844125L1271.5286865,91.55092714020407L1276.066619,83.27535105817793L1280.6045515,81.63029815995668L1285.142484,88.42598295357209L1289.6804165,68.71685095715355L1294.218349,80.1545586909125L1298.7562815000001,73.0354804272614L1301.9328342499998,80.30490421504749L1306.47076675,83.0826860105056L1311.0086992499998,82.96668959667636L1315.54663175,80.86523839042792L1320.0845642499999,80.01539881352312L1324.62249675,79.5174271424039L1329.1604292499999,55.46712598956174L1333.69836175,72.75795852595496L1338.23629425,61.12613882295648L1342.77422675,70.98326478206536L1347.31215925,66.65292889557333L1351.85009175,76.33639046360287L1356.38802425,77.20429630761885L1360.92595675,79.07310962092214L1365.46388925,84.07925802515746L1370.0018217499999,84.42533015438005L1374.53975425,82.59889544980575L1379.0776867499999,66.79175237379582L1383.61561925,66.7419852230675L1386.792172,77.7055583683885L1391.3301044999998,74.39576470980467L1395.868037,76.21611558276066L1400.4059694999999,70.36615047977955L1404.943902,77.80103014783026L1409.4818344999999,79.10196547235626L1414.019767,70.24323019499928L1418.5576995,78.3670559154869L1423.095632,88.87887853544481L1427.6335645,88.80610956049878L1432.1714969999998,84.07290300109145L1436.7094295,71.5645078085551L1441.2473619999998,77.58717050131304L1445.7852945,86.39883840467223L1450.3232269999999,85.53535257807783L1454.8611595,83.80129050631177L1459.3990919999999,90.24390468251022L1463.9370245,85.12522741109916L1468.474957,83.70522398521973L1471.6515097499998,83.14000369769616L1476.18944225,91.27182834741848L1480.7273747499999,93.78118906854019L1485.26530725,89.37150739692703L1489.8032397499999,80.28207077818945L1494.3411722499998,78.22056365949612L1498.87910475,73.69397956297422L1503.4170372499998,79.14177057444431L1507.95496975,70.5306975124243L1512.4929022499998,85.20373128719905L1517.03083475,72.18377135317195L1521.5687672499998,81.67760361902322L1526.10669975,68.51703735394722L1530.6446322499999,83.3847822320667L1535.18256475,94.19562564127887L1539.7204972499999,97.04530562857735L1544.25842975,86.0807182186839L1548.79636225,80.91905885104319L1553.33429475,77.31392012336244L1556.5108475000002,84.8989751555427L1561.0487799999999,95.35069267061778L1565.5867124999997,98.68380362256823L1570.1246449999999,94.01318334617889L1574.6625774999998,88.4021070822796L1579.20051,78.60993031410698L1583.7384424999998,68.89102050313352L1588.276375,67.32075118610663L1592.8143074999998,77.24396108144168L1597.35224,83.26383176974639L1601.8901724999998,89.10423585294996L1606.428105,71.95447589468546L1610.9660374999999,81.73013059007081L1615.50397,86.47476974153687L1620.0419024999999,71.76730617100503L1624.579835,76.1981948905061L1629.1177675,82.92652446585123L1633.6556999999998,76.22347870999909L1638.1936325,64.98697040598199L1641.37018525,77.31620654734337L1645.90811775,78.59320046070633L1650.44605025,78.77335440454937L1654.98398275,77.277260553865L1659.5219152500001,84.59953058085546L1664.05984775,82.2654568691355L1668.5977802500001,87.10165283715543L1673.13571275,94.06761643669495L1677.67364525,83.81470194288983L1682.2115777499998,85.66470911996896L1686.74951025,86.67671011823819L1691.2874427499999,92.96497911774162L1695.8253752499998,83.73460035262337L1700.3633077499999,70.76304988903502L1704.9012402499998,83.66439039017382L1709.43917275,83.87434006833405L1713.9771052499998,78.27519092025386L1718.51503775,70.17213609056893L1723.0529702499998,57.4984493269755L1726.229523,42.71417666361134L1730.7674555,66.009873208714L1735.305388,76.25291867890706L1739.8433205000001,73.34493760966512L1744.381253,82.61372386636293L1748.9191855000001,90.54249757461923L1753.457118,88.6541727658103L1757.9950505000002,90.56480079150145L1762.532983,87.94460427714955L1767.0709155,84.82085221580809L1771.608848,86.34025389495775L1776.1467805,87.79643345997704L1780.684713,88.45963332926817L1785.2226455,91.19432992463663L1789.760578,84.88031135435119L1794.2985104999998,83.8182407842192L1798.836443,91.66604455070376L1803.3743754999998,101.04744873299211L1807.912308,100.62617492191401L1811.08886075,87.05570186483311L1815.62679325,88.79796246274782L1820.1647257500001,81.80867296606982L1824.70265825,83.5867320467076L1829.24059075,82.9474605343168L1833.77852325,75.85682807096396L1838.31645575,85.11458352245023L1842.85438825,72.52645305218579L1847.39232075,76.82166835917405L1851.93025325,73.25607843351389L1856.46818575,67.42792311004024L1861.00611825,86.9284454188221L1865.54405075,61.99189545322298L1870.0819832500001,76.20651800796696L1874.61991575,89.84618202864317L1879.1578482500001,88.31112182151787L1883.69578075,94.7514644067179L1888.2337132500002,84.83577117526676L1892.77164575,84.7855266881237L1895.9481985,74.19093199683726L1900.486131,79.73158501851657L1905.0240635,79.1972426410602L1909.561996,74.38658914383763L1914.0999285,79.4124586110305L1918.637861,77.4815247332051L1923.1757935,79.75601639002537L1927.713726,82.92380296975358L1932.2516585,76.89896298124387L1936.789591,85.49840660894313L1941.3275235,91.94213034314555L1945.865456,68.26455135505978L1950.4033885000001,79.57795600113229L1954.941321,81.63957878361322L1959.4792535000001,78.63172238117562L1964.017186,90.04212992814843L1968.5551185,92.13895917789739L1973.093051,76.98102326108977L1977.6309835,85.79438131002962" style="fill: none;" fill="none"></path></g><g><path stroke="rgb(204, 51, 17)" stroke-width="2px" d="M292.69664625,-21.687920828660367L301.77251125000004,26.087126869530948L310.84837625,49.972060923811625L319.92424124999997,44.77011159149254L329.00010625,49.24199773607967L338.07597124999995,58.56824947346212L347.15183625,62.45541017915093L356.22770125,56.87913029826336L365.30356625,68.20632009215933L368.02632575,69.32174757616946L377.10219075,69.20967537367045L386.17805574999994,74.93018535142198L395.25392074999996,68.34086023592005L404.32978575,54.9239774352601L413.40565075,51.54143739853595L422.48151575,70.90637113335578L431.55738075,66.3644091655562L440.63324575,75.8871216484817L449.70911075,69.49568773069745L452.43187025,77.05884540643393L461.50773525,79.43753650566316L470.58360025,77.09313946114474L479.65946525,77.43281386997467L488.73533025,74.41063363462706L497.81119525,77.60062412052804L506.88706024999993,67.42179281586328L515.96292525,65.40799143073662L525.0387902499999,71.80694008898678L534.1146552499999,81.83320614242541L536.83741475,82.21306181945789L545.91327975,76.60207785811934L554.98914475,79.93483512608492L564.06500975,72.31010585838874L573.14087475,74.80104939738027L582.21673975,81.21670888881624L591.29260475,80.91531537398384L600.36846975,88.05540280067578L609.44433475,84.43773253264885L618.52019975,81.36367080696493L621.24295925,81.11372003190382L630.3188242499999,85.89966625145519L639.3946892499999,74.41849821974006L648.47055425,76.88771262709855L657.54641925,75.6452526584639L666.62228425,84.84050597816679L675.69814925,83.65641588009919L684.77401425,83.43560384533822L693.8498792500001,82.01454989603445L702.92574425,79.12241655481279L705.64850375,85.09880742568151L714.7243687499999,78.98760262212397L723.80023375,80.0747592473918L732.87609875,74.90912923960707L741.95196375,56.33499594775952L751.02782875,68.82556718338867L760.10369375,67.47339609711946L769.1795587500001,67.62718334267294L778.2554237500001,72.00543007335949L787.3312887499999,76.85601354687577L790.05404825,82.34357199102158L799.12991325,78.91893306392143L808.20577825,85.48018648038936L817.28164325,72.58618119047458L826.35750825,71.4135428270879L835.43337325,72.52251915541387L844.50923825,68.43598790808778L853.58510325,71.77584444588985L862.6609682499999,78.24445171618407L871.7368332499999,75.22908644356687L874.4595927500001,76.64571462360044L883.53545775,70.0630199846845L892.61132275,75.81844218595154L901.6871877499999,81.34226631337407L910.7630527499999,84.05654145408079L919.83891775,83.62404843446654L928.91478275,80.99228682683145L937.99064775,76.29740029513579L947.06651275,75.05190692706748L956.1423777499999,76.87568469661778L958.86513725,89.04538878491508L967.9410022499999,90.70318245504893L977.0168672499999,85.59778941242655L986.0927322499999,76.49114110014102L995.16859725,58.593338203080066L1004.24446225,58.94322441715849L1013.32032725,66.47735292135991L1022.39619225,83.30208391995819L1031.47205725,83.7169760965403L1040.54792225,85.70332039811785L1043.27068175,92.10716670802384L1052.34654675,90.00439488918278L1061.42241175,88.19056809761543L1070.49827675,93.4655959496007L1079.57414175,87.67005875641735L1088.6500067499999,85.60941755136633L1097.72587175,85.2492351334937L1106.80173675,83.49906381378457L1115.87760175,81.64333248382735L1124.95346675,85.53904319750825L1127.67622625,89.77193180092712L1136.75209125,89.6741071186575L1145.82795625,86.77967565708036L1154.90382125,85.7738095608513L1163.97968625,79.9533365261849L1173.05555125,85.96540362590332L1182.13141625,79.06871015799317L1191.20728125,86.6499766844845L1200.28314625,91.63563181191705L1209.35901125,90.23084547060745L1212.08177075,87.56617126825262L1221.15763575,82.3695277887353L1230.23350075,84.45359683738758L1239.30936575,78.4902937057015L1248.3852307500001,81.74869421575846L1257.4610957500001,89.487038259433L1266.53696075,85.15280984524469L1275.61282575,82.49698676675706L1284.68869075,72.02868067429552L1293.76455575,71.66136972431002L1296.48731525,76.29415430420835L1305.56318025,85.18705478386602L1314.63904525,84.15938126093067L1323.71491025,68.23244180905374L1332.79077525,77.86467268443636L1341.86664025,68.29962489034654L1350.94250525,75.10569376364901L1360.01837025,86.10256063907678L1369.09423525,87.16780828616623L1378.1701002500001,86.92377359379293" style="fill: none;" fill="none"></path></g></g></g></g><g opacity="0.2"><g><g><g><path stroke="rgb(0, 119, 187)" stroke-width="2px" d="M283.62078125,-81.61850913365674L292.69664625,159.82792780796692L301.77251125000004,170.5150372385979L310.84837625,204.00731569528583L319.92424124999997,193.80046666661903L329.00010625,227.67984470725062L338.07597124999995,245.25224080681804L347.15183625,208.23847406605884L356.22770125,222.81744923194253L365.30356625,258.48411054412526L368.02632575,263.42953618367517L377.10219075,238.0347585777442L386.17805574999994,261.15513887008035L395.25392074999996,282.1114401742816L404.32978575,280.8126332461834L413.40565075,270.3572508171201L422.48151575,271.4234646757444L431.55738075,270.41743083298206L440.63324575,241.98853178322318L449.70911075,262.7288263887167L452.43187025,284.65759087105596L461.50773525,287.2901564190785L470.58360025,283.70693855981034L479.65946525,273.6830732946595L488.73533025,270.9657454465827L497.81119525,269.87481354177L506.88706024999993,287.3156281784177L515.96292525,281.0413968910774L525.0387902499999,272.6182357817888L534.1146552499999,286.8735730747382L536.83741475,307.0808239504695L545.91327975,306.2463464563092L554.98914475,290.8614178597927L564.06500975,287.12473276754224L573.14087475,297.74458383272093L582.21673975,306.1836946358284L591.29260475,290.2945225785176L600.36846975,296.409022855262L609.44433475,283.88155189404887L618.52019975,293.7760687470436L621.24295925,308.80751055727404L630.3188242499999,292.27724694708985L639.3946892499999,298.40294992923737L648.47055425,301.7616080840429L657.54641925,276.99612946311635L666.62228425,309.5772342607379L675.69814925,269.0071398988366L684.77401425,311.293865116934L693.8498792500001,285.5800234129032L702.92574425,296.48811592161655L705.64850375,309.17890388270223L714.7243687499999,312.35241310422623L723.80023375,308.2784460584323L732.87609875,310.9697988914947L741.95196375,299.43612680832547L751.02782875,309.40220895906293L760.10369375,284.36506590247154L769.1795587500001,309.198814081649L778.2554237500001,308.35796981801593L787.3312887499999,280.5747126887242L790.05404825,311.218063108623L799.12991325,304.50414553036296L808.20577825,304.361459672451L817.28164325,310.20808280507725L826.35750825,293.40348633378744L835.43337325,309.4375304852923L844.50923825,315.40806920950615L853.58510325,291.85928725699586L862.6609682499999,315.86281805982196L871.7368332499999,302.423761472106L874.4595927500001,310.31658941010636L883.53545775,305.4436653579275L892.61132275,307.23311379924417L901.6871877499999,307.11154829462373L910.7630527499999,313.93458106617135L919.83891775,303.55974295238656L928.91478275,313.2743611161908L937.99064775,297.16494096815586L947.06651275,306.56904803961515L956.1423777499999,312.1869964748621L958.86513725,312.11978492389125L967.9410022499999,317.7690194770694L977.0168672499999,297.85753781348467L986.0927322499999,320.149072393775L995.16859725,320.11987888316315L1004.24446225,314.87033935015404L1013.32032725,322.4259040604035L1022.39619225,318.8824340365827L1031.47205725,317.1652109771967L1040.54792225,315.7478791450461L1043.27068175,301.21725865701836L1052.34654675,305.8551880568266L1061.42241175,310.2455180051426L1070.49827675,310.22481898218393L1079.57414175,321.6026011829575L1088.6500067499999,317.59569354106986L1097.72587175,322.3483886420727L1106.80173675,323.41862620537484L1115.87760175,326.8407109603286L1124.95346675,322.3551065201561L1127.67622625,318.01521917556727L1136.75209125,317.0747279475133L1145.82795625,321.49099545925856L1154.90382125,308.4357146273057L1163.97968625,318.69075916459167L1173.05555125,320.2189476887385L1182.13141625,321.50497660413384L1191.20728125,321.2539011773964L1200.28314625,309.6279905214906L1209.35901125,318.9561457782984L1212.08177075,323.7845094663402L1221.15763575,320.1738255508244L1230.23350075,313.35860611622536L1239.30936575,320.9145359794299L1248.3852307500001,323.5626205280423L1257.4610957500001,318.05500446259975L1266.53696075,318.34564982975525L1275.61282575,316.3418753296137L1284.68869075,316.08179981882375L1293.76455575,293.9135020201405L1296.48731525,312.3737207154433L1305.56318025,325.33225474009913L1314.63904525,318.5005121342838L1323.71491025,318.0428467417757L1332.79077525,325.03777760763967L1341.86664025,326.2412585479518L1350.94250525,318.6843268548449L1360.01837025,320.65556294967735L1369.09423525,321.41596120844287L1378.1701002500001,324.92418460920453L1380.89285975,316.7244105016192L1389.96872475,321.9445809697112L1399.0445897500001,307.69558235754573L1408.1204547500001,311.6421414514383L1417.1963197500002,317.6079261650642L1426.2721847500002,317.11488072822493L1435.34804975,308.04825457185507L1444.42391475,319.82470421493053L1453.4997797499998,311.4404389175276L1462.5756447499998,317.1279794201255L1465.29840425,320.27878595888615L1474.37426925,323.16055903583765L1483.45013425,315.2533496891459L1492.52599925,316.9877115301788L1501.60186425,308.5197559843461L1510.6777292499999,316.2051934289436L1519.7535942499999,311.6030139078697L1528.82945925,316.56799161558354L1537.90532425,315.63465832173824L1546.98118925,315.58160581067204L1549.70394875,318.5163307475547L1558.7798137500001,313.2077768792709L1567.85567875,323.53755137324333L1576.93154375,314.0166421706478L1586.00740875,322.36816307902336L1595.0832737499998,324.18162032713497L1604.1591387499998,321.95782946795225L1613.2350037499998,325.0110488794744L1622.3108687499998,320.5736610144377L1631.3867337499998,323.6413063084086L1634.1094932499998,327.5042477163176L1643.1853582499998,321.6350342556834L1652.2612232499998,329.5306066926569L1661.3370882499999,326.9222559351474L1670.4129532499999,321.66212579607964L1679.48881825,325.5064724919697L1688.56468325,326.86694813643896L1697.64054825,324.94705114265287L1706.71641325,328.2230641823262L1715.79227825,330.2990453386059" style="fill: none;" fill="none"></path></g><g><path stroke="rgb(255, 112, 67)" stroke-width="2px" d="M283.62078125,-78.90547885497404L288.15871375,24.72624059518182L292.69664625,27.675590376059233L297.23457875,52.42543296019238L301.77251125000004,70.10819888114935L306.31044375,38.1134969592095L310.84837625,83.5063911080361L315.38630875,9.746467928091704L319.92424124999997,25.730317592620906L324.46217375,109.05764143665635L329.00010625,37.10129296779638L333.53803875,76.53417931000399L338.07597124999995,62.52404690782231L342.61390374999996,92.24247893691069L347.15183625,26.813342531522153L351.68976875,80.79912837346404L356.22770125,54.110304872194945L360.76563375,55.602488378683745L365.30356625,73.09264079729724L368.48011899999995,67.14002967874217L373.01805149999996,31.01447409391409L377.55598399999997,55.866503328084946L382.0939165,66.40603478749603L386.631849,87.85500701268523L391.1697815,93.46235196789115L395.707714,30.517753720283565L400.2456465,64.74782840410876L404.783579,49.33105191588402L409.3215115,57.165417929490445L413.859444,44.14955020944279L418.3973765,45.25572022795683L422.935309,102.84496651093173L427.47324150000003,96.05594914158189L432.01117400000004,73.50427116950362L436.54910649999994,102.14235604802775L441.08703899999995,87.51429121692985L445.62497149999996,73.5794365008673L450.16290399999997,53.94431944688165L453.33945675,96.91832806666696L457.87738925,60.641524255275726L462.41532175000003,90.45186247428268L466.95325425,79.4225579102835L471.49118675,71.18129914999014L476.02911924999995,75.60603540142387L480.56705174999996,82.33483062187838L485.10498425,57.11124421159428L489.64291675,63.50353693962103L494.18084925,56.890598197778104L498.71878175,72.965005795161L503.25671424999996,55.0895140171051L507.79464674999997,49.37936446070671L512.33257925,85.86228307088226L516.87051175,76.0943478941918L521.40844425,82.32799570759147L525.94637675,92.15044166644424L530.48430925,120.0245703856151L535.02224175,81.72362075249362L538.1987945,67.43155281742423L542.736727,84.4842519958815L547.2746595,17.754103700319945L551.812592,109.3401574691137L556.3505245,73.5839494168759L560.888457,62.37197474638623L565.4263895,56.150236537059186L569.9643219999999,69.4070490300656L574.5022544999999,94.89174789190298L579.040187,61.58004225293797L583.5781195,81.55224229892104L588.116052,93.59337633848196L592.6539845,92.62270615498232L597.191917,97.7662319540978L601.7298495,95.76839587092405L606.267782,75.37009041508048L610.8057145,95.9379204710325L615.343647,70.56765492757171L619.8815794999999,46.01727948586148L623.05813225,106.76006159186369L627.59606475,62.356057822704315L632.13399725,89.99643247326225L636.67192975,90.71610213319468L641.20986225,60.87593372662866L645.74779475,100.93710786104208L650.28572725,66.9808604419232L654.82365975,56.52317942182225L659.3615922500001,85.65124338865286L663.8995247500001,65.41066528360057L668.43745725,112.75315787394845L672.97538975,98.15194582939154L677.5133222499999,81.9668126205604L682.0512547499999,85.43196435769408L686.5891872499999,93.0538300772509L691.1271197499999,81.67523330450064L695.6650522499999,73.93414046367019L700.2029847499999,101.50081039468455L704.7409172499999,70.4682022432487L707.91747,96.3147583206495L712.4554025,77.13733708858496L716.993335,47.62200500567758L721.5312675,81.1514167090258L726.0692,64.92349506417918L730.6071325,87.66464060544973L735.145065,52.89951385060948L739.6829975,71.90767264366156L744.2209300000001,-15.232278744379641L748.7588625,90.76889014244085L753.296795,87.94612671931594L757.8347275,70.33053021629661L762.37266,74.95098845163989L766.9105925,59.625743637482344L771.448525,72.13936687509226L775.9864575,81.77721397082018L780.5243899999999,83.90716052055365L785.0623224999999,64.04224054018664L789.600255,81.52763660748809L792.77680775,101.18546804785734L797.31474025,61.908249219258664L801.85267275,73.12589780489611L806.39060525,76.62121679385513L810.9285377499999,81.44771492481237L815.4664702499999,92.50673732161528L820.0044027499999,72.92103763421386L824.54233525,77.538518468539L829.08026775,75.19451738397288L833.61820025,120.22894368569064L838.15613275,77.35028680165618L842.69406525,107.60966952641809L847.23199775,66.47588199377066L851.76993025,108.84291277329135L856.30786275,74.6374437808991L860.84579525,73.59743198752409L865.38372775,72.47395933667826L869.9216602500001,110.63000878691679L874.4595927500001,55.51099415620172L877.6361454999999,95.70942835013079L882.1740779999999,82.68895408511167L886.7120104999999,75.25618141889578L891.2499429999999,92.20583256085723L895.7878754999999,72.98110997676855L900.3258079999999,81.23553296923643L904.8637405,101.6075286865235L909.401673,20.80093995730084L913.9396055,101.6440065304439L918.477538,66.72551553448051L923.0154705,81.6311902403832L927.553403,52.8229815363884L932.0913355,68.09933330615371L936.629268,93.75447433193534L941.1672005,69.1072303652764L945.7051329999999,98.64585733413702L950.2430655,74.29178437590605L954.780998,48.63229896624887L959.3189305,93.23824168245005L962.49548325,89.84018446008372L967.03341575,39.66024742523831L971.57134825,64.14689899484324L976.10928075,84.5729748010636L980.6472132499999,83.63436317443853L985.18514575,125.64264521996185L989.72307825,54.861602395772934L994.26101075,71.14347304900497L998.79894325,56.897639095783234L1003.33687575,65.30192460616439L1007.8748082499999,62.20975320537889L1012.4127407499999,46.00076333681744L1016.9506732499999,83.31336563825613L1021.4886057499999,103.91158765554434L1026.02653825,108.97397459546733L1030.56447075,70.12102604905772L1035.10240325,85.00958538055426L1039.64033575,48.58891130487126L1044.17826825,74.32786897818255L1047.354821,102.47041320800787L1051.8927535,68.91053464015334L1056.430686,118.78411770860362L1060.9686185,62.14908163746202L1065.506551,75.24704323212313L1070.0444835,94.96829893191659L1074.582416,123.18567142883941L1079.1203485,80.62520321210235L1083.658281,77.55091494321829L1088.1962135,56.70611168940866L1092.734146,78.67071733872103L1097.2720785,71.43263673782354L1101.810011,86.37726109226554L1106.3479435,62.185840368270874L1110.8858759999998,84.72843633095431L1115.4238085,75.72267836332327L1119.9617409999998,84.98258278767275L1124.4996735,75.07512173056608L1129.0376059999999,90.38673416773486L1132.21415875,104.13470547397935L1136.75209125,62.12157344818115L1141.29002375,77.83605258663505L1145.82795625,81.95132639010757L1150.36588875,72.16243705153471L1154.90382125,84.01277399063116L1159.44175375,88.87627428770071L1163.97968625,87.55947655439383L1168.51761875,71.86306780576712L1173.05555125,105.34044053157174L1177.59348375,99.04408003886545L1182.13141625,105.34875478347146L1186.66934875,63.091063906749184L1191.20728125,75.47510465979582L1195.74521375,90.09348825613665L1200.28314625,66.85172737638163L1204.82107875,107.91089262564981L1209.35901125,95.63709061344468L1213.89694375,82.02059309681266L1217.0734965,101.45706694324815L1221.611429,38.43091786901158L1226.1493615,66.85560361544299L1230.687294,71.30436505874007L1235.2252265,79.6660306652388L1239.7631589999999,89.9083276192348L1244.3010915,52.93314537405968L1248.8390239999999,78.24346965551382L1253.3769565,78.35003814101225L1257.914889,55.98370806376141L1262.4528215,97.12820674975717L1266.990754,101.42671243349719L1271.5286865,96.62916437784838L1276.066619,70.86198693513876L1280.6045515,79.16271881262469L1285.142484,98.61951014399534L1289.6804165,39.15315296252572L1294.218349,97.31112029155099L1298.7562815000001,62.35686303178471L1301.9328342499998,91.20903989672667L1306.47076675,87.24935870369285L1311.0086992499998,82.79269497593253L1315.54663175,77.7130615810554L1320.0845642499999,78.74063944816595L1324.62249675,78.77046963572508L1329.1604292499999,19.39167426029843L1333.69836175,98.69420733054483L1338.23629425,43.67840926845872L1342.77422675,85.76895372072863L1347.31215925,60.157425065835355L1351.85009175,90.86158281564718L1356.38802425,78.50615507364279L1360.92595675,81.87632959087699L1365.46388925,91.58848063151049L1370.0018217499999,84.94443834821391L1374.53975425,79.85924339294439L1379.0776867499999,43.08103775978094L1383.61561925,66.667334496975L1386.792172,94.15091808636993L1391.3301044999998,69.43107422192901L1395.868037,78.9466418921948L1400.4059694999999,61.591202825307846L1404.943902,88.95334964990622L1409.4818344999999,81.0533684591453L1414.019767,56.955127278963744L1418.5576995,90.55279449621844L1423.095632,104.64661246538168L1427.6335645,88.69695609807974L1432.1714969999998,76.97309316198039L1436.7094295,52.801915019750595L1441.2473619999998,86.62116454044985L1445.7852945,99.61634025971102L1450.3232269999999,84.24012383818632L1454.8611595,81.20019739866262L1459.3990919999999,99.90782594680792L1463.9370245,77.4472115039826L1468.474957,81.57521884640067L1471.6515097499998,82.29217326641088L1476.18944225,103.46956532200181L1480.7273747499999,97.54523015022284L1485.26530725,82.75698488950735L1489.8032397499999,66.64791585008311L1494.3411722499998,75.12830298145622L1498.87910475,66.90410341819137L1503.4170372499998,87.31345709164947L1507.95496975,57.614087919394194L1512.4929022499998,107.2132819493612L1517.03083475,52.65383145213127L1521.5687672499998,95.91835201780009L1526.10669975,48.77618795633316L1530.6446322499999,105.68639954924589L1535.18256475,110.41189075509715L1539.7204972499999,101.31982560952508L1544.25842975,69.63383710384375L1548.79636225,73.17656979958224L1553.33429475,71.90621203184133L1556.5108475000002,96.27655770381295L1561.0487799999999,111.02826894323039L1565.5867124999997,103.68347005049395L1570.1246449999999,87.0072529315949L1574.6625774999998,79.98549268643069L1579.20051,63.921665161848125L1583.7384424999998,54.31265578667325L1588.276375,64.96534721056628L1592.8143074999998,92.12877592444426L1597.35224,92.29363780220359L1601.8901724999998,97.8648419777553L1606.428105,46.2298359572888L1610.9660374999999,96.3936126331489L1615.50397,93.59172846873611L1620.0419024999999,49.70611081520718L1624.579835,82.84452796975779L1629.1177675,93.01901882886892L1633.6556999999998,66.16891007622093L1638.1936325,48.132207949956296L1641.37018525,95.81006075938546L1645.90811775,80.50869133075088L1650.44605025,79.04358532031387L1654.98398275,75.03311977783846L1659.5219152500001,95.58293562134111L1664.05984775,78.76434630155569L1668.5977802500001,94.35594678918528L1673.13571275,104.51656183600431L1677.67364525,68.43533020218223L1682.2115777499998,88.43971988558775L1686.74951025,88.194711615642L1691.2874427499999,102.39738261699682L1695.8253752499998,69.88903220494598L1700.3633077499999,51.30572419365251L1704.9012402499998,103.016401141882L1709.43917275,84.18926458557456L1713.9771052499998,69.87646719813353L1718.51503775,58.01755384604138L1723.0529702499998,38.48791918158537L1726.229523,20.537767668565152L1730.7674555,100.9534180263679L1735.305388,91.6174868841967L1739.8433205000001,68.98296600580221L1744.381253,96.51690325140959L1748.9191855000001,102.43565813700366L1753.457118,85.8216855525971L1757.9950505000002,93.43074283003813L1762.532983,84.01430950562167L1767.0709155,80.13522412379592L1771.608848,88.6193564136824L1776.1467805,89.98070280750602L1780.684713,89.45443313320487L1785.2226455,95.2963748176893L1789.760578,75.40928349892306L1794.2985104999998,82.2251349290213L1798.836443,103.43775020043063L1803.3743754999998,115.11955500642466L1807.912308,99.99426420529687L1811.08886075,66.69999227921176L1815.62679325,91.41135335961985L1820.1647257500001,71.32473872105288L1824.70265825,86.25382066766429L1829.24059075,81.98855326573062L1833.77852325,65.22087937593466L1838.31645575,99.00121669967973L1842.85438825,53.64425734678906L1847.39232075,83.26449131965643L1851.93025325,67.90769354502368L1856.46818575,58.68569012482965L1861.00611825,116.17922888199496L1865.54405075,24.58707050482434L1870.0819832500001,97.52845184008288L1874.61991575,110.30567805965745L1879.1578482500001,86.00853151082998L1883.69578075,104.411978284518L1888.2337132500002,69.96223132809013L1892.77164575,84.71015995740896L1895.9481985,58.29903995990753L1900.486131,88.04256455103564L1905.0240635,78.39572907487559L1909.561996,67.17060889800399L1914.0999285,86.95126281181979L1918.637861,74.58512391646713L1923.1757935,83.16775387525564L1927.713726,87.67548283934599L1932.2516585,67.8617029984793L1936.789591,98.39757205049204L1941.3275235,101.60771594444918L1945.865456,32.74818287293118L1950.4033885000001,96.54806297024095L1954.941321,84.73201295733458L1959.4792535000001,74.11993777751928L1964.017186,107.15774124860769L1968.5551185,95.28420305252081L1973.093051,54.244119385878264L1977.6309835,99.01441838343942" style="fill: none;" fill="none"></path></g><g><path stroke="rgb(204, 51, 17)" stroke-width="2px" d="M283.62078125,-80.1578973134358L292.69664625,13.394065062205016L301.77251125000004,71.95117265979457L310.84837625,78.06074337164569L319.92424124999997,37.97844654321676L329.00010625,55.428226153055846L338.07597124999995,71.9049386779468L347.15183625,68.12292780478805L356.22770125,48.65520061055821L365.30356625,85.02587682008749L368.02632575,70.98477195700019L377.10219075,69.04217696189886L386.17805574999994,83.49227186044067L395.25392074999996,58.469781736532866L404.32978575,34.814424276351986L413.40565075,46.47001297275227L422.48151575,99.94557714462286L431.55738075,59.55261941750848L440.63324575,90.16973968346923L449.70911075,59.909121056397794L452.43187025,88.40316713849711L461.50773525,83.00549488266319L470.58360025,73.57659018039709L479.65946525,77.94232145945239L488.73533025,69.87738476196932L497.81119525,82.38559624552732L506.88706024999993,52.1535719037056L515.96292525,62.38729244470596L525.0387902499999,81.40535718202597L534.1146552499999,96.8725996812185L536.83741475,82.7828452090423L545.91327975,68.18560303250956L554.98914475,84.93397063016897L564.06500975,60.87301250298822L573.14087475,78.53746459881472L582.21673975,90.84019796053576L591.29260475,80.46322510639834L600.36846975,98.76553387443232L609.44433475,79.0112271507582L618.52019975,76.75257822871214L621.24295925,80.73879386981338L630.3188242499999,93.07858557502436L639.3946892499999,57.19674618045491L648.47055425,80.59153423706698L657.54641925,73.7815627058348L666.62228425,98.63338595628744L675.69814925,81.88028073310858L684.77401425,83.10438579320913L693.8498792500001,79.88296897212672L702.92574425,74.78421654303878L705.64850375,94.06339373191207L714.7243687499999,69.82079541683203L723.80023375,81.70549418528884L732.87609875,67.16068422794348L741.95196375,28.473796010017452L751.02782875,87.56142403682082L760.10369375,65.44513946771627L769.1795587500001,67.85786421100306L778.2554237500001,78.57280016938853L787.3312887499999,84.13188875714945L790.05404825,90.57490965723997L799.12991325,73.78197467327124L808.20577825,95.32206660509115L817.28164325,53.24517325560254L826.35750825,69.65458528200793L835.43337325,74.1859836479029L844.50923825,62.306191037098586L853.58510325,76.7856292525928L862.6609682499999,87.94736262162536L871.7368332499999,70.70603853464132L874.4595927500001,78.77065689365077L883.53545775,60.18897802631062L892.61132275,84.45157548785215L901.6871877499999,89.62800250450778L910.7630527499999,88.12795416514086L919.83891775,82.97530890504527L928.91478275,77.04464441537863L937.99064775,69.25507049759238L947.06651275,73.18366687496513L956.1423777499999,79.61135135094332L958.86513725,107.29994491736102L967.9410022499999,93.18987296024966L977.0168672499999,77.93969984849304L986.0927322499999,62.831168631712615L995.16859725,31.74663385748869L1004.24446225,59.46805373827618L1013.32032725,77.77854567766195L1022.39619225,108.53918041785562L1031.47205725,84.33931436141341L1040.54792225,88.6828368504843L1043.27068175,101.71293617288279L1052.34654675,86.85023716092115L1061.42241175,85.46982791026443L1070.49827675,101.37813772757852L1079.57414175,78.97675296664244L1088.6500067499999,82.51845574378973L1097.72587175,84.70896150668472L1106.80173675,80.87380683422094L1115.87760175,78.85973548889166L1124.95346675,91.38260926802963L1127.67622625,96.1212647060554L1136.75209125,89.52737009525305L1145.82795625,82.43802846471476L1154.90382125,84.26501041650778L1163.97968625,71.2226269741854L1173.05555125,94.98350427548098L1182.13141625,68.72366995612788L1191.20728125,98.02187647422159L1200.28314625,99.11411450306582L1209.35901125,88.12366595864302L1212.08177075,83.56915996472048L1221.15763575,74.57456256945937L1230.23350075,87.57970041036612L1239.30936575,69.54533900817245L1248.3852307500001,86.63629498084396L1257.4610957500001,101.09455432494485L1266.53696075,78.65146722396224L1275.61282575,78.51325214902567L1284.68869075,56.326221535603224L1293.76455575,71.11040329933172L1296.48731525,83.24333117405581L1305.56318025,98.52640550335252L1314.63904525,82.61787097652763L1323.71491025,44.34203263123834L1332.79077525,92.31301899751037L1341.86664025,53.952053199211775L1350.94250525,85.31479707360273L1360.01837025,102.59786095221841L1369.09423525,88.76567975680041L1378.1701002500001,86.55772155523306" style="fill: none;" fill="none"></path></g></g></g></g></g></g><g transform="translate(58, 377)" clip-path="url(#clip_1)"><clipPath id="clip_1"><rect width="2268" height="22"></rect></clipPath><g><g><line x1="0" y1="0" x2="0" y2="5" style="visibility: inherit;" fill="rgb(0, 0, 0)" stroke="rgb(204, 204, 204)" stroke-width="1px"></line><line x1="283.62078125" y1="0" x2="283.62078125" y2="5" style="visibility: inherit;" fill="rgb(0, 0, 0)" stroke="rgb(204, 204, 204)" stroke-width="1px"></line><line x1="567.2415625" y1="0" x2="567.2415625" y2="5" style="visibility: inherit;" fill="rgb(0, 0, 0)" stroke="rgb(204, 204, 204)" stroke-width="1px"></line><line x1="850.86234375" y1="0" x2="850.86234375" y2="5" style="visibility: inherit;" fill="rgb(0, 0, 0)" stroke="rgb(204, 204, 204)" stroke-width="1px"></line><line x1="1134.483125" y1="0" x2="1134.483125" y2="5" style="visibility: inherit;" fill="rgb(0, 0, 0)" stroke="rgb(204, 204, 204)" stroke-width="1px"></line><line x1="1418.10390625" y1="0" x2="1418.10390625" y2="5" style="visibility: inherit;" fill="rgb(0, 0, 0)" stroke="rgb(204, 204, 204)" stroke-width="1px"></line><line x1="1701.7246875" y1="0" x2="1701.7246875" y2="5" style="visibility: inherit;" fill="rgb(0, 0, 0)" stroke="rgb(204, 204, 204)" stroke-width="1px"></line><line x1="1985.34546875" y1="0" x2="1985.34546875" y2="5" style="visibility: inherit;" fill="rgb(0, 0, 0)" stroke="rgb(204, 204, 204)" stroke-width="1px"></line><line x1="2268.96625" y1="0" x2="2268.96625" y2="5" style="visibility: inherit;" fill="rgb(0, 0, 0)" stroke="rgb(204, 204, 204)" stroke-width="1px"></line></g><g transform="translate(0, 8)"><text x="0" y="0" dx="0em" dy="0.95em" style="text-anchor: middle; visibility: hidden; font-family: &quot;Helvetica Neue&quot;, sans-serif; font-size: 12px; font-weight: 200;" fill="rgb(50, 49, 63)" stroke="none" stroke-width="1px">-5k</text><text x="283.62078125" y="0" dx="0em" dy="0.95em" style="text-anchor: middle; visibility: inherit; font-family: &quot;Helvetica Neue&quot;, sans-serif; font-size: 12px; font-weight: 200;" fill="rgb(50, 49, 63)" stroke="none" stroke-width="1px">0</text><text x="567.2415625" y="0" dx="0em" dy="0.95em" style="text-anchor: middle; visibility: inherit; font-family: &quot;Helvetica Neue&quot;, sans-serif; font-size: 12px; font-weight: 200;" fill="rgb(50, 49, 63)" stroke="none" stroke-width="1px">5k</text><text x="850.86234375" y="0" dx="0em" dy="0.95em" style="text-anchor: middle; visibility: inherit; font-family: &quot;Helvetica Neue&quot;, sans-serif; font-size: 12px; font-weight: 200;" fill="rgb(50, 49, 63)" stroke="none" stroke-width="1px">10k</text><text x="1134.483125" y="0" dx="0em" dy="0.95em" style="text-anchor: middle; visibility: inherit; font-family: &quot;Helvetica Neue&quot;, sans-serif; font-size: 12px; font-weight: 200;" fill="rgb(50, 49, 63)" stroke="none" stroke-width="1px">15k</text><text x="1418.10390625" y="0" dx="0em" dy="0.95em" style="text-anchor: middle; visibility: inherit; font-family: &quot;Helvetica Neue&quot;, sans-serif; font-size: 12px; font-weight: 200;" fill="rgb(50, 49, 63)" stroke="none" stroke-width="1px">20k</text><text x="1701.7246875" y="0" dx="0em" dy="0.95em" style="text-anchor: middle; visibility: inherit; font-family: &quot;Helvetica Neue&quot;, sans-serif; font-size: 12px; font-weight: 200;" fill="rgb(50, 49, 63)" stroke="none" stroke-width="1px">25k</text><text x="1985.34546875" y="0" dx="0em" dy="0.95em" style="text-anchor: middle; visibility: inherit; font-family: &quot;Helvetica Neue&quot;, sans-serif; font-size: 12px; font-weight: 200;" fill="rgb(50, 49, 63)" stroke="none" stroke-width="1px">30k</text><text x="2268.96625" y="0" dx="0em" dy="0.95em" style="text-anchor: middle; visibility: hidden; font-family: &quot;Helvetica Neue&quot;, sans-serif; font-size: 12px; font-weight: 200;" fill="rgb(50, 49, 63)" stroke="none" stroke-width="1px">35k</text></g><line x1="0" y1="0" x2="2268.96625" y2="0" fill="rgb(0, 0, 0)" stroke="rgb(204, 204, 204)" stroke-width="1px"></line></g></g></g></g></svg>