<svg viewBox="0 0 2313.92041015625 400" xmlns="http://www.w3.org/2000/svg"><g><g><g><g><g><line x1="48.875" y1="377" x2="43.875" y2="377" style="visibility: inherit;" fill="rgb(0, 0, 0)" stroke="rgb(204, 204, 204)" stroke-width="1px"></line><line x1="48.875" y1="345.5833333333333" x2="43.875" y2="345.5833333333333" style="visibility: inherit;" fill="rgb(0, 0, 0)" stroke="rgb(204, 204, 204)" stroke-width="1px"></line><line x1="48.875" y1="314.1666666666667" x2="43.875" y2="314.1666666666667" style="visibility: inherit;" fill="rgb(0, 0, 0)" stroke="rgb(204, 204, 204)" stroke-width="1px"></line><line x1="48.875" y1="282.75" x2="43.875" y2="282.75" style="visibility: inherit;" fill="rgb(0, 0, 0)" stroke="rgb(204, 204, 204)" stroke-width="1px"></line><line x1="48.875" y1="251.33333333333334" x2="43.875" y2="251.33333333333334" style="visibility: inherit;" fill="rgb(0, 0, 0)" stroke="rgb(204, 204, 204)" stroke-width="1px"></line><line x1="48.875" y1="219.91666666666669" x2="43.875" y2="219.91666666666669" style="visibility: inherit;" fill="rgb(0, 0, 0)" stroke="rgb(204, 204, 204)" stroke-width="1px"></line><line x1="48.875" y1="188.50000000000003" x2="43.875" y2="188.50000000000003" style="visibility: inherit;" fill="rgb(0, 0, 0)" stroke="rgb(204, 204, 204)" stroke-width="1px"></line><line x1="48.875" y1="157.08333333333337" x2="43.875" y2="157.08333333333337" style="visibility: inherit;" fill="rgb(0, 0, 0)" stroke="rgb(204, 204, 204)" stroke-width="1px"></line><line x1="48.875" y1="125.66666666666671" x2="43.875" y2="125.66666666666671" style="visibility: inherit;" fill="rgb(0, 0, 0)" stroke="rgb(204, 204, 204)" stroke-width="1px"></line><line x1="48.875" y1="94.25000000000006" x2="43.875" y2="94.25000000000006" style="visibility: inherit;" fill="rgb(0, 0, 0)" stroke="rgb(204, 204, 204)" stroke-width="1px"></line><line x1="48.875" y1="62.83333333333337" x2="43.875" y2="62.83333333333337" style="visibility: inherit;" fill="rgb(0, 0, 0)" stroke="rgb(204, 204, 204)" stroke-width="1px"></line><line x1="48.875" y1="31.416666666666686" x2="43.875" y2="31.416666666666686" style="visibility: inherit;" fill="rgb(0, 0, 0)" stroke="rgb(204, 204, 204)" stroke-width="1px"></line><line x1="48.875" y1="0" x2="43.875" y2="0" style="visibility: inherit;" fill="rgb(0, 0, 0)" stroke="rgb(204, 204, 204)" stroke-width="1px"></line></g><g transform="translate(38.875, 0)"><text x="0" y="377" dx="0em" dy="0.3em" style="text-anchor: end; visibility: hidden; font-family: &quot;Helvetica Neue&quot;, sans-serif; font-size: 12px; font-weight: 200;" fill="rgb(50, 49, 63)" stroke="none" stroke-width="1px">-0.1</text><text x="0" y="345.5833333333333" dx="0em" dy="0.3em" style="text-anchor: end; visibility: inherit; font-family: &quot;Helvetica Neue&quot;, sans-serif; font-size: 12px; font-weight: 200;" fill="rgb(50, 49, 63)" stroke="none" stroke-width="1px">0</text><text x="0" y="314.1666666666667" dx="0em" dy="0.3em" style="text-anchor: end; visibility: inherit; font-family: &quot;Helvetica Neue&quot;, sans-serif; font-size: 12px; font-weight: 200;" fill="rgb(50, 49, 63)" stroke="none" stroke-width="1px">0.1</text><text x="0" y="282.75" dx="0em" dy="0.3em" style="text-anchor: end; visibility: inherit; font-family: &quot;Helvetica Neue&quot;, sans-serif; font-size: 12px; font-weight: 200;" fill="rgb(50, 49, 63)" stroke="none" stroke-width="1px">0.2</text><text x="0" y="251.33333333333334" dx="0em" dy="0.3em" style="text-anchor: end; visibility: inherit; font-family: &quot;Helvetica Neue&quot;, sans-serif; font-size: 12px; font-weight: 200;" fill="rgb(50, 49, 63)" stroke="none" stroke-width="1px">0.3</text><text x="0" y="219.91666666666669" dx="0em" dy="0.3em" style="text-anchor: end; visibility: inherit; font-family: &quot;Helvetica Neue&quot;, sans-serif; font-size: 12px; font-weight: 200;" fill="rgb(50, 49, 63)" stroke="none" stroke-width="1px">0.4</text><text x="0" y="188.50000000000003" dx="0em" dy="0.3em" style="text-anchor: end; visibility: inherit; font-family: &quot;Helvetica Neue&quot;, sans-serif; font-size: 12px; font-weight: 200;" fill="rgb(50, 49, 63)" stroke="none" stroke-width="1px">0.5</text><text x="0" y="157.08333333333337" dx="0em" dy="0.3em" style="text-anchor: end; visibility: inherit; font-family: &quot;Helvetica Neue&quot;, sans-serif; font-size: 12px; font-weight: 200;" fill="rgb(50, 49, 63)" stroke="none" stroke-width="1px">0.6</text><text x="0" y="125.66666666666671" dx="0em" dy="0.3em" style="text-anchor: end; visibility: inherit; font-family: &quot;Helvetica Neue&quot;, sans-serif; font-size: 12px; font-weight: 200;" fill="rgb(50, 49, 63)" stroke="none" stroke-width="1px">0.7</text><text x="0" y="94.25000000000006" dx="0em" dy="0.3em" style="text-anchor: end; visibility: inherit; font-family: &quot;Helvetica Neue&quot;, sans-serif; font-size: 12px; font-weight: 200;" fill="rgb(50, 49, 63)" stroke="none" stroke-width="1px">0.8</text><text x="0" y="62.83333333333337" dx="0em" dy="0.3em" style="text-anchor: end; visibility: inherit; font-family: &quot;Helvetica Neue&quot;, sans-serif; font-size: 12px; font-weight: 200;" fill="rgb(50, 49, 63)" stroke="none" stroke-width="1px">0.9</text><text x="0" y="31.416666666666686" dx="0em" dy="0.3em" style="text-anchor: end; visibility: inherit; font-family: &quot;Helvetica Neue&quot;, sans-serif; font-size: 12px; font-weight: 200;" fill="rgb(50, 49, 63)" stroke="none" stroke-width="1px">1</text><text x="0" y="0" dx="0em" dy="0.3em" style="text-anchor: end; visibility: hidden; font-family: &quot;Helvetica Neue&quot;, sans-serif; font-size: 12px; font-weight: 200;" fill="rgb(50, 49, 63)" stroke="none" stroke-width="1px">1.1</text></g><line x1="48.875" y1="0" x2="48.875" y2="377" fill="rgb(0, 0, 0)" stroke="rgb(204, 204, 204)" stroke-width="1px"></line></g></g><g transform="translate(48, 0)" clip-path="url(#clip_0)"><clipPath id="clip_0"><rect width="2265" height="376"></rect></clipPath><g><g><g><line x1="0" y1="0" x2="0" y2="377" fill="rgb(0, 0, 0)" stroke="rgb(60, 60, 60)" stroke-width="1px" opacity="0.25"></line><line x1="283.130625" y1="0" x2="283.130625" y2="377" fill="rgb(0, 0, 0)" stroke="rgb(60, 60, 60)" stroke-width="1px" opacity="0.25"></line><line x1="566.26125" y1="0" x2="566.26125" y2="377" fill="rgb(0, 0, 0)" stroke="rgb(60, 60, 60)" stroke-width="1px" opacity="0.25"></line><line x1="849.391875" y1="0" x2="849.391875" y2="377" fill="rgb(0, 0, 0)" stroke="rgb(60, 60, 60)" stroke-width="1px" opacity="0.25"></line><line x1="1132.5225" y1="0" x2="1132.5225" y2="377" fill="rgb(0, 0, 0)" stroke="rgb(60, 60, 60)" stroke-width="1px" opacity="0.25"></line><line x1="1415.653125" y1="0" x2="1415.653125" y2="377" fill="rgb(0, 0, 0)" stroke="rgb(60, 60, 60)" stroke-width="1px" opacity="0.25"></line><line x1="1698.78375" y1="0" x2="1698.78375" y2="377" fill="rgb(0, 0, 0)" stroke="rgb(60, 60, 60)" stroke-width="1px" opacity="0.25"></line><line x1="1981.914375" y1="0" x2="1981.914375" y2="377" fill="rgb(0, 0, 0)" stroke="rgb(60, 60, 60)" stroke-width="1px" opacity="0.25"></line><line x1="2265.045" y1="0" x2="2265.045" y2="377" fill="rgb(0, 0, 0)" stroke="rgb(60, 60, 60)" stroke-width="1px" opacity="0.25"></line></g><g><line x1="0" y1="377" x2="2265.045" y2="377" fill="rgb(0, 0, 0)" stroke="rgb(60, 60, 60)" stroke-width="1px" opacity="0.25"></line><line x1="0" y1="345.5833333333333" x2="2265.045" y2="345.5833333333333" fill="rgb(0, 0, 0)" stroke="rgb(60, 60, 60)" stroke-width="1px" opacity="0.25"></line><line x1="0" y1="314.1666666666667" x2="2265.045" y2="314.1666666666667" fill="rgb(0, 0, 0)" stroke="rgb(60, 60, 60)" stroke-width="1px" opacity="0.25"></line><line x1="0" y1="282.75" x2="2265.045" y2="282.75" fill="rgb(0, 0, 0)" stroke="rgb(60, 60, 60)" stroke-width="1px" opacity="0.25"></line><line x1="0" y1="251.33333333333334" x2="2265.045" y2="251.33333333333334" fill="rgb(0, 0, 0)" stroke="rgb(60, 60, 60)" stroke-width="1px" opacity="0.25"></line><line x1="0" y1="219.91666666666669" x2="2265.045" y2="219.91666666666669" fill="rgb(0, 0, 0)" stroke="rgb(60, 60, 60)" stroke-width="1px" opacity="0.25"></line><line x1="0" y1="188.50000000000003" x2="2265.045" y2="188.50000000000003" fill="rgb(0, 0, 0)" stroke="rgb(60, 60, 60)" stroke-width="1px" opacity="0.25"></line><line x1="0" y1="157.08333333333337" x2="2265.045" y2="157.08333333333337" fill="rgb(0, 0, 0)" stroke="rgb(60, 60, 60)" stroke-width="1px" opacity="0.25"></line><line x1="0" y1="125.66666666666671" x2="2265.045" y2="125.66666666666671" fill="rgb(0, 0, 0)" stroke="rgb(60, 60, 60)" stroke-width="1px" opacity="0.25"></line><line x1="0" y1="94.25000000000006" x2="2265.045" y2="94.25000000000006" fill="rgb(0, 0, 0)" stroke="rgb(60, 60, 60)" stroke-width="1px" opacity="0.25"></line><line x1="0" y1="62.83333333333337" x2="2265.045" y2="62.83333333333337" fill="rgb(0, 0, 0)" stroke="rgb(60, 60, 60)" stroke-width="1px" opacity="0.25"></line><line x1="0" y1="31.416666666666686" x2="2265.045" y2="31.416666666666686" fill="rgb(0, 0, 0)" stroke="rgb(60, 60, 60)" stroke-width="1px" opacity="0.25"></line><line x1="0" y1="0" x2="2265.045" y2="0" fill="rgb(0, 0, 0)" stroke="rgb(60, 60, 60)" stroke-width="1px" opacity="0.25"></line></g></g></g><g><g><line x1="0" y1="345.5833333333333" x2="2265.045" y2="345.5833333333333" fill="rgb(0, 0, 0)" stroke="rgb(153, 153, 153)" stroke-width="1.5px"></line></g></g><g><g><line x1="283.130625" y1="0" x2="283.130625" y2="377" fill="rgb(0, 0, 0)" stroke="rgb(153, 153, 153)" stroke-width="1.5px"></line></g></g><g><g><g><g><g><path stroke="rgb(238, 51, 119)" stroke-width="2px" d="M283.130625,298.2231448690097L287.66071500000004,208.31575992004375L292.190805,159.5169531833005L296.72089500000004,149.83393320052008L301.250985,141.91326203812156L305.78107500000004,166.17884553053113L310.311165,168.00156246295302L314.84125500000005,171.79568627435168L319.37134499999996,171.26356565346225L323.901435,172.68335661504912L328.43152499999997,164.56139975193415L332.961615,159.39587167740694L337.491705,171.35676044228802L342.021795,172.13185354271738L346.551885,175.93798633037386L351.081975,170.3246374091133L355.61206500000003,180.6283787682975L360.142155,170.4700699253191L364.67224500000003,150.83233289914304L367.843308,153.55603761802703L372.373398,155.2546761717027L376.903488,156.308062893694L381.433578,156.26268579193967L385.963668,167.5378182030111L390.493758,165.15232034087543L395.023848,168.43130533262303L399.553938,173.31854652613941L404.08402800000005,176.52734393901648L408.614118,176.1537771921914L413.14420800000005,171.19810072250914L417.674298,173.19405740864178L422.20438800000005,165.24754101553387L426.734478,164.75671814744635L431.26456800000005,168.03733431010187L435.79465799999997,158.51166920974967L440.324748,155.72127179285582L444.854838,154.21248511249757L449.384928,159.65124648213114L452.555991,167.13555481015376L457.08608100000004,168.7632898279786L461.616171,158.09210716373963L466.14626100000004,163.98762673078556L470.67635100000007,174.29228367124136L475.206441,160.54908342912006L479.736531,150.88221819607145L484.266621,153.7718532848155L488.796711,153.2600205929901L493.326801,151.88250241830187L497.856891,169.49869849750448L502.386981,177.84814859208933L506.917071,168.90965138241646L511.447161,168.926903413637L515.977251,164.65896672903892L520.507341,158.7378352304841L525.0374310000001,166.43590802193341L529.567521,166.20453891111737L534.097611,161.20924282486612L537.268674,153.1714895157705L541.798764,163.49475170337328L546.328854,165.70979501373358L550.8589440000001,169.76059555852933L555.389034,174.6123012784902L559.919124,170.60932552727564L564.449214,164.33459001639733L568.979304,155.66137873894507L573.5093939999999,157.59486995783575L578.039484,156.52770039374326L582.569574,166.25829142336383L587.099664,171.52830505322453L591.6297539999999,169.045334668107L596.159844,169.3269619850887L600.689934,168.2476344340369L605.220024,168.59798408278624L609.750114,177.95475619439782L614.280204,161.24537308717805L618.810294,173.5911535781828L621.981357,174.77558747897774L626.5114470000001,179.2352867840434L631.0415370000001,176.2128718130482L635.571627,176.2761890692232L640.101717,172.9722085309123L644.6318070000001,165.36312579468498L649.1618970000001,161.62215049134917L653.691987,159.3302420797557L658.2220770000001,165.77999902360185L662.7521670000001,162.506563725634L667.282257,172.63231102727107L671.8123469999999,172.31037206202427L676.342437,168.83703074192528L680.872527,169.49741948584915L685.402617,164.24787604010186L689.9327069999999,161.83136313735892L694.462797,144.51645771994373L698.992887,143.42395833654467L703.522977,153.87928653932423L706.69404,145.36441551056447L711.2241300000001,149.64978460858535L715.75422,150.53540297152185L720.28431,157.08240048833596L724.8144000000001,161.78514735399966L729.3444900000001,171.40169686953232L733.87458,172.39007004536074L738.40467,171.35174433125312L742.9347600000001,172.37027143058194L747.4648500000001,158.38390740593795L751.99494,155.71518302952458L756.52503,143.8248017385269L761.0551200000001,146.8611985867838L765.5852100000001,137.7640632972876L770.1153,144.7843153142053L774.6453900000001,138.34293866003017L779.17548,133.00030200182366L783.70557,141.15183276511013L788.2356599999999,148.51639820461793L791.4067229999999,151.67380121524187L795.936813,148.41883768279067L800.466903,152.68084711403387L804.996993,162.1859280385086L809.5270830000001,154.38684261086325L814.057173,164.2690503197428L818.587263,169.25418626767987L823.117353,168.13696118352132L827.6474430000001,165.85964526123087L832.177533,161.98648696521698L836.707623,174.85882278561817L841.2377130000001,163.47056093247173L845.7678030000001,163.6527084908231L850.297893,168.3638291191997L854.827983,166.66872497473074L859.3580730000001,158.17848870194766L863.8881630000001,153.5009106462579L868.418253,143.73491315207204L872.948343,146.6879701369016L876.119406,156.08329524554406L880.649496,167.44323374144014L885.179586,173.47234674387727L889.709676,171.63699583915457L894.239766,161.2923500747583L898.769856,160.31347768564842L903.299946,156.6211170210236L907.830036,159.60172307732796L912.360126,157.68932929507304L916.890216,175.0718569030599L921.420306,170.71315174682294L925.9503960000001,164.88475515636537L930.480486,167.66327545953897L935.010576,159.09113536972893L939.540666,159.33865310598475L944.0707560000001,149.73832056770914L948.600846,161.4428060699253L953.130936,160.58489085525008L957.6610260000001,172.31975618673468L960.8320890000001,156.55191885072836L965.3621790000001,161.55764465086494L969.892269,161.565198717371L974.4223590000001,155.6258663291302L978.952449,147.97040253483763L983.482539,151.34047513043942L988.012629,151.64303071145295L992.542719,149.66580770832005L997.072809,146.03196703957138L1001.602899,149.4817576579173L1006.132989,148.33634574781019L1010.663079,160.52900994725707L1015.193169,163.85775479395474L1019.723259,161.43182079012414L1024.253349,157.96452881405426L1028.783439,158.3157198586293L1033.313529,161.4289964432138L1037.843619,172.66604431336896L1042.373709,167.46035911975213L1045.544772,172.4512387410191L1050.0748620000002,163.05968800065585L1054.6049520000001,160.73989774562168L1059.135042,163.39847507386258L1063.665132,159.18610118098562L1068.195222,158.33446908909602L1072.725312,145.18337593571232L1077.255402,139.3334075381082L1081.7854920000002,141.25461382083844L1086.3155820000002,145.65057335292636L1090.845672,150.1229411591464L1095.375762,155.28591555031053L1099.9058519999999,155.7011483904323L1104.435942,160.71264162935987L1108.966032,167.18169116436442L1113.496122,155.57550638729094L1118.026212,157.1481736423914L1122.556302,147.8496031891767L1127.086392,155.84754451189005L1130.257455,155.45189335107375L1134.7875450000001,152.7645927559322L1139.317635,152.98513329937867L1143.847725,152.25137618294644L1148.377815,144.3021236324709L1152.907905,154.14037336940024L1157.437995,173.24604357933651L1161.968085,163.818371430423L1166.4981750000002,156.75643401667048L1171.0282650000001,166.62178264430187L1175.5583550000001,164.614512596777L1180.088445,166.8615498714545L1184.618535,162.1373194171987L1189.148625,170.8899285584356L1193.678715,175.64320389289216L1198.208805,177.26843029408505L1202.7388950000002,168.5724839626088L1207.2689850000002,178.3684076612485L1211.7990750000001,167.60208500557647L1214.970138,155.54456953238036L1219.500228,144.16741691280845L1224.030318,150.92658321292063L1228.560408,147.13902567188774L1233.090498,146.0171476814741L1237.620588,153.0878383123109L1242.150678,153.35911122668423L1246.680768,150.43387129513184L1251.2108580000001,150.69023340919654L1255.7409480000001,150.66602163592285L1260.271038,148.08349231056965L1264.801128,136.30238512986892L1269.331218,138.86344372672468L1273.861308,155.7262245397596L1278.391398,153.4346402151943L1282.9214880000002,148.62291162777504L1287.4515780000002,153.57546392622157L1291.9816680000001,171.11464509427387L1296.511758,170.02827761297374L1299.6828209999999,167.61164367198137L1304.212911,166.43198690576784L1308.743001,161.51148107861647L1313.273091,160.23703071620895L1317.803181,152.87561758364174L1322.333271,149.22188831370528L1326.863361,151.4518946100575L1331.393451,148.59820285102737L1335.9235410000001,149.32563715746372L1340.453631,153.5668509703063L1344.983721,152.4557537641356L1349.513811,155.8001494141983L1354.043901,155.19263167504766L1358.573991,166.08675737135442L1363.104081,157.97263134832122L1367.6341710000002,151.2476695918915L1372.1642610000001,150.558304363634L1376.694351,157.60238783823073L1381.224441,158.70297390106222L1384.395504,159.39053874452824L1388.925594,149.26738272208152L1393.455684,143.43247975382033L1397.985774,138.83445517386448L1402.515864,137.0086357536513L1407.045954,144.74616349133464L1411.576044,148.35399092524472L1416.1061339999999,159.2034169184441L1420.636224,154.3989344421168L1425.166314,161.00652790606824L1429.696404,157.9035614516746L1434.226494,152.27898746013386L1438.756584,152.38954341713688L1443.286674,135.98163701909957L1447.816764,142.7236720339412L1452.3468540000001,153.09156541923522L1456.876944,154.0986994791904L1461.407034,153.65346520647452L1465.937124,149.80032804426588L1469.108187,148.4840713279321L1473.638277,152.33856996824832L1478.168367,143.44014856925878L1482.698457,136.48781485900884L1487.228547,147.77287111400037L1491.758637,144.63994117073864L1496.2887269999999,154.7418191187615L1500.818817,141.7963983705319L1505.348907,138.68435422653607L1509.878997,149.05067863823305L1514.409087,165.19551459841125L1518.939177,170.84536914559632L1523.469267,169.29888017541404L1527.999357,162.25497909797164L1532.529447,156.6159841826207L1537.059537,161.60209532953934L1541.589627,162.38328857853733L1546.119717,166.49354516935293L1550.649807,155.62491020241214L1553.8208700000002,167.92683098611596L1558.35096,153.20838968715123L1562.88105,143.8560599965602L1567.41114,150.52641571449314L1571.94123,157.20793475718145L1576.4713199999999,154.11661722254354L1581.0014099999999,155.4061424770565L1585.5315,157.0392814063496L1590.06159,152.5701504562905L1594.59168,160.71164494561572L1599.12177,143.52385111625L1603.65186,150.2661301257658L1608.18195,154.04246095316373L1612.71204,160.80325736403694L1617.24213,171.0394532485849L1621.77222,164.42685767523807L1626.30231,162.59502704483435L1630.8324,161.24632916976077L1635.36249,165.60377779236902L1638.5335530000002,160.26604061483008L1643.0636430000002,163.20404251883647L1647.5937330000002,164.72561198570952L1652.1238230000001,165.18836754218876L1656.653913,159.32740747745788L1661.184003,167.94304351786758L1665.7140930000003,155.9688919489162L1670.2441830000002,164.1775155594755L1674.774273,162.21991677115332L1679.304363,168.54286049330247L1683.834453,168.02105907644167L1688.364543,159.27343777363285L1692.8946329999999,156.53274958229952L1697.4247229999999,156.6520926743917L1701.954813,148.48208065553615L1706.484903,144.9085509894451L1711.014993,140.5820865080983L1715.545083,144.38327134717582L1720.075173,140.101958026473L1723.2462360000002,151.8643609482437L1727.7763260000002,146.27314066574684L1732.3064160000001,152.28025077079425L1736.836506,147.176164326455L1741.366596,146.1302521135881L1745.896686,143.01047759892927L1750.4267760000002,153.1640292112163L1754.9568660000002,133.85797731436253L1759.4869560000002,139.974206662836L1764.0170460000002,134.44323363630005L1768.5471360000001,134.2364146534736L1773.077226,147.2212632080931L1777.607316,142.59011111484907L1782.1374060000003,152.34045843645617L1786.667496,149.63936588212496L1791.197586,159.52171399758555L1795.727676,155.2643905466793L1800.257766,150.16214693302754L1804.787856,142.90959401934452L1807.9589190000002,147.17969496040928L1812.4890090000001,147.40008584514817L1817.019099,154.6113393933053L1821.549189,157.3696798233155L1826.079279,146.85125859415754L1830.609369,148.9232329442719L1835.1394590000002,154.2012342933862L1839.6695490000002,166.75246529659708L1844.1996390000002,163.30969395477211L1848.7297290000001,170.17396367508456L1853.259819,166.28422426441034L1857.789909,148.60940353723723L1862.319999,157.27484747680333L1866.8500890000003,156.31040819165636L1871.3801790000002,165.73301660205868L1875.9102690000002,160.24512149886635L1880.4403590000002,148.06285230159202L1884.9704490000001,153.64959037800082L1889.5005390000001,155.38824764510107L1892.6716020000001,155.2124836790631L1897.201692,159.5114455858665L1901.731782,166.86331153109649L1906.261872,175.19164854303682L1910.791962,169.39861007371542L1915.3220520000002,167.41796941289442L1919.8521420000002,164.78695718050133L1924.3822320000002,182.89001041443834L1928.9123220000001,159.05613751234588L1933.442412,161.64339257578462L1937.972502,152.98069667302158L1942.502592,157.33920134249618L1947.032682,159.8671421776359L1951.5627720000002,154.68872721442298L1956.0928620000002,154.5811087405041L1960.6229520000002,161.9332726875607L1965.1530420000001,163.17660488195665L1969.6831320000001,151.37288547999384L1974.213222,146.36051294842517" style="fill: none;" fill="none"></path></g><g><path stroke="rgb(51, 187, 238)" stroke-width="2px" d="M283.130625,210.80236276984218L287.66071500000004,157.91800541280767L292.190805,118.39089558638761L296.72089500000004,115.94074227625163L301.250985,100.73693769992997L305.78107500000004,99.6916055231394L310.311165,92.26994258164672L314.84125500000005,92.56240227138449L319.37134499999996,90.18814209239122L323.901435,74.68017364832309L328.43152499999997,77.96915197541011L332.961615,69.87453597687869L337.491705,74.06946292553192L342.021795,66.97905497163924L346.551885,68.50861234089149L351.081975,76.00725270331583L355.61206500000003,96.34701051090798L360.142155,105.42494956948286L364.67224500000003,104.90219598232676L367.843308,105.50429440658769L372.373398,88.42135505687486L376.903488,93.21870841432542L381.433578,88.50550516495093L385.963668,82.53182628973383L390.493758,72.54787618771138L395.023848,72.13883787221516L399.553938,81.5289452656674L404.08402800000005,85.733534878559L408.614118,81.2950180352509L413.14420800000005,74.63437390073L417.674298,82.62201097959235L422.20438800000005,79.34249129691028L426.734478,76.24164229275408L431.26456800000005,81.46293619356464L435.79465799999997,75.31144604472001L440.324748,79.15271348640721L444.854838,81.29963255555481L449.384928,87.93893291080843L452.555991,82.74662349945424L457.08608100000004,85.96406051010717L461.616171,84.5746866031696L466.14626100000004,78.4587918913059L470.67635100000007,75.26641537904726L475.206441,78.6696940838408L479.736531,79.80091100139543L484.266621,81.33669257737591L488.796711,88.74131268554345L493.326801,79.77203812446908L497.856891,86.26700395408079L502.386981,91.36650007831236L506.917071,93.18872244453974L511.447161,89.64208112929515L515.977251,85.06530408230776L520.507341,79.90435594665212L525.0374310000001,84.47663728600986L529.567521,71.76791948453047L534.097611,73.059707501214L537.268674,81.98637307182571L541.798764,78.01151927918716L546.328854,87.39410659895054L550.8589440000001,78.53104494638325L555.389034,75.6300334836659L559.919124,79.70267331847083L564.449214,77.03683365542054L568.979304,73.41615480288726L573.5093939999999,69.84618901497038L578.039484,77.55636402347841L582.569574,72.02080008700301L587.099664,83.82694805600812L591.6297539999999,79.0530262390605L596.159844,72.45642056773545L600.689934,64.96813739529398L605.220024,65.96093738966721L609.750114,58.32973722608318L614.280204,63.046908714207746L618.810294,68.68009699316957L621.981357,68.58192333220859L626.5114470000001,72.92507464305203L631.0415370000001,76.42572482665179L635.571627,74.7990198939246L640.101717,71.15615414458904L644.6318070000001,78.76157094777551L649.1618970000001,85.73502396352592L653.691987,90.09774009003354L658.2220770000001,81.22669318530382L662.7521670000001,77.05179586502499L667.282257,75.87892657313051L671.8123469999999,72.07885468915197L676.342437,69.1376404431411L680.872527,69.31735211275327L685.402617,70.14798244755741L689.9327069999999,67.71079113796168L694.462797,79.35637232417957L698.992887,76.30151477808084L703.522977,79.56649919782461L706.69404,81.9235332271308L711.2241300000001,82.74004396477903L715.75422,82.64892947352308L720.28431,79.23734736466548L724.8144000000001,80.3672764985057L729.3444900000001,83.9695849180215L733.87458,76.68836879998997L738.40467,82.38409211850825L742.9347600000001,77.0256826967128L747.4648500000001,83.56187744981844L751.99494,76.42763824041492L756.52503,75.9062948398078L761.0551200000001,85.12116813441827L765.5852100000001,89.60146519372148L770.1153,83.44232331491838L774.6453900000001,95.43101379651733L779.17548,86.08747763309492L783.70557,85.57685948270961L788.2356599999999,73.08388635180143L791.4067229999999,68.48736911144738L795.936813,67.81661869498043L800.466903,95.6063885942973L804.996993,109.03822548602722L809.5270830000001,93.01173037466117L814.057173,79.61653217354291L818.587263,85.85719278404008L823.117353,80.16113779544008L827.6474430000001,75.09128928467652L832.177533,75.57424110947846L836.707623,81.59911330895562L841.2377130000001,73.74686284125067L845.7678030000001,84.26035748123542L850.297893,78.83011919443595L854.827983,70.85826597199377L859.3580730000001,72.15235837594133L863.8881630000001,83.39293047854426L868.418253,80.19761385070734L872.948343,75.93960021544262L876.119406,69.00863859956212L880.649496,85.10756186357366L885.179586,90.16152588435585L889.709676,82.37677516974918L894.239766,83.22339653887332L898.769856,92.43395911645399L903.299946,87.90567151824678L907.830036,81.52449100474666L912.360126,74.22825602670878L916.890216,72.3276353456402L921.420306,71.88603586568979L925.9503960000001,76.92849739239415L930.480486,72.44962103967777L935.010576,79.3249430297339L939.540666,77.85819145787809L944.0707560000001,75.12753502906452L948.600846,78.91262395647311L953.130936,86.0940434541252L957.6610260000001,80.07233108501327L960.8320890000001,77.54012546443852L965.3621790000001,76.61235900499668L969.892269,83.00664359197566L974.4223590000001,72.26606259016944L978.952449,72.36161622480944L983.482539,67.22335465953307L988.012629,85.89634098918333L992.542719,87.21125903929351L997.072809,82.71022231887537L1001.602899,75.54568307606422L1006.132989,85.65193861823917L1010.663079,93.15566097314411L1015.193169,94.08394355420563L1019.723259,82.05259956880263L1024.253349,69.90538508759602L1028.783439,79.80345686228804L1033.313529,88.89158345376615L1037.843619,94.6221243727876L1042.373709,82.65902628385624L1045.544772,83.39694365985599L1050.0748620000002,89.01154744772424L1054.6049520000001,75.00775279721586L1059.135042,72.33302445536651L1063.665132,75.67188463328665L1068.195222,75.46922000153455L1072.725312,74.60312145981607L1077.255402,73.33977657929489L1081.7854920000002,71.49474192261869L1086.3155820000002,87.87672556974218L1090.845672,94.74364041390959L1095.375762,95.11296399216019L1099.9058519999999,79.9591516043534L1104.435942,72.75085857992758L1108.966032,85.1451447544024L1113.496122,83.47673336323157L1118.026212,82.89862300925353L1122.556302,78.59808462725084L1127.086392,89.93599850980507L1130.257455,74.26630298631085L1134.7875450000001,93.09968145822512L1139.317635,81.0233485107189L1143.847725,89.76060745000842L1148.377815,85.04108040001876L1152.907905,85.28890439549377L1157.437995,70.51343500671965L1161.968085,67.02644575093967L1166.4981750000002,75.84288875600504L1171.0282650000001,78.70767077587948L1175.5583550000001,75.82534197487252L1180.088445,89.5731813433269L1184.618535,93.56205507152993L1189.148625,105.015901394602L1193.678715,109.68066855793137L1198.208805,97.66402387793846L1202.7388950000002,86.36324766249822L1207.2689850000002,74.80737041048138L1211.7990750000001,91.61128490118148L1214.970138,78.62389622426554L1219.500228,97.51993654231092L1224.030318,95.92038132909897L1228.560408,94.03454244009595L1233.090498,86.86843265701566L1237.620588,75.59257302378688L1242.150678,81.29966229080406L1246.680768,80.81935859619927L1251.2108580000001,92.68273923591221L1255.7409480000001,101.1176065291425L1260.271038,88.57695607363263L1264.801128,88.24217588901894L1269.331218,81.57074763199154L1273.861308,77.29521203793234L1278.391398,73.70892234819894L1282.9214880000002,69.95350354300552L1287.4515780000002,82.12983213099858L1291.9816680000001,69.84496372962343L1296.511758,72.88298962756068L1299.6828209999999,75.14509041034273L1304.212911,81.47416043211115L1308.743001,85.21194184727761L1313.273091,82.60616561183349L1317.803181,74.53919926038105L1322.333271,82.68205783653514L1326.863361,85.08569282435047L1331.393451,80.96592127324152L1335.9235410000001,78.1102285219406L1340.453631,71.4253182951665L1344.983721,74.92234259774125L1349.513811,72.93103021388077L1354.043901,79.78239208851636L1358.573991,70.03190329095185L1363.104081,78.05758505631235L1367.6341710000002,101.55057829823784L1372.1642610000001,94.52806388821097L1376.694351,87.56272252430136L1381.224441,87.3418619819061L1384.395504,96.83205914549933L1388.925594,95.15033406817003L1393.455684,91.50171500666903L1397.985774,93.6063079221845L1402.515864,79.82417434292478L1407.045954,79.37040671274116L1411.576044,66.91839440086585L1416.1061339999999,61.8210193447847L1420.636224,69.24650335119543L1425.166314,71.7255583167302L1429.696404,72.00747596108113L1434.226494,76.48232545469324L1438.756584,81.1450376938273L1443.286674,75.57028429767223L1447.816764,73.76908880967471L1452.3468540000001,74.02025564094879L1456.876944,80.15721650832825L1461.407034,80.2453088798689L1465.937124,81.75484295144037L1469.108187,77.11781213430078L1473.638277,72.37618625076612L1478.168367,73.5477028320463L1482.698457,73.804393176843L1487.228547,71.30310624781356L1491.758637,79.59796535699684L1496.2887269999999,70.82184914158893L1500.818817,66.60961976530541L1505.348907,84.9849673330541L1509.878997,99.37533884966854L1514.409087,98.9416003262586L1518.939177,89.79770633298625L1523.469267,91.92395592833202L1527.999357,93.58962198438599L1532.529447,80.27511826121804L1537.059537,81.2633793407158L1541.589627,95.65314773432283L1546.119717,81.54766611373446L1550.649807,78.00450147457258L1553.8208700000002,70.93208959338466L1558.35096,61.79768429091388L1562.88105,64.80326986137493L1567.41114,64.18730183642361L1571.94123,79.04037982562261L1576.4713199999999,86.68873757999836L1581.0014099999999,91.69929589407712L1585.5315,100.68863399161421L1590.06159,96.30702118441269L1594.59168,94.85964960495357L1599.12177,84.66786396675758L1603.65186,90.40478914044883L1608.18195,84.29067826973278L1612.71204,81.98558339293322L1617.24213,86.32175276501653L1621.77222,85.69657420496543L1626.30231,84.64200159292085L1630.8324,75.3232793565179L1635.36249,70.9817540546124L1638.5335530000002,78.81696753573476L1643.0636430000002,75.89774854652399L1647.5937330000002,67.80812724925374L1652.1238230000001,71.00653522209927L1656.653913,73.74672411361956L1661.184003,68.96594872428193L1665.7140930000003,65.19563991205501L1670.2441830000002,62.47163573136925L1674.774273,73.05179682388837L1679.304363,81.40816633091839L1683.834453,76.61089359177862L1688.364543,71.76558299541529L1692.8946329999999,84.1336599803837L1697.4247229999999,89.70588859498775L1701.954813,85.8875847365635L1706.484903,86.93948138194582L1711.014993,101.87341895290763L1715.545083,91.75541559470275L1720.075173,84.39819231577138L1723.2462360000002,84.33405441887322L1727.7763260000002,85.42246815368384L1732.3064160000001,77.01094994752805L1736.836506,76.94168659369399L1741.366596,83.00465052153169L1745.896686,76.82119178619661L1750.4267760000002,72.44867630262695L1754.9568660000002,68.63035265940556L1759.4869560000002,84.32365175684328L1764.0170460000002,84.11843351558468L1768.5471360000001,79.92135557473676L1773.077226,87.02777872930591L1777.607316,85.70478189373898L1782.1374060000003,98.21148487654136L1786.667496,101.83627671575044L1791.197586,87.55050030691842L1795.727676,77.5146148482138L1800.257766,70.24985485848799L1804.787856,64.1195540228137L1807.9589190000002,76.36405730163585L1812.4890090000001,70.18147096041628L1817.019099,87.6493642932341L1821.549189,81.3862299325985L1826.079279,89.95396369520313L1830.609369,89.16722933068144L1835.1394590000002,78.32533802175124L1839.6695490000002,92.57410147083903L1844.1996390000002,83.58793136892189L1848.7297290000001,82.7031954524283L1853.259819,81.65441360413558L1857.789909,74.34853061634311L1862.319999,78.46767681650522L1866.8500890000003,85.98626428768392L1871.3801790000002,94.77110915587025L1875.9102690000002,84.71028027446249L1880.4403590000002,89.40461271394628L1884.9704490000001,84.11999379148017L1889.5005390000001,79.08817414744198L1892.6716020000001,89.05197908541322L1897.201692,83.74771009128881L1901.731782,88.65363726450357L1906.261872,89.56292982421104L1910.791962,81.49091840619616L1915.3220520000002,83.59934302527881L1919.8521420000002,79.63862522063437L1924.3822320000002,77.21108686700529L1928.9123220000001,75.97954831389904L1933.442412,73.17646768757402L1937.972502,67.01701394457774L1942.502592,72.3217548454121L1947.032682,71.40408835385688L1951.5627720000002,87.44328429075767L1956.0928620000002,95.26168824354465L1960.6229520000002,94.61111296230433L1965.1530420000001,92.62053287846578L1969.6831320000001,84.8146930503521L1974.213222,82.54070301686124" style="fill: none;" fill="none"></path></g><g><path stroke="rgb(0, 153, 136)" stroke-width="2px" d="M283.130625,263.5901285807292L287.66071500000004,278.48410217626036L292.190805,297.60923862302604L296.72089500000004,305.3868470925606L301.250985,306.7779087046465L305.78107500000004,302.7981427788711L310.311165,306.77987479696924L314.84125500000005,308.81531102358855L319.37134499999996,310.55973529126493L323.901435,310.20984950671345L328.43152499999997,310.8923985740229L332.961615,314.8625865150455L337.491705,314.5000323173074L342.021795,315.7276728426912L346.551885,306.9687837195236L351.081975,306.59390356792187L355.61206500000003,307.0688262016768L360.142155,308.2672840132735L364.67224500000003,311.8356268598321L367.843308,311.3864213049518L372.373398,310.9161081808611L376.903488,309.68479645003697L381.433578,311.3822233016374L385.963668,308.61272328408745L390.493758,308.4527643482917L395.023848,306.2998969059457L399.553938,306.00031269818487L404.08402800000005,305.6579028005774L408.614118,304.9025762359595L413.14420800000005,306.45706169907874L417.674298,302.63851777366733L422.20438800000005,306.11876401167024L426.734478,307.5489533098506L431.26456800000005,305.9981669778506L435.79465799999997,310.73281170145026L440.324748,313.00956266823243L444.854838,312.0481073558269L449.384928,310.3154207096238L452.555991,309.40288676420306L457.08608100000004,303.49475105296995L461.616171,306.66913599655123L466.14626100000004,307.6679710892875L470.67635100000007,305.9176677738721L475.206441,309.8566681925013L479.736531,313.5433119650959L484.266621,314.3284399869135L488.796711,315.5361835333829L493.326801,317.36877537696233L497.856891,311.5574582073326L502.386981,309.0342481717189L506.917071,308.16382824747285L511.447161,309.46467388077804L515.977251,309.8116487472033L520.507341,313.72263411863406L525.0374310000001,312.3145159160035L529.567521,312.8584188969413L534.097611,311.76030154282125L537.268674,313.9405287125153L541.798764,314.9061000648938L546.328854,311.51136407022204L550.8589440000001,310.50712981789025L555.389034,305.6568468802003L559.919124,309.42407137928427L564.449214,308.28892207463707L568.979304,311.2383391282183L573.5093939999999,311.1467222955839L578.039484,310.67883252836083L582.569574,308.1438456562288L587.099664,309.03123288672947L591.6297539999999,307.5122291550651L596.159844,306.52731663812455L600.689934,307.81616609386924L605.220024,309.1571787543143L609.750114,303.5805161925816L614.280204,308.2394661620779L618.810294,300.7529579048594L621.981357,302.7329265348652L626.5114470000001,302.13749054158177L631.0415370000001,302.32478320386224L635.571627,302.01962117844937L640.101717,302.5080426610946L644.6318070000001,303.84391480571907L649.1618970000001,303.95296158511144L653.691987,307.07024917850146L658.2220770000001,305.7045295932324L662.7521670000001,307.840681469679L667.282257,307.7944091447238L671.8123469999999,309.2892035440126L676.342437,308.8621402867495L680.872527,310.03087467600795L685.402617,313.1209375725744L689.9327069999999,313.9780674548206L694.462797,317.1657486200781L698.992887,318.93375864686135L703.522977,314.81707402585107L706.69404,315.28871444081494L711.2241300000001,315.2798102853882L715.75422,314.58950358506934L720.28431,314.57788644647303L724.8144000000001,311.68531102988527L729.3444900000001,309.5171476503654L733.87458,305.9769624314518L738.40467,308.85206891631185L742.9347600000001,304.5070409557432L747.4648500000001,310.6759854758808L751.99494,311.1042199216808L756.52503,315.36851274826626L761.0551200000001,316.90078472686616L765.5852100000001,319.86298380687396L770.1153,319.58628781595417L774.6453900000001,319.5650422478017L779.17548,320.1752675937923L783.70557,319.0476748260742L788.2356599999999,313.3541103190514L791.4067229999999,311.6410475930392L795.936813,314.33513210623806L800.466903,312.8963493040894L804.996993,311.7447861899255L809.5270830000001,312.76935799755574L814.057173,307.9235086919306L818.587263,305.91333161527797L823.117353,303.5469008126771L827.6474430000001,307.8190438117862L832.177533,309.70440542488916L836.707623,305.40391921671755L841.2377130000001,308.93609110985636L845.7678030000001,306.80966617723885L850.297893,306.81456079471576L854.827983,307.3135716697208L859.3580730000001,310.3482165165566L863.8881630000001,313.26491845092215L868.418253,316.7077565700329L872.948343,315.1762566284609L876.119406,313.9297776795533L880.649496,309.6120212729526L885.179586,310.47716965354306L889.709676,312.50820648379977L894.239766,312.0231033463399L898.769856,309.9528169696414L903.299946,313.1823202327771L907.830036,311.3889339808498L912.360126,312.801199960744L916.890216,309.41680233485795L921.420306,310.1781737910699L925.9503960000001,311.83456427150975L930.480486,311.6571270068099L935.010576,313.26566008734375L939.540666,310.48056262271973L944.0707560000001,313.2270793199311L948.600846,311.3206924798408L953.130936,312.28465817787503L957.6610260000001,309.0858818437576L960.8320890000001,313.15080423016246L965.3621790000001,312.26501236840176L969.892269,309.0640475540692L974.4223590000001,312.71230267178254L978.952449,314.54553090408007L983.482539,311.56354967871374L988.012629,310.6119750838624L992.542719,311.44473982931214L997.072809,312.83494480901766L1001.602899,310.3929165990166L1006.132989,311.4348728748261L1010.663079,310.28652455708993L1015.193169,311.0048219810072L1019.723259,310.95991405395176L1024.253349,311.58454821665885L1028.783439,314.35644329371075L1033.313529,313.32337572805284L1037.843619,308.69834132374496L1042.373709,309.01501380342444L1045.544772,306.5211668579149L1050.0748620000002,307.3083919409142L1054.6049520000001,309.9032937986435L1059.135042,310.49949578502276L1063.665132,312.1721495655875L1068.195222,311.7620855362473L1072.725312,314.61473573705274L1077.255402,316.3713120317058L1081.7854920000002,316.3264556201511L1086.3155820000002,314.42180582845424L1090.845672,312.0449613440823L1095.375762,312.4553549227578L1099.9058519999999,314.59779192512843L1104.435942,310.57641651240425L1108.966032,309.3068805266938L1113.496122,312.2523933815951L1118.026212,311.11205468437714L1122.556302,313.980970736911L1127.086392,313.46061080236797L1130.257455,314.34715047708386L1134.7875450000001,312.89563659450505L1139.317635,312.4837144983052L1143.847725,310.98467467980976L1148.377815,314.49995401494635L1152.907905,312.2857200046584L1157.437995,304.41015221233005L1161.968085,307.78616443008127L1166.4981750000002,309.42801288435544L1171.0282650000001,307.07566925251933L1175.5583550000001,307.00335813947004L1180.088445,308.99823348113523L1184.618535,308.836801150803L1189.148625,306.4722071829382L1193.678715,307.23985004754894L1198.208805,304.85698554302013L1202.7388950000002,307.32305799014085L1207.2689850000002,304.3023792715747L1211.7990750000001,306.6839807624148L1214.970138,311.0809637061719L1219.500228,312.5485832796222L1224.030318,309.7562604903891L1228.560408,311.9025148657918L1233.090498,311.66588083422977L1237.620588,312.25340342979905L1242.150678,313.40719304445736L1246.680768,312.4958039164574L1251.2108580000001,310.65828365358334L1255.7409480000001,312.63391321914503L1260.271038,315.1354069092074L1264.801128,317.04017210142985L1269.331218,317.499637443703L1273.861308,312.3655078725974L1278.391398,312.47921028158953L1282.9214880000002,313.9650291422779L1287.4515780000002,311.1996183556777L1291.9816680000001,308.1695716033266L1296.511758,305.31826436219313L1299.6828209999999,307.23038545640395L1304.212911,307.5461183594649L1308.743001,309.14005610882214L1313.273091,310.80996176515833L1317.803181,312.32313557908225L1322.333271,312.49412023127223L1326.863361,312.92627096451525L1331.393451,314.1490591082803L1335.9235410000001,312.66629451141716L1340.453631,311.4758375819107L1344.983721,313.4798919706386L1349.513811,312.3409013913212L1354.043901,311.88235141830273L1358.573991,310.0806187045538L1363.104081,311.0916091928111L1367.6341710000002,311.1495739570049L1372.1642610000001,310.73225286904L1376.694351,307.1141664243084L1381.224441,308.29796096860326L1384.395504,310.9599768315797L1388.925594,313.2621457964308L1393.455684,315.75353298209893L1397.985774,313.9737824479101L1402.515864,316.2826697315603L1407.045954,312.78217983869376L1411.576044,311.1872696532408L1416.1061339999999,307.33620309467847L1420.636224,310.7088011148835L1425.166314,308.2159166246979L1429.696404,309.96648811224503L1434.226494,310.5076029854348L1438.756584,310.81221129571287L1443.286674,316.10068617763613L1447.816764,316.0769046564326L1452.3468540000001,314.3416506776429L1456.876944,314.9737178488156L1461.407034,314.63401026925544L1465.937124,315.36840124043L1469.108187,315.60496081198886L1473.638277,313.5087882327361L1478.168367,314.3307557084534L1482.698457,317.65683125551936L1487.228547,313.9943319513656L1491.758637,312.05221759680256L1496.2887269999999,308.22436347001536L1500.818817,314.84220600837483L1505.348907,313.0219350737385L1509.878997,311.9247351950724L1514.409087,308.298220703571L1518.939177,309.26540516834245L1523.469267,308.87322872481315L1527.999357,310.21441185508866L1532.529447,313.61402562670236L1537.059537,311.49107004110056L1541.589627,307.33846514783033L1546.119717,303.5029802599209L1550.649807,307.3080842371125L1553.8208700000002,303.62663046358153L1558.35096,308.9046149957828L1562.88105,312.5745610328481L1567.41114,313.8365764811345L1571.94123,310.2766192263454L1576.4713199999999,310.3801057586043L1581.0014099999999,311.750366417818L1585.5315,310.09971912199774L1590.06159,309.46668288872297L1594.59168,308.36501818579166L1599.12177,313.65186761481453L1603.65186,313.2517680565386L1608.18195,310.7793522651342L1612.71204,310.4990652153809L1617.24213,304.97214542252755L1621.77222,310.1269653231549L1626.30231,311.08181443399627L1630.8324,311.56393270016804L1635.36249,307.0960640600233L1638.5335530000002,310.61589354095133L1643.0636430000002,308.92372082084324L1647.5937330000002,309.5870629646514L1652.1238230000001,307.19540510443767L1656.653913,310.5547386932911L1661.184003,309.14010792324024L1665.7140930000003,309.42180145340865L1670.2441830000002,308.087378941009L1674.774273,309.21077265209226L1679.304363,306.39376210872587L1683.834453,307.3633117602734L1688.364543,310.54039416055423L1692.8946329999999,308.0957133291137L1697.4247229999999,307.0775237301686L1701.954813,310.30440224317795L1706.484903,313.20267100982636L1711.014993,314.7359109729607L1715.545083,312.507743041343L1720.075173,313.71144048559586L1723.2462360000002,310.56766085572775L1727.7763260000002,313.44257832765743L1732.3064160000001,310.36037580276843L1736.836506,310.90555275712234L1741.366596,310.3056998933644L1745.896686,312.11943277537716L1750.4267760000002,311.25481406019867L1754.9568660000002,317.11759081919877L1759.4869560000002,313.08061093949635L1764.0170460000002,313.60006180086947L1768.5471360000001,315.5638121806197L1773.077226,312.34114879801587L1777.607316,312.8754760305359L1782.1374060000003,312.647316979177L1786.667496,315.1620031097848L1791.197586,312.3604835232717L1795.727676,313.739900325139L1800.257766,314.70203395689936L1804.787856,316.6462559650719L1807.9589190000002,315.8578808147526L1812.4890090000001,316.15968385424316L1817.019099,313.4386196873919L1821.549189,313.67705343297894L1826.079279,315.3311139014798L1830.609369,315.6694815893246L1835.1394590000002,311.9246600200962L1839.6695490000002,308.3997564792327L1844.1996390000002,311.1175154768888L1848.7297290000001,307.03324464956404L1853.259819,303.52301459920045L1857.789909,311.0284054854866L1862.319999,309.1430160244831L1866.8500890000003,310.4510123737266L1871.3801790000002,311.3743678763444L1875.9102690000002,313.8136822532504L1880.4403590000002,317.7492712885711L1884.9704490000001,314.3108639930439L1889.5005390000001,314.52338644172164L1892.6716020000001,312.256279029708L1897.201692,313.21104860808543L1901.731782,313.52325949465006L1906.261872,307.2443987380836L1910.791962,308.06316736298925L1915.3220520000002,304.56176012295134L1919.8521420000002,306.77801423142245L1924.3822320000002,302.3178215766529L1928.9123220000001,308.14695816393197L1933.442412,307.1836803656221L1937.972502,309.08110144453065L1942.502592,310.86771466144415L1947.032682,311.0537203092153L1951.5627720000002,311.8853753204625L1956.0928620000002,309.9336703650785L1960.6229520000002,308.49332033289227L1965.1530420000001,308.8322353812816L1969.6831320000001,313.8089977363533L1974.213222,312.6296550892701" style="fill: none;" fill="none"></path></g></g></g></g><g opacity="0.2"><g><g><g><path stroke="rgb(238, 51, 119)" stroke-width="2px" d="M283.130625,298.2231448690097L287.66071500000004,145.29068307081863L292.190805,101.32920723160112L296.72089500000004,134.95236025253936L301.250985,127.82755197087928L305.78107500000004,213.43902926643693L310.311165,171.76781148711845L314.84125500000005,179.95102029045427L319.37134499999996,170.08876329660418L323.901435,175.87596948941552L328.43152499999997,146.06523802876475L332.961615,147.52863999207818L337.491705,199.00399926801526L342.021795,173.93110867341363L346.551885,184.79965230822566L351.081975,157.22807621955874L355.61206500000003,204.70317550996944L360.142155,146.71086590488756L364.67224500000003,104.86894380052888L367.843308,159.9342341323694L372.373398,159.2338333129883L376.903488,158.77628729740783L381.433578,156.15634293357536L385.963668,193.96468250453475L390.493758,159.5606732964516L395.023848,176.1177569230398L399.553938,184.77547731002176L404.08402800000005,184.0497966706753L408.614118,175.2779987553756L413.14420800000005,159.57999831438067L417.674298,177.87343105673793L422.20438800000005,146.61738674839341L426.734478,163.6060062646866L431.26456800000005,175.7286162277063L435.79465799999997,136.17904947201416L440.324748,149.1792624294758L444.854838,150.67517236868545L449.384928,172.4022975166639L452.555991,184.68235394358638L457.08608100000004,172.57948096593225L461.616171,133.07373256484672L466.14626100000004,177.8095573782921L470.67635100000007,198.4513543148836L475.206441,128.32841074466708L479.736531,128.2184341649215L484.266621,160.54654882351562L488.796711,152.06003835797313L493.326801,148.65293657779696L497.856891,210.79954453806087L502.386981,197.42328021427L506.917071,147.95350949962938L511.447161,168.9673504829407L515.977251,154.6528677741687L520.507341,144.8558514416218L525.0374310000001,184.48389799396202L529.567521,165.6620982885361L534.097611,149.49786306420967L537.268674,134.32712476452195L541.798764,187.69744998216632L546.328854,170.9029233058294L550.8589440000001,179.25762291749322L555.389034,185.98703608910247L559.919124,161.22442251443866L564.449214,149.62358803550407L568.979304,135.3271944423517L573.5093939999999,162.12790455420816L578.039484,154.02574098110202L582.569574,189.07148310045406L587.099664,183.8837550679843L591.6297539999999,163.22405627369884L596.159844,169.98723204930627L600.689934,165.71717084447548L605.220024,169.41937238971397L609.750114,199.891536295414L614.280204,122.07053175568583L618.810294,202.53560884296897L621.981357,177.55247097214067L626.5114470000001,189.6909697701534L631.0415370000001,169.12687550981843L635.571627,176.42463521162674L640.101717,165.2260869344076L644.6318070000001,147.52377128601077L649.1618970000001,152.85150270660722L653.691987,153.95690496762597L658.2220770000001,180.90133553743365L662.7521670000001,154.83205488324168L667.282257,196.37193931639197L671.8123469999999,171.55559207995736L676.342437,160.69384590784713L680.872527,171.0456887483597L685.402617,151.94041799505555L689.9327069999999,156.1658930877845L694.462797,103.92198047041899L698.992887,140.86261362830803L703.522977,178.39161118865016L706.69404,125.4014570116997L711.2241300000001,159.69675363103553L715.75422,152.61171893278762L720.28431,172.43171573678657L724.8144000000001,172.81065087517106L729.3444900000001,193.94752031564715L733.87458,174.7072927753131L738.40467,168.9174087941647L742.9347600000001,174.75818947951004L747.4648500000001,125.59313422441485L751.99494,149.45840781927112L756.52503,115.94802152117097L761.0551200000001,153.97997514406845L765.5852100000001,116.43599694967276L770.1153,161.24316703279817L774.6453900000001,123.24124958117807L779.17548,120.47458863258368L783.70557,160.26294669508937L788.2356599999999,165.78248640894893L791.4067229999999,159.07627449433014L795.936813,140.78763555487L800.466903,162.67304982741678L804.996993,184.47041542331382L809.5270830000001,136.10203028718635L814.057173,187.43770451347038L818.587263,180.94174579779312L823.117353,165.51764752467477L827.6474430000001,160.52051997184756L832.177533,152.9059385855993L836.707623,205.0377773344517L841.2377130000001,136.77099050084755L845.7678030000001,164.0797500908375L850.297893,179.4089647730192L854.827983,162.69458448886874L859.3580730000001,138.2732859353225L863.8881630000001,142.53441493709886L868.418253,120.83871166904771L872.948343,153.61135791738832L876.119406,178.1104621390502L880.649496,194.0764005829891L885.179586,187.60749127467477L889.709676,167.33404940366748L894.239766,137.0395183662574L898.769856,158.01852937539422L903.299946,147.96444536248848L907.830036,166.5896991491318L912.360126,153.2057572503885L916.890216,215.82487313449386L921.420306,160.49424768487617L925.9503960000001,151.22018656134608L930.480486,174.17746520042422L935.010576,138.99391061067584L939.540666,159.91895388563478L944.0707560000001,127.23051752646768L948.600846,188.88375702997052L953.130936,158.57352441549304L957.6610260000001,199.83193209767344L960.8320890000001,119.58451426029211L965.3621790000001,173.29347671071693L969.892269,161.58290908734008L974.4223590000001,141.70121079683307L978.952449,130.02230848868692L983.482539,159.2415483395259L988.012629,152.35236670573556L992.542719,145.0302447477977L997.072809,137.51249443491304L1001.602899,157.5697283049425L1006.132989,145.6509485940139L1010.663079,189.11448688308403L1015.193169,171.661935855945L1019.723259,155.74426314234736L1024.253349,149.83552655577662L1028.783439,159.13908080259964L1033.313529,168.7280161281427L1037.843619,199.01109634339812L1042.373709,155.2557259400686L1045.544772,184.15226420760158L1050.0748620000002,141.041370044152L1054.6049520000001,155.3011921644211L1059.135042,169.63146071632707L1063.665132,149.3102680742741L1068.195222,156.33783331513408L1072.725312,114.35087994734454L1077.255402,125.6182642380397L1081.7854920000002,145.75884661078456L1086.3155820000002,155.95681961377466L1090.845672,160.60832521319392L1095.375762,167.39041403929397L1099.9058519999999,156.67465414603555L1104.435942,172.4619953433673L1108.966032,182.3482588032882L1113.496122,128.36501966913545L1118.026212,160.83526309331262L1122.556302,126.04927580555284L1127.086392,174.59857082366946L1130.257455,154.5242964824041L1134.7875450000001,146.46426594257358L1139.317635,153.5021865467231L1143.847725,150.53109612067544L1148.377815,125.66524725159013L1152.907905,177.2059689064821L1157.437995,218.038935944438L1161.968085,141.71536749601367L1166.4981750000002,140.19985165198648L1171.0282650000001,189.75091103216016L1175.5583550000001,159.90850489338243L1180.088445,172.12968742847445L1184.618535,151.0614480177562L1189.148625,191.410259688894L1193.678715,186.78717047969505L1198.208805,181.0787436962128L1202.7388950000002,148.18499774734184L1207.2689850000002,201.33477058013284L1211.7990750000001,142.3606395820777L1214.970138,127.27594629923507L1219.500228,117.49389187494921L1224.030318,166.77332427104318L1228.560408,138.259166687727L1233.090498,143.38692536950114L1237.620588,169.66494243343675L1242.150678,153.99510558446252L1246.680768,143.57570008436844L1251.2108580000001,151.2912696699302L1255.7409480000001,150.60925757884982L1260.271038,142.02879981199905L1264.801128,108.68179605404544L1269.331218,144.86779849727952L1273.861308,195.26070397098863L1278.391398,148.0620629191399L1282.9214880000002,137.34190246462825L1287.4515780000002,165.18663168946907L1291.9816680000001,212.23493271569416L1296.511758,167.48130903641388L1299.6828209999999,161.94588985045755L1304.212911,163.66630331675216L1308.743001,149.97544567783677L1313.273091,157.24910528461143L1317.803181,135.6169199049473L1322.333271,140.65578724940622L1326.863361,156.68010335167253L1331.393451,141.90777501463893L1335.9235410000001,151.03109350800517L1340.453631,163.51029873887703L1344.983721,149.85080680251124L1349.513811,163.6410234967868L1354.043901,153.76831751068437L1358.573991,191.62783467272922L1363.104081,138.94921214381858L1367.6341710000002,135.4811204572519L1372.1642610000001,148.9421002666156L1376.694351,174.117111970981L1381.224441,161.28327768047654L1384.395504,161.00252187252048L1388.925594,125.53382963935539L1393.455684,129.75265707572305L1397.985774,128.0544711252054L1402.515864,132.72803570826852L1407.045954,162.8866549432278L1411.576044,156.81247597932818L1416.1061339999999,184.6396965881189L1420.636224,143.13491365313533L1425.166314,176.49790923794114L1429.696404,150.62871367732689L1434.226494,139.09227719902995L1438.756584,152.64873982469246L1443.286674,97.51360228657728L1447.816764,158.53024910887086L1452.3468540000001,177.39890074729922L1456.876944,156.45990675687793L1461.407034,152.6096216440201L1465.937124,140.76671884457275L1469.108187,145.3981316685677L1473.638277,161.37537112832072L1478.168367,122.57796328266465L1482.698457,120.18819636106497L1487.228547,174.23047791918123L1491.758637,137.29484454790756L1496.2887269999999,178.42548614740375L1500.818817,111.4460975527764L1505.348907,131.38822397589686L1509.878997,173.35433553655946L1514.409087,203.04678552846119L1518.939177,184.09134920438134L1523.469267,165.67316523194316L1527.999357,145.74068259199464L1532.529447,143.39546433091166L1537.059537,173.29194119572642L1541.589627,164.2147817810377L1546.119717,176.12996613979342L1550.649807,130.14359544714296L1553.8208700000002,196.76845797399685L1558.35096,118.70127480228746L1562.88105,121.92969506978991L1567.41114,166.164941996336L1571.94123,172.8726332485676L1576.4713199999999,146.86908012628558L1581.0014099999999,158.42941071589792L1585.5315,160.86814558506015L1590.06159,142.09235515197122L1594.59168,179.7992290159067L1599.12177,103.22738464673364L1603.65186,166.07327924172088L1608.18195,162.89599911371872L1612.71204,176.65382018685344L1617.24213,195.03802620867893L1621.77222,148.9237489899L1626.30231,158.30033382773402L1630.8324,158.08433181047442L1635.36249,175.81973593433702L1638.5335530000002,147.75181398789093L1643.0636430000002,170.09213393926623L1647.5937330000002,168.29290361205742L1652.1238230000001,166.2732894321283L1656.653913,145.5864944159985L1661.184003,188.14224373300874L1665.7140930000003,127.89571385582292L1670.2441830000002,183.422482619683L1674.774273,157.6303624212742L1679.304363,183.36688574155176L1683.834453,166.79770525296533L1688.364543,138.7648005386194L1692.8946329999999,150.10725653171542L1697.4247229999999,156.93189035852754L1701.954813,129.3276377618313L1706.484903,136.5304764211178L1711.014993,130.43877011537555L1715.545083,153.29507928093278L1720.075173,130.06449769934022L1723.2462360000002,179.44109823306405L1727.7763260000002,133.16462756196663L1732.3064160000001,166.36380991339686L1736.836506,135.2097275455793L1741.366596,143.67813016970956L1745.896686,135.6962236364683L1750.4267760000002,176.968844195207L1754.9568660000002,88.59529377023387L1759.4869560000002,154.31359386444095L1764.0170460000002,121.4759691158931L1768.5471360000001,133.7515313525995L1773.077226,177.66400179266932L1777.607316,131.73246022065484L1782.1374060000003,175.19996837774917L1786.667496,143.3067040741444L1791.197586,182.69069737195971L1795.727676,145.28317402799928L1800.257766,138.20003063480064L1804.787856,125.90611712137863L1807.9589190000002,157.19086806972825L1812.4890090000001,147.9167882204056L1817.019099,171.51799068848297L1821.549189,163.83655822277072L1826.079279,122.1910135050615L1830.609369,153.7809386948745L1835.1394590000002,166.57541136940324L1839.6695490000002,196.1785955081384L1844.1996390000002,155.2381798724334L1848.7297290000001,186.2671177685261L1853.259819,157.16480176647508L1857.789909,107.17111146450048L1862.319999,177.59082139531776L1866.8500890000003,154.04929802815124L1871.3801790000002,187.82414869467422L1875.9102690000002,147.37885237733528L1880.4403590000002,119.50174625714624L1884.9704490000001,166.7475950320562L1889.5005390000001,159.46449762582782L1892.6716020000001,154.80040829380357L1897.201692,169.59028269847238L1901.731782,184.09962600469592L1906.261872,194.71728147069618L1910.791962,155.81693794329965L1915.3220520000002,162.77439381678903L1919.8521420000002,158.61859739820167L1924.3822320000002,225.3322857220968L1928.9123220000001,103.17806090911233L1933.442412,167.70916448036834L1937.972502,132.67116547624275L1942.502592,167.55763536691668L1947.032682,165.79385296503708L1951.5627720000002,142.548028588295L1956.0928620000002,154.3287992080053L1960.6229520000002,179.17028582096103L1965.1530420000001,166.09157434105876L1969.6831320000001,123.6992824673653L1974.213222,134.60909774899486" style="fill: none;" fill="none"></path></g><g><path stroke="rgb(51, 187, 238)" stroke-width="2px" d="M283.130625,210.80236276984218L287.66071500000004,120.84607090552652L292.190805,71.25873030225443L296.72089500000004,112.17516756057745L301.250985,73.69928157329565L305.78107500000004,97.6556936005752L310.311165,76.93468656142562L314.84125500000005,93.19103395938879L319.37134499999996,84.94631092747062L323.901435,39.80818118651712L328.43152499999997,85.45915420850127L332.961615,51.27804747223854L337.491705,83.76591186722129L342.021795,50.51980267961824L346.551885,72.06981928149867L351.081975,93.50240643819183L355.61206500000003,143.87106201052669L360.142155,126.65728356440866L364.67224500000003,103.67865752180421L367.843308,106.91424976785981L372.373398,48.40360086162889L376.903488,104.459541797638L381.433578,77.45994504292815L385.963668,68.5306070347628L390.493758,49.145329505205154L395.023848,71.17998834451049L399.553938,103.54173452655482L404.08402800000005,95.59044466416049L408.614118,70.88949512441962L413.14420800000005,59.019140313069045L417.674298,101.34843862056738L422.20438800000005,71.65384452541679L426.734478,68.97184288501745L431.26456800000005,93.70406449834513L435.79465799999997,60.88947247465455L440.324748,88.1584584812324L444.854838,86.33303077022242L449.384928,103.50462000568712L452.555991,70.5733662943046L457.08608100000004,93.50727514425921L461.616171,81.3173272311688L466.14626100000004,64.12019601464277L470.67635100000007,67.78194984793669L475.206441,86.64861655235296L479.736531,82.45302782456088L484.266621,84.9373038212459L488.796711,106.10130693515146L493.326801,58.74374008178711L497.856891,101.49433127045637L502.386981,103.32217460870748L506.917071,97.46088918050134L511.447161,81.32704591751104L515.977251,74.33513458569854L520.507341,67.8046080569427L525.0374310000001,95.19626673062646L529.567521,41.97256446878117L534.097611,76.08828073740011L537.268674,102.91477626562124L541.798764,68.69254768888163L546.328854,109.39140996336943L550.8589440000001,57.75175994634628L555.389034,68.82866547505068L559.919124,89.25090249379485L564.449214,70.78682160377508L568.979304,64.92753983537364L573.5093939999999,61.47646989425027L578.039484,95.63272750377661L582.569574,59.0427722632885L587.099664,111.50624479850137L591.6297539999999,67.86065435409552L596.159844,56.990799913803755L600.689934,47.41199524203938L605.220024,68.28853871425002L609.750114,40.43852881590527L614.280204,74.10623049736029L618.810294,81.88700329264014L621.981357,68.35175698995596L626.5114470000001,83.10751300056785L631.0415370000001,84.63293478886294L635.571627,70.98524010181433L640.101717,62.61552240451181L644.6318070000001,96.59233074386918L649.1618970000001,102.08415628472972L653.691987,100.32604779799783L658.2220770000001,60.42868689695996L662.7521670000001,67.26382589340216L667.282257,73.12915609280276L671.8123469999999,63.16965605815261L676.342437,62.24201774597168L680.872527,69.73868281642604L685.402617,72.09537998835253L689.9327069999999,61.996840943892835L694.462797,106.65922319889074L698.992887,69.13945745428413L703.522977,87.22119511167216L706.69404,87.44955615202593L711.2241300000001,84.65433836976695L715.75422,82.43531322479254L720.28431,71.23895586530375L724.8144000000001,83.01637456814456L729.3444900000001,92.41513074437785L733.87458,59.61769154667854L738.40467,95.73761066794401L742.9347600000001,64.46299037337309L747.4648500000001,98.88586581746745L751.99494,59.70154564579332L756.52503,74.68401482701307L761.0551200000001,106.7252690692743L765.5852100000001,100.10543923576677L770.1153,69.00232847531646L774.6453900000001,123.53827810287478L779.17548,64.18172896901774L783.70557,84.37972462177282L788.2356599999999,43.7943406502406L791.4067229999999,57.7109189927578L795.936813,66.24405668179202L800.466903,160.75899294018748L804.996993,140.52892000476524L809.5270830000001,55.43790738781297L814.057173,48.21173639098805L818.587263,100.48830679059034L823.117353,66.80684165159869L827.6474430000001,63.20512270927435L832.177533,76.70651277899748L836.707623,95.7243153552215L841.2377130000001,55.33740605910623L845.7678030000001,108.90905227263772L850.297893,66.09902541836112L854.827983,52.16840273141861L859.3580730000001,75.18633421262115L863.8881630000001,109.7462450067203L868.418253,72.7062527934711L872.948343,65.9567655722301L876.119406,52.75912658373517L880.649496,122.85119132200882L885.179586,102.01045156518626L889.709676,64.12557031710952L894.239766,85.208284765482L898.769856,114.02795365452772L903.299946,77.28918454051023L907.830036,66.5639306704204L912.360126,57.12236733237904L916.890216,67.87166512012487L921.420306,70.85071400801348L925.9503960000001,88.75045568744349L930.480486,61.94897781809175L935.010576,95.44400896628702L939.540666,74.41941937804228L944.0707560000001,68.72556126117712L948.600846,87.78669532140106L953.130936,102.93074936668086L957.6610260000001,65.95453720291465L960.8320890000001,71.60341596603399L965.3621790000001,74.43722760677343L969.892269,97.99792618552851L974.4223590000001,47.08496800065046L978.952449,72.58563996354746L983.482539,55.176794936259626L988.012629,129.6748139560223L992.542719,90.29406022032111L997.072809,72.15762452284503L1001.602899,58.74855261047685L1006.132989,109.34586883584666L1010.663079,110.74800000588107L1015.193169,96.26028499007231L1019.723259,53.84533490737283L1024.253349,41.42646418015164L1028.783439,103.00930406649911L1033.313529,110.19852907458949L1037.843619,108.05727214614558L1042.373709,54.61176287134492L1045.544772,85.12697737415641L1050.0748620000002,102.17488274971652L1054.6049520000001,42.17611383398378L1059.135042,66.0621730585894L1063.665132,83.49978090325999L1068.195222,74.9940765003364L1072.725312,72.57256936033576L1077.255402,70.37788774569839L1081.7854920000002,67.16909210880607L1086.3155820000002,126.2839848895868L1090.845672,110.84299595157313L1095.375762,95.97883632779127L1099.9058519999999,44.431317210197506L1104.435942,55.8511481781801L1108.966032,114.20332070191705L1113.496122,79.56517354647326L1118.026212,81.54325391848892L1122.556302,68.51555149753898L1127.086392,116.51752905050921L1130.257455,37.528990070025145L1134.7875450000001,137.25419085224473L1139.317635,52.71060805519426L1143.847725,110.24495031436288L1148.377815,73.97623604536062L1152.907905,85.86992319424957L1157.437995,35.872618814309476L1161.968085,58.85126358270645L1166.4981750000002,96.51287720600772L1171.0282650000001,85.42409952481597L1175.5583550000001,69.0677751203379L1180.088445,121.80473785599077L1184.618535,102.91389615337062L1189.148625,131.86923340956375L1193.678715,120.6171293656032L1198.208805,69.49122146765399L1202.7388950000002,59.868785699208615L1207.2689850000002,47.71482875943184L1211.7990750000001,131.0077533225219L1214.970138,48.17520236968994L1219.500228,141.82135548194253L1224.030318,92.17025355498004L1228.560408,89.61322785417246L1233.090498,70.06762008865684L1237.620588,49.1565275291602L1242.150678,94.67982809742296L1246.680768,79.69329541921621L1251.2108580000001,120.49621692299849L1255.7409480000001,120.89299774169928L1260.271038,59.1756317615509L1264.801128,87.45728990435606L1269.331218,65.9297068019709L1273.861308,67.27129748463636L1278.391398,65.3009321391583L1282.9214880000002,61.14899323383969L1287.4515780000002,110.67701052625978L1291.9816680000001,41.04331573843962L1296.511758,80.00558546185499L1299.6828209999999,80.44854408502584L1304.212911,96.31254867712664L1308.743001,93.97510161995893L1313.273091,76.49697116017347L1317.803181,55.626345038414L1322.333271,101.77283998330438L1326.863361,90.72097083926207L1331.393451,71.30719265341764L1335.9235410000001,71.41510939598089L1340.453631,55.752669235070584L1344.983721,83.12105174859374L1349.513811,68.26243495941168L1354.043901,95.84528397520387L1358.573991,47.17206166187924L1363.104081,96.87364832560229L1367.6341710000002,156.62946880857154L1372.1642610000001,78.06390803058952L1376.694351,71.23260782162356L1381.224441,86.82405850291258L1384.395504,119.08165182669961L1388.925594,91.20756055911392L1393.455684,82.94759473204618L1397.985774,98.5404872993629L1402.515864,47.51221568385762L1407.045954,78.30655685067183L1411.576044,37.724880586067854L1416.1061339999999,49.87031729022664L1420.636224,86.65541401505476L1425.166314,77.5376570820809L1429.696404,72.66842669248587L1434.226494,86.9735277791819L1438.756584,92.07668076952308L1443.286674,62.500377506017685L1447.816764,69.54621912042307L1452.3468540000001,74.60911165674537L1456.876944,94.5452083746593L1461.407034,80.45183982451766L1465.937124,85.29391781489062L1469.108187,66.24637868007034L1473.638277,61.25953158736229L1478.168367,76.29430190722155L1482.698457,74.40619896849006L1487.228547,65.43888505299896L1491.758637,99.04510995745665L1496.2887269999999,50.246406108140945L1500.818817,56.734125475088774L1505.348907,128.0656316975753L1509.878997,133.11330016454065L1514.409087,97.92470833659178L1518.939177,68.36001506447798L1523.469267,96.90890899300581L1527.999357,97.4947454134624L1532.529447,49.05950919787091L1537.059537,83.58033926288294L1541.589627,129.38969503839814L1546.119717,48.477623919645964L1550.649807,69.69761715332675L1553.8208700000002,54.35095003247261L1558.35096,40.382239083449065L1562.88105,71.84980994462973L1567.41114,62.74317613244057L1571.94123,113.86314795414614L1576.4713199999999,104.62017164627719L1581.0014099999999,103.44645769397425L1585.5315,121.76397180557254L1590.06159,86.03441055615752L1594.59168,91.46631356080383L1599.12177,60.77341001232469L1603.65186,103.85490468144422L1608.18195,69.95625780026126L1612.71204,76.58133085568755L1617.24213,96.48782209555316L1621.77222,84.23085457086569L1626.30231,82.1695755024752L1630.8324,53.47570648789406L1635.36249,60.803127845128415L1638.5335530000002,97.18648141622549L1643.0636430000002,69.05369332432753L1647.5937330000002,48.84215892354649L1652.1238230000001,78.50514388084417L1656.653913,80.17104656497645L1661.184003,57.75750876466435L1665.7140930000003,56.356220255295455L1670.2441830000002,56.08525803685188L1674.774273,97.8567898869515L1679.304363,100.99952092766767L1683.834453,65.36377589901298L1688.364543,60.40584143002832L1692.8946329999999,113.13038896520936L1697.4247229999999,102.76987608273828L1701.954813,76.93564157684654L1706.484903,89.4056337177754L1711.014993,136.8857608834903L1715.545083,68.03394283850997L1720.075173,67.14931767185539L1723.2462360000002,84.1836842993896L1727.7763260000002,87.97423413395887L1732.3064160000001,57.290300240119336L1736.836506,76.7792999347052L1741.366596,97.21915792425477L1745.896686,62.32418652375543L1750.4267760000002,62.19739418228471L1754.9568660000002,59.67836311459541L1759.4869560000002,121.11630281805995L1764.0170460000002,83.63730312387156L1768.5471360000001,70.08138354619354L1773.077226,103.68865709503496L1777.607316,82.60304014881461L1782.1374060000003,127.53321996331218L1786.667496,110.33453450600314L1791.197586,54.057760298252106L1795.727676,53.98566599686944L1800.257766,53.217758695284545L1804.787856,49.74717647830647L1807.9589190000002,105.07107000549638L1812.4890090000001,55.686511009931564L1817.019099,128.6025188962619L1821.549189,66.70242663224548L1826.079279,110.04085790117585L1830.609369,87.32274508476263L1835.1394590000002,52.90672328074777L1839.6695490000002,125.98006527622545L1844.1996390000002,62.52002086242044L1848.7297290000001,80.62894837061572L1853.259819,79.19556385278707L1857.789909,57.22002234061563L1862.319999,88.1249393125376L1866.8500890000003,103.61345431208616L1871.3801790000002,115.36701635519671L1875.9102690000002,61.12285202741623L1880.4403590000002,100.41038876771933L1884.9704490000001,71.73030193646758L1889.5005390000001,67.29116555054992L1892.6716020000001,112.41193648179376L1897.201692,71.31194900472968L1901.731782,100.15549327929818L1906.261872,91.69474950432783L1910.791962,62.566236118475615L1915.3220520000002,88.5425057609877L1919.8521420000002,70.35279518365866L1924.3822320000002,71.51976785063749L1928.9123220000001,73.09222882986074L1933.442412,66.6046967208386L1937.972502,52.57628794511163L1942.502592,84.75862230857223L1947.032682,69.25263614455866L1951.5627720000002,125.0468841294448L1956.0928620000002,113.59179249405867L1960.6229520000002,93.08585118254035L1965.1530420000001,87.95365448792785L1969.6831320000001,66.51404515902209L1974.213222,77.20937521258998" style="fill: none;" fill="none"></path></g><g><path stroke="rgb(0, 153, 136)" stroke-width="2px" d="M283.130625,263.5901285807292L287.66071500000004,288.9247776667277L292.190805,320.414070447286L296.72089500000004,317.3400443394979L301.250985,309.25170040130615L305.78107500000004,295.0470631917318L310.311165,315.0072600046794L314.84125500000005,313.19040870666504L319.37134499999996,314.41103076934814L323.901435,309.4230788548788L328.43152499999997,312.44677003224695L332.961615,323.98365592956543L337.491705,313.6619990666708L342.021795,318.577444712321L346.551885,286.57581424713135L351.081975,305.7192668914795L355.61206500000003,308.17848777770996L360.142155,311.0703493754069L364.67224500000003,320.18756326039636L367.843308,310.33450063069665L372.373398,309.8143730163574L376.903488,306.7996702194214L381.433578,315.36020374298096L385.963668,302.1215178171794L390.493758,308.0778179168701L395.023848,301.25324026743573L399.553938,305.29801146189374L404.08402800000005,304.85518391927087L408.614118,303.13181177775067L413.14420800000005,310.1014019648234L417.674298,293.6862223943075L422.20438800000005,314.27800273895264L426.734478,310.901967048645L431.26456800000005,302.36240641276044L435.79465799999997,321.8330361048381L440.324748,318.3473421732585L444.854838,309.7939993540446L449.384928,306.25317668914795L452.555991,307.26347064971924L457.08608100000004,289.6432488759359L461.616171,314.1114180882772L466.14626100000004,310.0097204844157L470.67635100000007,301.8141152064006L475.206441,319.09158007303876L479.736531,322.1865790685018L484.266621,316.16915798187256L488.796711,318.3677158355713L493.326801,321.66525300343835L497.856891,297.9329325358073L502.386981,303.11862881978357L506.917071,306.12314478556317L511.447161,312.51448249816895L515.977251,310.62512493133545L520.507341,322.89186731974286L525.0374310000001,309.0132087071737L529.567521,314.13358942667645L534.097611,309.1857856114706L537.268674,319.0520311991374L541.798764,317.1698643366496L546.328854,303.5524679819743L550.8589440000001,308.1527210871379L555.389034,294.2854477564494L559.919124,318.2562599182129L564.449214,305.6275854110718L568.979304,318.1531931559245L573.5093939999999,310.93192831675213L578.039484,309.5818735758464L582.569574,302.2006155649821L587.099664,311.1116959253947L591.6297539999999,303.9509528477987L596.159844,304.21820735931396L600.689934,310.83784993489587L605.220024,312.30115826924646L609.750114,290.5061333974203L614.280204,319.1622886657715L618.810294,283.20097700754803L621.981357,307.37492656707764L626.5114470000001,300.7415018081665L631.0415370000001,302.7638874053955L635.571627,301.3041744232178L640.101717,303.65313784281415L644.6318070000001,306.9758424758911L649.1618970000001,304.2086197535197L653.691987,314.3786725997925L658.2220770000001,302.50262514750165L662.7521670000001,312.84885025024414L667.282257,307.6859245300293L671.8123469999999,312.7937215169271L676.342437,307.8608983357748L680.872527,312.7709509531657L685.402617,320.3655331929525L689.9327069999999,315.98759269714355L694.462797,324.6392084757487L698.992887,323.07882563273114L703.522977,305.16558265686035L706.69404,316.39446671803796L711.2241300000001,315.258934656779L715.75422,312.9710922241211L720.28431,314.55065027872723L724.8144000000001,304.90372117360437L729.3444900000001,304.43392848968506L733.87458,297.6770633061727L738.40467,315.59270318349206L742.9347600000001,294.3202028274536L747.4648500000001,325.1389624277751L751.99494,312.1082077026367L756.52503,325.36606884002686L761.0551200000001,320.49316819508874L765.5852100000001,326.80780506134033L770.1153,318.93757915496826L774.6453900000001,319.5152324040731L779.17548,321.6059296925863L783.70557,316.4040543238322L788.2356599999999,300.00565306345624L791.4067229999999,307.6248035430908L795.936813,320.6513636906942L800.466903,309.52314949035645L804.996993,309.0449676513672L809.5270830000001,315.17144775390625L814.057173,296.56250413258874L818.587263,301.20050843556726L823.117353,297.99884732564294L827.6474430000001,317.83500448862713L832.177533,314.1246010462443L836.707623,295.3215084075928L841.2377130000001,317.2172031402588L845.7678030000001,301.824302037557L850.297893,306.82603613535565L854.827983,308.4834934870402L859.3580730000001,317.462885538737L863.8881630000001,320.10307248433435L868.418253,324.7794272104899L872.948343,311.585683186849L876.119406,311.007430712382L880.649496,299.4891208012899L885.179586,312.5054941177368L889.709676,317.2699349721273L894.239766,310.8857879638672L898.769856,305.0990686416626L903.299946,320.7538312276205L907.830036,307.1843729019165L912.360126,316.1122315724691L916.890216,301.4821443557739L921.420306,311.9631951649984L925.9503960000001,315.7179412841797L930.480486,311.24112860361737L935.010576,317.0368363062541L939.540666,303.9509528477987L944.0707560000001,319.6662371953329L948.600846,306.8512036005656L953.130936,314.54465802510583L957.6610260000001,301.5864095687866L960.8320890000001,322.6809399922689L965.3621790000001,310.188289642334L969.892269,301.55944442749023L974.4223590000001,321.26556968688965L978.952449,318.843500773112L983.482539,304.57234954833984L988.012629,308.38102595011395L992.542719,313.397141456604L997.072809,316.09425481160486L1001.602899,304.6676263809204L1006.132989,313.87772019704187L1010.663079,307.5942430496216L1015.193169,312.68885707855225L1019.723259,310.8546282450358L1024.253349,313.0489915211996L1028.783439,320.85510031382245L1033.313529,310.9013678232829L1037.843619,297.8550332387289L1042.373709,309.757446606954L1045.544772,300.6743885676066L1050.0748620000002,309.15402666727704L1054.6049520000001,315.98699347178143L1059.135042,311.8972803751628L1063.665132,316.0936555862427L1068.195222,310.80069796244305L1072.725312,321.30272165934247L1077.255402,320.4895728429159L1081.7854920000002,316.2212905883789L1086.3155820000002,309.95638942718506L1090.845672,306.4724931716919L1095.375762,313.41751511891687L1099.9058519999999,319.62069606781006L1104.435942,301.1483758290609L1108.966032,306.33047676086426L1113.496122,319.1580940882365L1118.026212,308.4385515848796L1122.556302,320.7070916493734L1127.086392,312.2406365076701L1130.257455,316.4256264368693L1134.7875450000001,309.4925889968872L1139.317635,311.51797072092694L1143.847725,307.4702033996582L1148.377815,322.7414617538452L1152.907905,307.0944890975952L1157.437995,285.9460283915202L1161.968085,315.70116297403973L1166.4981750000002,313.27729638417566L1171.0282650000001,301.56064287821454L1175.5583550000001,306.8338260650635L1180.088445,313.6751820246379L1184.618535,308.45832602183026L1189.148625,300.9284601211548L1193.678715,309.0395746231079L1198.208805,299.2704035441081L1202.7388950000002,313.1047194798788L1207.2689850000002,297.2204535802206L1211.7990750000001,312.2676016489665L1214.970138,321.389609336853L1219.500228,315.98939037323L1224.030318,303.2097110748291L1228.560408,316.9343687693278L1233.090498,311.1110967000326L1237.620588,313.63083934783936L1242.150678,316.1122315724691L1246.680768,310.35906887054443L1251.2108580000001,306.35025119781494L1255.7409480000001,317.2657403945923L1260.271038,321.0001128514608L1264.801128,321.5058590571086L1269.331218,318.57684548695886L1273.861308,300.32863553365075L1278.391398,312.74578348795575L1282.9214880000002,317.4485041300456L1287.4515780000002,304.7161636352539L1291.9816680000001,301.0656827290853L1296.511758,298.63342698415124L1299.6828209999999,311.7133181889852L1304.212911,308.2863483428955L1308.743001,312.87701384226483L1313.273091,314.72502485911053L1317.803181,315.8707437515259L1322.333271,312.8949906031291L1326.863361,313.93944040934247L1331.393451,317.0158634185791L1335.9235410000001,309.18998018900555L1340.453631,308.6848332087199L1344.983721,318.17836062113446L1349.513811,309.67055892944336L1354.043901,310.80728944142663L1358.573991,305.85648949941003L1363.104081,313.46185779571533L1367.6341710000002,311.2854712804159L1372.1642610000001,309.7538512547811L1376.694351,298.6316293080648L1381.224441,311.07334550221765L1384.395504,317.20102405548096L1388.925594,318.65953858693445L1393.455684,321.59454441070557L1397.985774,309.8011900583903L1402.515864,321.6958134969076L1407.045954,304.5753456751506L1411.576044,307.44803206125897L1416.1061339999999,298.307448387146L1420.636224,318.61579513549805L1425.166314,302.37139479319256L1429.696404,314.07067076365155L1434.226494,311.77623685201013L1438.756584,311.52635987599695L1443.286674,328.499418258667L1447.816764,316.0211493174235L1452.3468540000001,310.2733796437582L1456.876944,316.45558770497644L1461.407034,313.8375720977783L1465.937124,317.09016736348474L1469.108187,316.1595703760783L1473.638277,308.5943501790365L1478.168367,316.2578433354696L1482.698457,325.4547541936239L1487.228547,305.4076697031657L1491.758637,307.498966217041L1496.2887269999999,299.2500298817953L1500.818817,330.3576161066691L1505.348907,308.7543433507284L1509.878997,309.352370262146L1514.409087,299.79592418670654L1518.939177,311.53295135498047L1523.469267,307.95377826690674L1527.999357,313.35879103342694L1532.529447,321.5843575795492L1537.059537,306.5138397216797L1541.589627,297.6027593612671L1546.119717,294.51075649261475L1550.649807,316.2290805180868L1553.8208700000002,294.9955298105876L1558.35096,321.2787526448568L1562.88105,321.1786820093791L1567.41114,316.7953484853109L1571.94123,301.9303649266561L1576.4713199999999,310.6227280298869L1581.0014099999999,314.96291732788086L1585.5315,306.2298069000244L1590.06159,307.98254108428955L1594.59168,305.7821855545044L1599.12177,326.0467888514201L1603.65186,312.31374200185144L1608.18195,304.9828189214071L1612.71204,309.841937383016L1617.24213,292.0143836339315L1621.77222,322.2123457590739L1626.30231,313.3204406102499L1630.8324,312.6942501068115L1635.36249,296.6212282180786L1638.5335530000002,318.86806901295984L1643.0636430000002,304.95645300547284L1647.5937330000002,311.14225641886395L1652.1238230000001,301.58820724487305L1656.653913,318.4306344985962L1661.184003,305.8235321044922L1665.7140930000003,310.08222675323486L1670.2441830000002,304.9588499069214L1674.774273,311.8445485432943L1679.304363,299.789332707723L1683.834453,309.63640308380127L1688.364543,317.98900540669763L1692.8946329999999,302.36420408884686L1697.4247229999999,304.6903969446818L1701.954813,317.86975955963135L1706.484903,319.99760882059735L1711.014993,318.3305638631185L1715.545083,307.2838443120321L1720.075173,316.53348700205487L1723.2462360000002,303.1971273422241L1727.7763260000002,320.1827694574992L1732.3064160000001,303.1342086791992L1736.836506,312.1837100982666L1741.366596,308.8993558883667L1745.896686,316.37169615427655L1750.4267760000002,309.2277313868205L1754.9568660000002,330.86276308695477L1759.4869560000002,303.6159858703613L1764.0170460000002,314.81790479024255L1768.5471360000001,320.1677888234457L1773.077226,304.7856737772624L1777.607316,314.1281963984172L1782.1374060000003,312.11240228017175L1786.667496,321.05763848622644L1791.197586,305.7923723856608L1795.727676,316.9739176432292L1800.257766,316.95773855845135L1804.787856,321.2044486999512L1807.9589190000002,314.0095497767131L1812.4890090000001,316.86725552876794L1817.019099,307.0591348012289L1821.549189,314.2360569636027L1826.079279,319.20902824401855L1830.609369,316.46277840932214L1835.1394590000002,303.1449947357178L1839.6695490000002,300.135684967041L1844.1996390000002,317.48925145467126L1848.7297290000001,297.4577468236288L1853.259819,295.29334481557214L1857.789909,328.6246563593547L1862.319999,304.7227551142375L1866.8500890000003,313.51758575439453L1871.3801790000002,313.53915786743164L1875.9102690000002,319.5326099395752L1880.4403590000002,326.97618738810223L1884.9704490000001,306.2495813369751L1889.5005390000001,315.0216414133708L1892.6716020000001,306.9410874048869L1897.201692,315.4494883219401L1901.731782,314.2552321751913L1906.261872,292.52372519175213L1910.791962,309.9827553431193L1915.3220520000002,296.35277525583905L1919.8521420000002,311.97398122151696L1924.3822320000002,291.86098194122314L1928.9123220000001,321.8132616678874L1933.442412,304.9252932866415L1937.972502,313.5295702616374L1942.502592,315.056396484375L1947.032682,311.48980712890625L1951.5627720000002,313.83517519632977L1956.0928620000002,305.3579339981079L1960.6229520000002,305.11644617716473L1965.1530420000001,309.626815478007L1969.6831320000001,325.47692553202313L1974.213222,309.86470794677734" style="fill: none;" fill="none"></path></g></g></g></g></g></g><g transform="translate(48, 377)" clip-path="url(#clip_1)"><clipPath id="clip_1"><rect width="2265" height="22"></rect></clipPath><g><g><line x1="0" y1="0" x2="0" y2="5" style="visibility: inherit;" fill="rgb(0, 0, 0)" stroke="rgb(204, 204, 204)" stroke-width="1px"></line><line x1="283.130625" y1="0" x2="283.130625" y2="5" style="visibility: inherit;" fill="rgb(0, 0, 0)" stroke="rgb(204, 204, 204)" stroke-width="1px"></line><line x1="566.26125" y1="0" x2="566.26125" y2="5" style="visibility: inherit;" fill="rgb(0, 0, 0)" stroke="rgb(204, 204, 204)" stroke-width="1px"></line><line x1="849.391875" y1="0" x2="849.391875" y2="5" style="visibility: inherit;" fill="rgb(0, 0, 0)" stroke="rgb(204, 204, 204)" stroke-width="1px"></line><line x1="1132.5225" y1="0" x2="1132.5225" y2="5" style="visibility: inherit;" fill="rgb(0, 0, 0)" stroke="rgb(204, 204, 204)" stroke-width="1px"></line><line x1="1415.653125" y1="0" x2="1415.653125" y2="5" style="visibility: inherit;" fill="rgb(0, 0, 0)" stroke="rgb(204, 204, 204)" stroke-width="1px"></line><line x1="1698.78375" y1="0" x2="1698.78375" y2="5" style="visibility: inherit;" fill="rgb(0, 0, 0)" stroke="rgb(204, 204, 204)" stroke-width="1px"></line><line x1="1981.914375" y1="0" x2="1981.914375" y2="5" style="visibility: inherit;" fill="rgb(0, 0, 0)" stroke="rgb(204, 204, 204)" stroke-width="1px"></line><line x1="2265.045" y1="0" x2="2265.045" y2="5" style="visibility: inherit;" fill="rgb(0, 0, 0)" stroke="rgb(204, 204, 204)" stroke-width="1px"></line></g><g transform="translate(0, 8)"><text x="0" y="0" dx="0em" dy="0.95em" style="text-anchor: middle; visibility: hidden; font-family: &quot;Helvetica Neue&quot;, sans-serif; font-size: 12px; font-weight: 200;" fill="rgb(50, 49, 63)" stroke="none" stroke-width="1px">-5k</text><text x="283.130625" y="0" dx="0em" dy="0.95em" style="text-anchor: middle; visibility: inherit; font-family: &quot;Helvetica Neue&quot;, sans-serif; font-size: 12px; font-weight: 200;" fill="rgb(50, 49, 63)" stroke="none" stroke-width="1px">0</text><text x="566.26125" y="0" dx="0em" dy="0.95em" style="text-anchor: middle; visibility: inherit; font-family: &quot;Helvetica Neue&quot;, sans-serif; font-size: 12px; font-weight: 200;" fill="rgb(50, 49, 63)" stroke="none" stroke-width="1px">5k</text><text x="849.391875" y="0" dx="0em" dy="0.95em" style="text-anchor: middle; visibility: inherit; font-family: &quot;Helvetica Neue&quot;, sans-serif; font-size: 12px; font-weight: 200;" fill="rgb(50, 49, 63)" stroke="none" stroke-width="1px">10k</text><text x="1132.5225" y="0" dx="0em" dy="0.95em" style="text-anchor: middle; visibility: inherit; font-family: &quot;Helvetica Neue&quot;, sans-serif; font-size: 12px; font-weight: 200;" fill="rgb(50, 49, 63)" stroke="none" stroke-width="1px">15k</text><text x="1415.653125" y="0" dx="0em" dy="0.95em" style="text-anchor: middle; visibility: inherit; font-family: &quot;Helvetica Neue&quot;, sans-serif; font-size: 12px; font-weight: 200;" fill="rgb(50, 49, 63)" stroke="none" stroke-width="1px">20k</text><text x="1698.78375" y="0" dx="0em" dy="0.95em" style="text-anchor: middle; visibility: inherit; font-family: &quot;Helvetica Neue&quot;, sans-serif; font-size: 12px; font-weight: 200;" fill="rgb(50, 49, 63)" stroke="none" stroke-width="1px">25k</text><text x="1981.914375" y="0" dx="0em" dy="0.95em" style="text-anchor: middle; visibility: inherit; font-family: &quot;Helvetica Neue&quot;, sans-serif; font-size: 12px; font-weight: 200;" fill="rgb(50, 49, 63)" stroke="none" stroke-width="1px">30k</text><text x="2265.045" y="0" dx="0em" dy="0.95em" style="text-anchor: middle; visibility: hidden; font-family: &quot;Helvetica Neue&quot;, sans-serif; font-size: 12px; font-weight: 200;" fill="rgb(50, 49, 63)" stroke="none" stroke-width="1px">35k</text></g><line x1="0" y1="0" x2="2265.045" y2="0" fill="rgb(0, 0, 0)" stroke="rgb(204, 204, 204)" stroke-width="1px"></line></g></g></g></g></svg>