<svg viewBox="0 0 2327.556640625 400" xmlns="http://www.w3.org/2000/svg"><g><g><g><g><g><line x1="48.875" y1="377" x2="43.875" y2="377" style="visibility: inherit;" fill="rgb(0, 0, 0)" stroke="rgb(204, 204, 204)" stroke-width="1px"></line><line x1="48.875" y1="348" x2="43.875" y2="348" style="visibility: inherit;" fill="rgb(0, 0, 0)" stroke="rgb(204, 204, 204)" stroke-width="1px"></line><line x1="48.875" y1="319" x2="43.875" y2="319" style="visibility: inherit;" fill="rgb(0, 0, 0)" stroke="rgb(204, 204, 204)" stroke-width="1px"></line><line x1="48.875" y1="290" x2="43.875" y2="290" style="visibility: inherit;" fill="rgb(0, 0, 0)" stroke="rgb(204, 204, 204)" stroke-width="1px"></line><line x1="48.875" y1="261" x2="43.875" y2="261" style="visibility: inherit;" fill="rgb(0, 0, 0)" stroke="rgb(204, 204, 204)" stroke-width="1px"></line><line x1="48.875" y1="232" x2="43.875" y2="232" style="visibility: inherit;" fill="rgb(0, 0, 0)" stroke="rgb(204, 204, 204)" stroke-width="1px"></line><line x1="48.875" y1="203" x2="43.875" y2="203" style="visibility: inherit;" fill="rgb(0, 0, 0)" stroke="rgb(204, 204, 204)" stroke-width="1px"></line><line x1="48.875" y1="174" x2="43.875" y2="174" style="visibility: inherit;" fill="rgb(0, 0, 0)" stroke="rgb(204, 204, 204)" stroke-width="1px"></line><line x1="48.875" y1="145.00000000000003" x2="43.875" y2="145.00000000000003" style="visibility: inherit;" fill="rgb(0, 0, 0)" stroke="rgb(204, 204, 204)" stroke-width="1px"></line><line x1="48.875" y1="116" x2="43.875" y2="116" style="visibility: inherit;" fill="rgb(0, 0, 0)" stroke="rgb(204, 204, 204)" stroke-width="1px"></line><line x1="48.875" y1="87" x2="43.875" y2="87" style="visibility: inherit;" fill="rgb(0, 0, 0)" stroke="rgb(204, 204, 204)" stroke-width="1px"></line><line x1="48.875" y1="58" x2="43.875" y2="58" style="visibility: inherit;" fill="rgb(0, 0, 0)" stroke="rgb(204, 204, 204)" stroke-width="1px"></line><line x1="48.875" y1="29" x2="43.875" y2="29" style="visibility: inherit;" fill="rgb(0, 0, 0)" stroke="rgb(204, 204, 204)" stroke-width="1px"></line><line x1="48.875" y1="0" x2="43.875" y2="0" style="visibility: inherit;" fill="rgb(0, 0, 0)" stroke="rgb(204, 204, 204)" stroke-width="1px"></line></g><g transform="translate(38.875, 0)"><text x="0" y="377" dx="0em" dy="0.3em" style="text-anchor: end; visibility: hidden; font-family: &quot;Helvetica Neue&quot;, sans-serif; font-size: 12px; font-weight: 200;" fill="rgb(50, 49, 63)" stroke="none" stroke-width="1px">-0.1</text><text x="0" y="348" dx="0em" dy="0.3em" style="text-anchor: end; visibility: inherit; font-family: &quot;Helvetica Neue&quot;, sans-serif; font-size: 12px; font-weight: 200;" fill="rgb(50, 49, 63)" stroke="none" stroke-width="1px">0</text><text x="0" y="319" dx="0em" dy="0.3em" style="text-anchor: end; visibility: inherit; font-family: &quot;Helvetica Neue&quot;, sans-serif; font-size: 12px; font-weight: 200;" fill="rgb(50, 49, 63)" stroke="none" stroke-width="1px">0.1</text><text x="0" y="290" dx="0em" dy="0.3em" style="text-anchor: end; visibility: inherit; font-family: &quot;Helvetica Neue&quot;, sans-serif; font-size: 12px; font-weight: 200;" fill="rgb(50, 49, 63)" stroke="none" stroke-width="1px">0.2</text><text x="0" y="261" dx="0em" dy="0.3em" style="text-anchor: end; visibility: inherit; font-family: &quot;Helvetica Neue&quot;, sans-serif; font-size: 12px; font-weight: 200;" fill="rgb(50, 49, 63)" stroke="none" stroke-width="1px">0.3</text><text x="0" y="232" dx="0em" dy="0.3em" style="text-anchor: end; visibility: inherit; font-family: &quot;Helvetica Neue&quot;, sans-serif; font-size: 12px; font-weight: 200;" fill="rgb(50, 49, 63)" stroke="none" stroke-width="1px">0.4</text><text x="0" y="203" dx="0em" dy="0.3em" style="text-anchor: end; visibility: inherit; font-family: &quot;Helvetica Neue&quot;, sans-serif; font-size: 12px; font-weight: 200;" fill="rgb(50, 49, 63)" stroke="none" stroke-width="1px">0.5</text><text x="0" y="174" dx="0em" dy="0.3em" style="text-anchor: end; visibility: inherit; font-family: &quot;Helvetica Neue&quot;, sans-serif; font-size: 12px; font-weight: 200;" fill="rgb(50, 49, 63)" stroke="none" stroke-width="1px">0.6</text><text x="0" y="145.00000000000003" dx="0em" dy="0.3em" style="text-anchor: end; visibility: inherit; font-family: &quot;Helvetica Neue&quot;, sans-serif; font-size: 12px; font-weight: 200;" fill="rgb(50, 49, 63)" stroke="none" stroke-width="1px">0.7</text><text x="0" y="116" dx="0em" dy="0.3em" style="text-anchor: end; visibility: inherit; font-family: &quot;Helvetica Neue&quot;, sans-serif; font-size: 12px; font-weight: 200;" fill="rgb(50, 49, 63)" stroke="none" stroke-width="1px">0.8</text><text x="0" y="87" dx="0em" dy="0.3em" style="text-anchor: end; visibility: inherit; font-family: &quot;Helvetica Neue&quot;, sans-serif; font-size: 12px; font-weight: 200;" fill="rgb(50, 49, 63)" stroke="none" stroke-width="1px">0.9</text><text x="0" y="58" dx="0em" dy="0.3em" style="text-anchor: end; visibility: inherit; font-family: &quot;Helvetica Neue&quot;, sans-serif; font-size: 12px; font-weight: 200;" fill="rgb(50, 49, 63)" stroke="none" stroke-width="1px">1</text><text x="0" y="29" dx="0em" dy="0.3em" style="text-anchor: end; visibility: inherit; font-family: &quot;Helvetica Neue&quot;, sans-serif; font-size: 12px; font-weight: 200;" fill="rgb(50, 49, 63)" stroke="none" stroke-width="1px">1.1</text><text x="0" y="0" dx="0em" dy="0.3em" style="text-anchor: end; visibility: hidden; font-family: &quot;Helvetica Neue&quot;, sans-serif; font-size: 12px; font-weight: 200;" fill="rgb(50, 49, 63)" stroke="none" stroke-width="1px">1.2</text></g><line x1="48.875" y1="0" x2="48.875" y2="377" fill="rgb(0, 0, 0)" stroke="rgb(204, 204, 204)" stroke-width="1px"></line></g></g><g transform="translate(48, 0)" clip-path="url(#clip_0)"><clipPath id="clip_0"><rect width="2278" height="376"></rect></clipPath><g><g><g><line x1="0" y1="0" x2="0" y2="377" fill="rgb(0, 0, 0)" stroke="rgb(60, 60, 60)" stroke-width="1px" opacity="0.25"></line><line x1="162.76321428571427" y1="0" x2="162.76321428571427" y2="377" fill="rgb(0, 0, 0)" stroke="rgb(60, 60, 60)" stroke-width="1px" opacity="0.25"></line><line x1="325.52642857142854" y1="0" x2="325.52642857142854" y2="377" fill="rgb(0, 0, 0)" stroke="rgb(60, 60, 60)" stroke-width="1px" opacity="0.25"></line><line x1="488.28964285714284" y1="0" x2="488.28964285714284" y2="377" fill="rgb(0, 0, 0)" stroke="rgb(60, 60, 60)" stroke-width="1px" opacity="0.25"></line><line x1="651.0528571428571" y1="0" x2="651.0528571428571" y2="377" fill="rgb(0, 0, 0)" stroke="rgb(60, 60, 60)" stroke-width="1px" opacity="0.25"></line><line x1="813.8160714285714" y1="0" x2="813.8160714285714" y2="377" fill="rgb(0, 0, 0)" stroke="rgb(60, 60, 60)" stroke-width="1px" opacity="0.25"></line><line x1="976.5792857142857" y1="0" x2="976.5792857142857" y2="377" fill="rgb(0, 0, 0)" stroke="rgb(60, 60, 60)" stroke-width="1px" opacity="0.25"></line><line x1="1139.3425" y1="0" x2="1139.3425" y2="377" fill="rgb(0, 0, 0)" stroke="rgb(60, 60, 60)" stroke-width="1px" opacity="0.25"></line><line x1="1302.1057142857142" y1="0" x2="1302.1057142857142" y2="377" fill="rgb(0, 0, 0)" stroke="rgb(60, 60, 60)" stroke-width="1px" opacity="0.25"></line><line x1="1464.8689285714286" y1="0" x2="1464.8689285714286" y2="377" fill="rgb(0, 0, 0)" stroke="rgb(60, 60, 60)" stroke-width="1px" opacity="0.25"></line><line x1="1627.6321428571428" y1="0" x2="1627.6321428571428" y2="377" fill="rgb(0, 0, 0)" stroke="rgb(60, 60, 60)" stroke-width="1px" opacity="0.25"></line><line x1="1790.3953571428572" y1="0" x2="1790.3953571428572" y2="377" fill="rgb(0, 0, 0)" stroke="rgb(60, 60, 60)" stroke-width="1px" opacity="0.25"></line><line x1="1953.1585714285713" y1="0" x2="1953.1585714285713" y2="377" fill="rgb(0, 0, 0)" stroke="rgb(60, 60, 60)" stroke-width="1px" opacity="0.25"></line><line x1="2115.9217857142858" y1="0" x2="2115.9217857142858" y2="377" fill="rgb(0, 0, 0)" stroke="rgb(60, 60, 60)" stroke-width="1px" opacity="0.25"></line><line x1="2278.685" y1="0" x2="2278.685" y2="377" fill="rgb(0, 0, 0)" stroke="rgb(60, 60, 60)" stroke-width="1px" opacity="0.25"></line></g><g><line x1="0" y1="377" x2="2278.685" y2="377" fill="rgb(0, 0, 0)" stroke="rgb(60, 60, 60)" stroke-width="1px" opacity="0.25"></line><line x1="0" y1="348" x2="2278.685" y2="348" fill="rgb(0, 0, 0)" stroke="rgb(60, 60, 60)" stroke-width="1px" opacity="0.25"></line><line x1="0" y1="319" x2="2278.685" y2="319" fill="rgb(0, 0, 0)" stroke="rgb(60, 60, 60)" stroke-width="1px" opacity="0.25"></line><line x1="0" y1="290" x2="2278.685" y2="290" fill="rgb(0, 0, 0)" stroke="rgb(60, 60, 60)" stroke-width="1px" opacity="0.25"></line><line x1="0" y1="261" x2="2278.685" y2="261" fill="rgb(0, 0, 0)" stroke="rgb(60, 60, 60)" stroke-width="1px" opacity="0.25"></line><line x1="0" y1="232" x2="2278.685" y2="232" fill="rgb(0, 0, 0)" stroke="rgb(60, 60, 60)" stroke-width="1px" opacity="0.25"></line><line x1="0" y1="203" x2="2278.685" y2="203" fill="rgb(0, 0, 0)" stroke="rgb(60, 60, 60)" stroke-width="1px" opacity="0.25"></line><line x1="0" y1="174" x2="2278.685" y2="174" fill="rgb(0, 0, 0)" stroke="rgb(60, 60, 60)" stroke-width="1px" opacity="0.25"></line><line x1="0" y1="145.00000000000003" x2="2278.685" y2="145.00000000000003" fill="rgb(0, 0, 0)" stroke="rgb(60, 60, 60)" stroke-width="1px" opacity="0.25"></line><line x1="0" y1="116" x2="2278.685" y2="116" fill="rgb(0, 0, 0)" stroke="rgb(60, 60, 60)" stroke-width="1px" opacity="0.25"></line><line x1="0" y1="87" x2="2278.685" y2="87" fill="rgb(0, 0, 0)" stroke="rgb(60, 60, 60)" stroke-width="1px" opacity="0.25"></line><line x1="0" y1="58" x2="2278.685" y2="58" fill="rgb(0, 0, 0)" stroke="rgb(60, 60, 60)" stroke-width="1px" opacity="0.25"></line><line x1="0" y1="29" x2="2278.685" y2="29" fill="rgb(0, 0, 0)" stroke="rgb(60, 60, 60)" stroke-width="1px" opacity="0.25"></line><line x1="0" y1="0" x2="2278.685" y2="0" fill="rgb(0, 0, 0)" stroke="rgb(60, 60, 60)" stroke-width="1px" opacity="0.25"></line></g></g></g><g><g><line x1="0" y1="348" x2="2278.685" y2="348" fill="rgb(0, 0, 0)" stroke="rgb(153, 153, 153)" stroke-width="1.5px"></line></g></g><g><g><line x1="162.76321428571427" y1="0" x2="162.76321428571427" y2="377" fill="rgb(0, 0, 0)" stroke="rgb(153, 153, 153)" stroke-width="1.5px"></line></g></g><g><g><g><g><g><path stroke="rgb(255, 112, 67)" stroke-width="2px" d="M162.76321428571427,316.0452963709831L175.7842714285714,180.15871569042972L188.80532857142856,137.70390522440434L201.8263857142857,117.65153381844658L214.84744285714288,109.43049724770384L227.8685,103.04540332632229L240.88955714285714,101.75481106107242L253.91061428571427,101.99005333126217L266.9316714285714,100.41256728767007L279.95272857142857,97.51692652911544L283.8590457142857,95.50010399464492L296.88010285714284,90.31886317385681L309.90116,90.05458771388584L322.9222171428571,90.49823046133451L335.9432742857143,90.02436499963255L348.9643314285714,92.21140213279045L361.9853885714286,87.70125842057286L375.0064457142857,83.7180671747281L388.02750285714285,89.46523620080734L401.04855999999995,92.32532047675164L404.95487714285713,87.66067510307863L417.9759342857143,84.90179733812954L430.9969914285714,85.28455552967716L444.0180485714286,88.29318639163745L457.0391057142857,89.14680311998205L470.06016285714287,90.38825365114212L483.08122,88.04867279221179L496.10227714285713,87.79689689165366L509.12333428571424,90.92636179499351L522.1443914285715,88.31305196920397L526.0507085714286,83.91042508806999L539.0717657142857,83.88911036803478L552.0928228571429,85.62471329425142L565.11388,85.20810893767299L578.1349371428572,84.34315490430743L591.1559942857143,86.30804896062978L604.1770514285714,85.8430000215522L617.1981085714285,84.06612807548373L630.2191657142857,84.05357491211419L643.2402228571428,85.27288738456383L647.14654,83.35642287046852L660.1675971428571,85.40516232603278L673.1886542857143,85.8760618957055L686.2097114285715,82.33178334116724L699.2307685714286,86.43310449256234L712.2518257142857,86.18351449765419L725.2728828571428,85.82578982354619L738.29394,83.8143956397762L751.3149971428571,82.08424133851139L764.3360542857142,83.42887859150801L768.2423714285713,81.041547319514L781.2634285714286,81.79360281906764L794.2844857142858,80.45581622446616L807.3055428571428,79.03880063630896L820.3266,82.02890788591395L833.3476571428571,83.44099775817409L846.3687142857143,84.42146124852627L859.3897714285715,83.54933450504728L872.4108285714285,81.32357177122634L885.4318857142857,81.94625488671272L889.3382028571428,79.86386707275369L902.3592600000001,87.83988174732218L915.380317142857,88.03570504096825L928.4013742857143,84.1669771290862L941.4224314285714,86.1840415283292L954.4434885714286,81.85468878920841L967.4645457142856,80.64750058329258L980.4856028571428,83.36600614147403L993.50666,80.12685496615461L1006.5277171428571,80.00376530364929L1010.4340342857143,81.49290187611768L1023.4550914285713,81.39137864404506L1036.4761485714284,82.32499404289644L1049.4972057142857,80.30452788106192L1062.5182628571429,80.9366804158143L1075.5393199999999,80.68842750209632L1088.560377142857,81.34079053586868L1101.5814342857143,81.48860259092754L1114.6024914285715,81.32781799098905L1127.6235485714285,81.15855107436767L1131.5298657142857,79.57261444144262L1144.550922857143,77.69012148680235L1157.57198,77.61829145768144L1170.593037142857,77.01829824500498L1183.6140942857144,76.71626940332754L1196.6351514285714,79.41226398647831L1209.6562085714284,76.90765879708925L1222.6772657142858,76.96204633956194L1235.6983228571428,77.08734603916577L1248.71938,78.26753113767182L1252.625697142857,79.77198367751214L1265.6467542857142,81.6879000590547L1278.6678114285714,77.57366765617724L1291.6888685714284,82.48600991047078L1304.7099257142859,80.53758925673498L1317.7309828571429,80.08571186594634L1330.7520399999999,77.34015643898312L1343.7730971428573,77.46315828963981L1356.7941542857143,75.6110098086537L1369.8152114285713,75.6876900948327L1373.7215285714285,74.5972288877195L1386.7425857142857,75.47075399098088L1399.763642857143,73.87073422825773L1412.7847,74.04544841971864L1425.805757142857,75.90784791124389L1438.8268142857144,74.73938812637113L1451.8478714285714,75.21120946425668L1464.8689285714286,74.97983437007417L1477.8899857142858,74.00123729458699L1490.9110428571428,73.38667207809317L1494.81736,72.78373617373177L1507.838417142857,73.97500450531675L1520.8594742857144,74.03966300319775L1533.8805314285714,75.10786607867902L1546.9015885714284,74.9364831230194L1559.9226457142859,73.51817570449776L1572.9437028571429,72.08286754548186L1585.9647599999998,75.32687311218183L1598.985817142857,74.64357284833034L1612.0068742857143,79.38509813120424L1615.9131914285715,83.69830962243168L1628.9342485714285,81.25347954277163L1641.9553057142855,78.92638095423598L1654.976362857143,79.32075052563067L1667.99742,76.81147462143207L1681.0184771428571,76.84699000684026L1694.0395342857144,74.6656808995316L1707.0605914285713,73.80485199780458L1720.0816485714286,73.98968291321131L1733.1027057142855,74.53316969683908L1737.0090228571428,74.59308246655081L1750.03008,74.01422152350193L1763.051137142857,73.15758688472039L1776.0721942857144,72.2228456611519L1789.0932514285714,73.85141009855613L1802.1143085714284,74.17344695036223L1815.1353657142856,76.30848026385837L1828.1564228571428,78.44402550703052L1841.17748,76.6173227769442L1854.198537142857,75.40170790999713L1858.104854285714,75.12735925107154L1871.1259114285715,74.26041502660769L1884.1469685714285,75.79794253473767L1897.1680257142855,76.45878486626606L1910.189082857143,77.3019377785929L1923.21014,76.0300157940589L1936.2311971428571,74.28628226588359L1949.2522542857143,74.79044328711035L1962.2733114285713,78.45446808387538L1975.2943685714285,75.34984619408885L1979.2006857142856,76.43947540120303L1992.221742857143,76.59321645704517L2005.2428,75.05880733805037L2018.263857142857,75.60488092925618L2031.2849142857142,76.30769047695952L2044.3059714285714,74.97162790553318L2057.3270285714284,75.86746511859735L2070.348085714286,74.50592854432398L2083.369142857143,75.51079070666736L2096.3902,74.02140282330532L2100.2965171428573,73.17262684097955L2113.3175742857143,72.71592875044081L2126.3386314285713,71.84939389920328L2139.3596885714283,71.07250446999836L2152.3807457142857,73.80165762001536L2165.4018028571427,73.45438325866343L2178.4228599999997,72.16493823648949L2191.443917142857,71.78860891715232L2204.464974285714,71.05312062203626L2217.4860314285716,70.79919980043883" style="fill: none;" fill="none"></path></g><g><path stroke="rgb(187, 187, 187)" stroke-width="2px" d="M162.76321428571427,188.05370616912845L175.7842714285714,129.61597211524924L188.80532857142856,110.962022658254L201.8263857142857,98.27219376838605L214.84744285714288,94.05984540515738L227.8685,91.03178853320844L240.88955714285714,85.81591465340318L253.91061428571427,81.21017603044044L266.9316714285714,83.72260651011834L279.95272857142857,82.77974701907749L283.8590457142857,82.3983835955612L296.88010285714284,82.63347358519707L309.90116,79.86573523467939L322.9222171428571,75.81806494724378L335.9432742857143,72.64701720694416L348.9643314285714,71.46892925946946L361.9853885714286,74.31963348415059L375.0064457142857,75.32577165625611L388.02750285714285,74.58965585405127L401.04855999999995,73.70927717033715L404.95487714285713,76.1831085259426L417.9759342857143,74.96492640581556L430.9969914285714,75.18833911523308L444.0180485714286,76.53945637390393L457.0391057142857,76.0706850565183L470.06016285714287,76.63200496458649L483.08122,78.71392790844948L496.10227714285713,78.28726343364781L509.12333428571424,77.93019154346581L522.1443914285715,74.91342053053035L526.0507085714286,74.99796974660956L539.0717657142857,74.10641661410574L552.0928228571429,71.42531936826288L565.11388,71.20411473020414L578.1349371428572,68.60852490795492L591.1559942857143,67.976141315208L604.1770514285714,68.90313068247372L617.1981085714285,71.57944469918357L630.2191657142857,68.78726606396839L643.2402228571428,67.28270040215824L647.14654,67.30680991280406L660.1675971428571,66.15853349943836L673.1886542857143,66.88047385785609L686.2097114285715,69.7801216372128L699.2307685714286,71.51943102148698L712.2518257142857,69.69893471554337L725.2728828571428,70.06169769768451L738.29394,70.02650148838279L751.3149971428571,74.87758997811005L764.3360542857142,72.29898520246377L768.2423714285713,71.59769810138897L781.2634285714286,70.37642226389204L794.2844857142858,69.84191688060355L807.3055428571428,68.13060317608114L820.3266,68.75791610532315L833.3476571428571,69.75332909087564L846.3687142857143,74.99379185890132L859.3897714285715,72.48438282622931L872.4108285714285,73.4614053800035L885.4318857142857,71.2597249790428L889.3382028571428,70.80865568154672L902.3592600000001,72.08695479489131L915.380317142857,71.02552107353631L928.4013742857143,68.56894912238982L941.4224314285714,71.61931771759117L954.4434885714286,71.70498696504069L967.4645457142856,70.339665311474L980.4856028571428,70.1109253203266L993.50666,70.29911449798482L1006.5277171428571,70.37198706981877L1010.4340342857143,69.92176449734126L1023.4550914285713,70.75410408790702L1036.4761485714284,70.3493760912205L1049.4972057142857,74.07645283721308L1062.5182628571429,72.15114304222419L1075.5393199999999,72.91152385651446L1088.560377142857,70.5586339746418L1101.5814342857143,71.51872679860145L1114.6024914285715,69.57761624521686L1127.6235485714285,68.8900609276464L1131.5298657142857,70.125336078992L1144.550922857143,68.90115967997048L1157.57198,72.6741874052023L1170.593037142857,71.9168376282937L1183.6140942857144,69.56430980859352L1196.6351514285714,67.62035072733954L1209.6562085714284,67.14240506625066L1222.6772657142858,66.27375692032228L1235.6983228571428,67.04218634817624L1248.71938,67.14280935325615L1252.625697142857,68.91288051210915L1265.6467542857142,67.741506489946L1278.6678114285714,68.23691980848344L1291.6888685714284,74.24705387270012L1304.7099257142859,72.03050057603923L1317.7309828571429,70.99155946048415L1330.7520399999999,69.69975994533394L1343.7730971428573,69.67975855621467L1356.7941542857143,67.74673049449615L1369.8152114285713,67.46123037831569L1373.7215285714285,67.41876469693284L1386.7425857142857,68.79990592606691L1399.763642857143,68.84746364566178L1412.7847,67.59875879498878L1425.805757142857,67.04717051770882L1438.8268142857144,66.62814829165148L1451.8478714285714,66.75291315352422L1464.8689285714286,67.1421566217391L1477.8899857142858,67.80691956701708L1490.9110428571428,67.94762957794671L1494.81736,66.64076368523587L1507.838417142857,65.43147264511958L1520.8594742857144,67.43706436738069L1533.8805314285714,68.4437418780036L1546.9015885714284,68.56198136736117L1559.9226457142859,69.15981268790506L1572.9437028571429,69.7683991871566L1585.9647599999998,68.85729204482692L1598.985817142857,68.44136047611306L1612.0068742857143,67.35223817045505L1615.9131914285715,73.49558573831843L1628.9342485714285,72.71578002177353L1641.9553057142855,71.03487114034175L1654.976362857143,69.58549120105681L1667.99742,68.00950920049593L1681.0184771428571,66.94459872397215L1694.0395342857144,67.70366907790958L1707.0605914285713,67.85112010484573L1720.0816485714286,66.23454948833574L1733.1027057142855,66.17634378584489L1737.0090228571428,66.03330707523526L1750.03008,67.45070997326849L1763.051137142857,66.65060303658197L1776.0721942857144,65.31721947063022L1789.0932514285714,65.89950700499395L1802.1143085714284,65.58671010117081L1815.1353657142856,67.2236204768302L1828.1564228571428,66.5779671336594L1841.17748,67.87265383762451L1854.198537142857,69.31083466141621L1858.104854285714,68.48571406571028L1871.1259114285715,68.071760430697L1884.1469685714285,66.92536940708669L1897.1680257142855,65.56986588693633L1910.189082857143,68.41786570420197L1923.21014,68.19667586255372L1936.2311971428571,71.01650088686125L1949.2522542857143,69.54586243552484L1962.2733114285713,69.63362747424532L1975.2943685714285,69.55565784336704L1979.2006857142856,67.48968787132765L1992.221742857143,68.2267166224766L2005.2428,68.25663702225705L2018.263857142857,68.34830865466341L2031.2849142857142,69.36703490217349L2044.3059714285714,68.15737421888986L2057.3270285714284,67.16937165173681L2070.348085714286,66.54494163981747L2083.369142857143,65.39620542291556L2096.3902,64.56270164122571L2100.2965171428573,64.93111235844236L2113.3175742857143,65.05361204264511L2126.3386314285713,64.95387965837602L2139.3596885714283,64.60138426111178L2152.3807457142857,64.68200291115159L2165.4018028571427,64.67428471942344L2178.4228599999997,65.14789989022432L2191.443917142857,65.25344390235387L2204.464974285714,65.27507518593455L2217.4860314285716,65.03990086050487" style="fill: none;" fill="none"></path></g><g><path stroke="rgb(0, 119, 187)" stroke-width="2px" d="M162.76321428571427,284.52295112609863L175.7842714285714,315.27115472438123L188.80532857142856,324.28845432028146L201.8263857142857,329.57068629642947L214.84744285714288,332.45786915954056L227.8685,334.7689997076369L240.88955714285714,335.3017295441143L253.91061428571427,334.4252754174469L266.9316714285714,334.0216241342314L279.95272857142857,335.4847720248695L283.8590457142857,336.6215901572982L296.88010285714284,337.0601525521781L309.90116,337.2695369837029L322.9222171428571,338.3561162979106L335.9432742857143,338.6086583690249L348.9643314285714,338.5977901720517L361.9853885714286,338.6986113958982L375.0064457142857,339.2894292704509L388.02750285714285,338.2917676954699L401.04855999999995,337.71466045614056L404.95487714285713,338.5376425193408L417.9759342857143,339.40575732093725L430.9969914285714,339.7963350826155L444.0180485714286,339.0986508480178L457.0391057142857,339.31081410950753L470.06016285714287,338.9422298199773L483.08122,339.3208989523559L496.10227714285713,339.37694390707685L509.12333428571424,338.6822214669115L522.1443914285715,339.1895581207723L526.0507085714286,340.2619079618147L539.0717657142857,340.70227308522567L552.0928228571429,340.8799795156518L565.11388,340.6626130800405L578.1349371428572,340.95182274908154L591.1559942857143,341.2066549397352L604.1770514285714,340.77551183108125L617.1981085714285,340.6293230347299L630.2191657142857,340.26388047968794L643.2402228571428,340.19864392388786L647.14654,340.84646047786214L660.1675971428571,340.5541088657575L673.1886542857143,340.3522300803353L686.2097114285715,340.73903937733957L699.2307685714286,339.6063117440387L712.2518257142857,340.26063950075775L725.2728828571428,339.85724761601443L738.29394,340.85935535423846L751.3149971428571,340.86448192739124L764.3360542857142,340.7728132020876L768.2423714285713,341.2360527184369L781.2634285714286,341.4196264932096L794.2844857142858,341.5947852309345L807.3055428571428,341.7603238383737L820.3266,341.2390506782004L833.3476571428571,341.25741687165197L846.3687142857143,340.7688406141825L859.3897714285715,341.0787972176379L872.4108285714285,341.5447349483054L885.4318857142857,340.71439813491753L889.3382028571428,341.2476138687698L902.3592600000001,341.234890548704L915.380317142857,341.21034250544125L928.4013742857143,341.8452521136111L941.4224314285714,341.3000738765946L954.4434885714286,341.6049182071142L967.4645457142856,341.98193295525766L980.4856028571428,341.3225383669403L993.50666,342.0414910006186L1006.5277171428571,341.907747609797L1010.4340342857143,341.9108271129046L1023.4550914285713,341.6421659421609L1036.4761485714284,341.6625518458101L1049.4972057142857,341.81783409972707L1062.5182628571429,342.0783461050782L1075.5393199999999,341.8441091038513L1088.560377142857,341.91765162842154L1101.5814342857143,342.0630616066176L1114.6024914285715,342.10545496935055L1127.6235485714285,342.0551257958499L1131.5298657142857,342.3917159158163L1144.550922857143,342.66711019860105L1157.57198,342.19224942233024L1170.593037142857,342.60733110744366L1183.6140942857144,342.7840215045419L1196.6351514285714,342.59174575170107L1209.6562085714284,343.0354813763889L1222.6772657142858,342.9716095340057L1235.6983228571428,343.02648055796567L1248.71938,342.99680603138177L1252.625697142857,342.211919944472L1265.6467542857142,342.011423917345L1278.6678114285714,342.3662078711827L1291.6888685714284,342.41297487268264L1304.7099257142859,342.80580429802774L1317.7309828571429,343.01659441411374L1330.7520399999999,343.3773757110271L1343.7730971428573,343.52319583569505L1356.7941542857143,343.907399214004L1369.8152114285713,343.92079063777413L1373.7215285714285,343.7427127681923L1386.7425857142857,343.5005386727501L1399.763642857143,343.64790267025154L1412.7847,343.48344457477907L1425.805757142857,343.34756886795896L1438.8268142857144,343.5069320523029L1451.8478714285714,343.581185670239L1464.8689285714286,343.5989198199224L1477.8899857142858,343.61664381724887L1490.9110428571428,343.7199480562479L1494.81736,343.82329154717706L1507.838417142857,343.67858325378256L1520.8594742857144,343.4622820242469L1533.8805314285714,343.56162842076833L1546.9015885714284,343.76630807698996L1559.9226457142859,343.79732590003454L1572.9437028571429,343.7461340798103L1585.9647599999998,343.5038466362941L1598.985817142857,343.33110887989005L1612.0068742857143,342.3773001958967L1615.9131914285715,342.60548697765256L1628.9342485714285,343.13988026835284L1641.9553057142855,343.22431987731943L1654.976362857143,343.02906537458017L1667.99742,343.41597006340527L1681.0184771428571,343.6627957857789L1694.0395342857144,343.679282578909L1707.0605914285713,343.7550096664743L1720.0816485714286,343.63113112090974L1733.1027057142855,343.79997932559354L1737.0090228571428,343.73468054203113L1750.03008,343.9471566459776L1763.051137142857,343.98686480977636L1776.0721942857144,343.9621074210148L1789.0932514285714,343.741327465553L1802.1143085714284,343.705969553139L1815.1353657142856,343.45361224540403L1828.1564228571428,343.51081393871266L1841.17748,343.63004962239864L1854.198537142857,343.6574852217791L1858.104854285714,343.54093550678493L1871.1259114285715,343.7834738015782L1884.1469685714285,343.4816463177677L1897.1680257142855,343.2374014771261L1910.189082857143,343.0918207048288L1923.21014,342.92617758956715L1936.2311971428571,343.08576056108734L1949.2522542857143,343.0947580077534L1962.2733114285713,343.2619032973188L1975.2943685714285,343.6063127840371L1979.2006857142856,343.2920462023906L1992.221742857143,343.1980176923192L2005.2428,343.57260985032906L2018.263857142857,343.3036477064509L2031.2849142857142,343.42082163420207L2044.3059714285714,343.78940945587107L2057.3270285714284,343.79640249493525L2070.348085714286,343.92385578948307L2083.369142857143,343.7539576805376L2096.3902,343.9130386944847L2100.2965171428573,344.13726518052835L2113.3175742857143,344.0019624526313L2126.3386314285713,344.30180940655896L2139.3596885714283,344.39474330549683L2152.3807457142857,344.0212857663818L2165.4018028571427,344.0931586898637L2178.4228599999997,344.2470733703939L2191.443917142857,344.2060372883895L2204.464974285714,344.4111270816354L2217.4860314285716,344.61674946548254" style="fill: none;" fill="none"></path></g></g></g></g><g opacity="0.2"><g><g><g><path stroke="rgb(255, 112, 67)" stroke-width="2px" d="M162.76321428571427,316.0452963709831L175.7842714285714,84.90222263336182L188.80532857142856,87.08074676990509L201.8263857142857,86.83358359336853L214.84744285714288,94.81063294410706L227.8685,90.6096540689469L240.88955714285714,99.08808219432831L253.91061428571427,102.49569821357727L266.9316714285714,96.92983376979834L279.95272857142857,91.00564408302307L283.8590457142857,90.90718674659729L296.88010285714284,78.41553318500519L309.90116,89.4437228441239L322.9222171428571,91.52807641029358L335.9432742857143,88.92108309268951L348.9643314285714,97.31400060653687L361.9853885714286,77.1632616519928L375.0064457142857,74.401806473732L388.02750285714285,102.91685569286352L401.04855999999995,99.0228818655014L404.95487714285713,76.73347878456116L417.9759342857143,78.437381863594L430.9969914285714,86.1815630197525L444.0180485714286,95.34487116336823L457.0391057142857,91.14769506454473L470.06016285714287,93.2984070777893L483.08122,82.5641028881073L496.10227714285713,87.20665323734289L509.12333428571424,98.2629834413529L522.1443914285715,82.18640077114105L526.0507085714286,73.58879017829895L539.0717657142857,83.83913922309875L552.0928228571429,89.69375538825989L565.11388,84.23139560222626L578.1349371428572,82.31529760360718L591.1559942857143,90.91468858718872L604.1770514285714,84.75270438194269L617.1981085714285,79.90029263496399L630.2191657142857,84.02414429187775L643.2402228571428,88.13154029846191L647.14654,78.86331009864807L660.1675971428571,90.20839202404022L673.1886542857143,86.98007690906519L686.2097114285715,74.02228939533228L699.2307685714286,96.048574924469L712.2518257142857,85.59835541248322L725.2728828571428,84.98711097240448L738.29394,79.09871923923492L751.3149971428571,78.02792656421661L764.3360542857142,86.5813558101654L768.2423714285713,75.44449317455292L781.2634285714286,83.55678308010101L794.2844857142858,77.31940019130707L807.3055428571428,75.7166336774826L820.3266,89.03915929794317L833.3476571428571,86.75161647796631L846.3687142857143,86.72013986110687L859.3897714285715,81.50464940071106L872.4108285714285,76.10531198978424L885.4318857142857,83.40612399578094L889.3382028571428,74.98174715042114L902.3592600000001,106.53950142860413L915.380317142857,88.4948091506958L928.4013742857143,75.09681570529938L941.4224314285714,90.91301190853125L954.4434885714286,71.70460093021393L967.4645457142856,77.81727004051203L980.4856028571428,89.73949241638184L993.50666,72.53272461891174L1006.5277171428571,79.71518385410309L1010.4340342857143,84.98415517807001L1023.4550914285713,81.15335929393763L1036.4761485714284,84.51383817195887L1049.4972057142857,75.56758213043213L1062.5182628571429,82.41875040531158L1075.5393199999999,80.1064031124115L1088.560377142857,82.87024366855621L1101.5814342857143,81.83514523506165L1114.6024914285715,80.95086145401001L1127.6235485714285,80.76170790195465L1131.5298657142857,75.85441517829895L1144.550922857143,73.27665138244629L1157.57198,77.4498872756958L1170.593037142857,75.61162519454956L1183.6140942857144,76.00816833972931L1196.6351514285714,85.73297369480133L1209.6562085714284,71.03565800189972L1222.6772657142858,77.08955693244934L1235.6983228571428,77.38110888004297L1248.71938,81.03445339202881L1252.625697142857,83.29914498329163L1265.6467542857142,86.1797307729721L1278.6678114285714,67.92792546749115L1291.6888685714284,94.00290596485138L1304.7099257142859,75.96955287456512L1317.7309828571429,79.02629363536835L1330.7520399999999,70.90325224399567L1343.7730971428573,77.75153386592865L1356.7941542857143,71.26868176460266L1369.8152114285713,75.86746561527247L1373.7215285714285,72.04066264629358L1386.7425857142857,77.51871752738953L1399.763642857143,70.11951732635498L1412.7847,74.45506262779236L1425.805757142857,80.27420926094055L1438.8268142857144,71.99995565414429L1451.8478714285714,76.31738591194147L1464.8689285714286,74.43737971782684L1477.8899857142858,71.70693445205688L1490.9110428571428,71.94583523273462L1494.81736,71.3701640367508L1507.838417142857,76.767911195755L1520.8594742857144,74.19125366210938L1533.8805314285714,77.61224853992456L1546.9015885714284,74.53467893600464L1559.9226457142859,70.19298005104065L1572.9437028571429,68.71781396865845L1585.9647599999998,82.93238449096674L1598.985817142857,73.04158794879913L1612.0068742857143,90.50151693820959L1615.9131914285715,93.81055462360382L1628.9342485714285,75.52162039279938L1641.9553057142855,73.47054111957544L1654.976362857143,80.24534273147583L1667.99742,70.92852342128754L1681.0184771428571,76.93025517463678L1694.0395342857144,69.55164182186127L1707.0605914285713,71.78665447235102L1720.0816485714286,74.42301559448242L1733.1027057142855,75.80736446380615L1737.0090228571428,74.73354685306549L1750.03008,72.65709269046778L1763.051137142857,71.14922273159027L1776.0721942857144,70.03136205673212L1789.0932514285714,77.66954946517939L1802.1143085714284,74.92845642566675L1815.1353657142856,81.31402659416193L1828.1564228571428,83.45077204704285L1841.17748,72.3346518278122L1854.198537142857,72.55172121524811L1858.104854285714,74.48415386676783L1871.1259114285715,72.2278802394867L1884.1469685714285,79.40264749526972L1897.1680257142855,78.00811755657196L1910.189082857143,79.27869427204126L1923.21014,73.0480180978775L1936.2311971428571,70.19813108444214L1949.2522542857143,75.9724395275116L1962.2733114285713,87.04470682144165L1975.2943685714285,68.07111728191376L1979.2006857142856,78.99409103393555L1992.221742857143,76.95365953445435L2005.2428,71.46141338348383L2018.263857142857,76.88514041900635L2031.2849142857142,77.95541453361511L2044.3059714285714,71.83925378322601L2057.3270285714284,77.96773898601526L2070.348085714286,71.31383109092712L2083.369142857143,77.86667156219482L2096.3902,70.52956032752991L2100.2965171428573,71.18268716335297L2113.3175742857143,71.64520847797394L2126.3386314285713,69.81781888008118L2139.3596885714283,69.25110149383545L2152.3807457142857,80.20010697841644L2165.4018028571427,72.64020490646362L2178.4228599999997,69.14185810089111L2191.443917142857,70.90631175041199L2204.464974285714,69.32878184318537L2217.4860314285716,70.20388710498804" style="fill: none;" fill="none"></path></g><g><path stroke="rgb(187, 187, 187)" stroke-width="2px" d="M162.76321428571427,188.05370616912845L175.7842714285714,88.65112054347992L188.80532857142856,88.7190346717835L201.8263857142857,78.76953709125519L214.84744285714288,86.56882393360138L227.8685,85.1342784166336L240.88955714285714,75.0384430885315L253.91061428571427,71.31030488014221L266.9316714285714,89.26948654651648L279.95272857142857,80.65958607196808L283.8590457142857,81.52990329265594L296.88010285714284,83.1735669374466L309.90116,73.46819031238556L322.9222171428571,66.42204332351685L335.9432742857143,65.26399421691895L348.9643314285714,68.72032034397125L361.9853885714286,80.98033297061914L375.0064457142857,77.67902183532715L388.02750285714285,72.86672937870026L401.04855999999995,71.64766299724579L404.95487714285713,81.97819876670837L417.9759342857143,72.11056458950043L430.9969914285714,75.71191477775574L444.0180485714286,79.70623004436487L457.0391057142857,74.97187721729279L470.06016285714287,77.9478262662887L483.08122,83.594482421875L496.10227714285713,77.28702473640442L509.12333428571424,77.0930831432342L522.1443914285715,67.8408937454223L526.0507085714286,75.19618916511536L539.0717657142857,72.01622116565699L552.0928228571429,65.13960886001581L565.11388,70.68550872802734L578.1349371428572,62.52324688434601L591.1559942857143,66.49353551864618L604.1770514285714,71.07643413543695L617.1981085714285,77.85400140285492L630.2191657142857,62.241063594818115L643.2402228571428,63.75527727603912L647.14654,67.3633341789245L660.1675971428571,63.466421842575016L673.1886542857143,68.57304918766022L686.2097114285715,76.57829093933105L699.2307685714286,75.59720921516418L712.2518257142857,65.43081510066986L725.2728828571428,70.91218876838684L738.29394,69.9439846277237L751.3149971428571,86.2508772611618L764.3360542857142,66.25349390506739L768.2423714285713,69.95354342460632L781.2634285714286,67.51316356658936L794.2844857142858,68.58877885341644L807.3055428571428,64.11845970153809L820.3266,70.22863972187042L833.3476571428571,72.08705651760101L846.3687142857143,87.27996039390564L859.3897714285715,66.60111951827997L872.4108285714285,75.75201678276056L885.4318857142857,66.09792578220367L889.3382028571428,69.75113201141357L902.3592600000001,75.08390355110163L915.380317142857,68.53700923919678L928.4013742857143,62.809561371803284L941.4224314285714,78.77085077762598L954.4434885714286,71.90583693981165L967.4645457142856,67.13869380950928L980.4856028571428,69.57464861869812L993.50666,70.74032056331629L1006.5277171428571,70.54283547401428L1010.4340342857143,68.86622595787048L1023.4550914285713,72.70550894737244L1036.4761485714284,69.40049874782562L1049.4972057142857,82.81451570987701L1062.5182628571429,67.63728964328766L1075.5393199999999,74.69422268867493L1088.560377142857,65.04232692718506L1101.5814342857143,73.76964676380157L1114.6024914285715,65.02671825885767L1127.6235485714285,67.2781001329422L1131.5298657142857,73.0214159488678L1144.550922857143,66.03110063076019L1157.57198,81.51998150348663L1170.593037142857,70.1412450075149L1183.6140942857144,64.04885160923004L1196.6351514285714,63.062774419784546L1209.6562085714284,66.02187025547022L1222.6772657142858,64.23722732067102L1235.6983228571428,68.84375500679016L1248.71938,67.37871813774109L1252.625697142857,73.06277978420252L1265.6467542857142,64.99524164199829L1278.6678114285714,69.39840722084045L1291.6888685714284,88.33770263195044L1304.7099257142859,66.83383214473719L1317.7309828571429,68.55578112602228L1330.7520399999999,66.6711597442627L1343.7730971428573,69.63286566734314L1356.7941542857143,63.214781761169434L1369.8152114285713,66.79188060760498L1373.7215285714285,67.31920468807215L1386.7425857142857,72.03796613216394L1399.763642857143,68.95896184444427L1412.7847,64.67119324207306L1425.805757142857,65.75398194789886L1438.8268142857144,65.64575839042664L1451.8478714285714,67.0454220771789L1464.8689285714286,68.0547307729721L1477.8899857142858,69.36544406414032L1490.9110428571428,68.27752161026001L1494.81736,63.57684063911438L1507.838417142857,62.596312046051025L1520.8594742857144,72.13913726806635L1533.8805314285714,70.80387878417969L1546.9015885714284,68.83919167518616L1559.9226457142859,70.56141722202301L1572.9437028571429,71.19521903991694L1585.9647599999998,66.72121810913086L1598.985817142857,67.46621656417847L1612.0068742857143,64.7988109588623L1615.9131914285715,87.89855110645294L1628.9342485714285,70.88753986358643L1641.9553057142855,67.0940111875534L1654.976362857143,66.18744659423828L1667.99742,64.31464838981628L1681.0184771428571,64.44793570041656L1694.0395342857144,69.48329555988306L1707.0605914285713,68.19681632518768L1720.0816485714286,62.44452941417694L1733.1027057142855,66.0398815870285L1737.0090228571428,65.69796013832092L1750.03008,70.77378499507904L1763.051137142857,64.77476704120636L1776.0721942857144,62.191126227378845L1789.0932514285714,67.26466941833496L1802.1143085714284,64.85336351394653L1815.1353657142856,71.06132674217224L1828.1564228571428,65.06424474716181L1841.17748,70.90802299976349L1854.198537142857,72.68262314796448L1858.104854285714,66.55123400688166L1871.1259114285715,67.10125374794006L1884.1469685714285,64.23767673969263L1897.1680257142855,62.39191281795496L1910.189082857143,75.09494888782501L1923.21014,67.67810034751892L1936.2311971428571,77.62752878665918L1949.2522542857143,66.09797763824463L1962.2733114285713,69.83939099311829L1975.2943685714285,69.37285947799683L1979.2006857142856,62.646059274673405L1992.221742857143,69.95466697216034L2005.2428,68.32678484916687L2018.263857142857,68.56323111057281L2031.2849142857142,71.75541985034937L2044.3059714285714,65.32134699821472L2057.3270285714284,64.85301780700678L2070.348085714286,65.08097696304321L2083.369142857143,62.703014492988586L2096.3902,62.60856735706329L2100.2965171428573,65.79484450817108L2113.3175742857143,65.34081029891968L2126.3386314285713,64.72005891799927L2139.3596885714283,63.77496528625488L2152.3807457142857,64.87101185321808L2165.4018028571427,64.6561895608902L2178.4228599999997,66.25828194618225L2191.443917142857,65.5008898973465L2204.464974285714,65.32578933238983L2217.4860314285716,64.48853898048395" style="fill: none;" fill="none"></path></g><g><path stroke="rgb(0, 119, 187)" stroke-width="2px" d="M162.76321428571427,284.52295112609863L175.7842714285714,336.82564544677734L188.80532857142856,335.0406913757324L201.8263857142857,337.6888065338135L214.84744285714288,337.59228515625L227.8685,339.27020835876465L240.88955714285714,336.4025001525879L253.91061428571427,332.54136848449707L266.9316714285714,333.1304531097412L279.95272857142857,338.7748794555664L283.8590457142857,339.21047019958496L296.88010285714284,338.0677013397217L309.90116,337.7535228729248L322.9222171428571,340.8784370422363L335.9432742857143,339.19664192199707L348.9643314285714,338.5724334716797L361.9853885714286,338.9341812133789L375.0064457142857,340.6712894439697L388.02750285714285,335.9566764831543L401.04855999999995,336.3632278442383L404.95487714285713,340.4655246734619L417.9759342857143,341.4398651123047L430.9969914285714,340.71166801452637L444.0180485714286,337.46340560913086L457.0391057142857,339.8081283569336L470.06016285714287,338.0782108306885L483.08122,340.2085952758789L496.10227714285713,339.5083312988281L509.12333428571424,337.0535354614258L522.1443914285715,340.3789596557617L526.0507085714286,342.7759532928467L539.0717657142857,341.7346839904785L552.0928228571429,341.29660415649414L565.11388,340.1530055999756L578.1349371428572,341.6298656463623L591.1559942857143,341.8041019439697L604.1770514285714,339.7647075653076L617.1981085714285,340.2865867614746L630.2191657142857,339.40710830688477L643.2402228571428,340.04569816589355L647.14654,342.3652534484863L660.1675971428571,339.86869621276855L673.1886542857143,339.8789291381836L686.2097114285715,341.64590644836426L699.2307685714286,336.9506530761719L712.2518257142857,341.79469871520996L725.2728828571428,338.91150283813477L738.29394,343.20877838134766L751.3149971428571,340.876501083374L764.3360542857142,340.557897567749L768.2423714285713,342.3221092224121L781.2634285714286,341.8500118255615L794.2844857142858,342.0054416656494L807.3055428571428,342.1484260559082L820.3266,340.01693534851074L833.3476571428571,341.30047607421875L846.3687142857143,339.6233825683594L859.3897714285715,341.8054847717285L872.4108285714285,342.63711738586426L885.4318857142857,338.7676887512207L889.3382028571428,342.4977283477783L902.3592600000001,341.2050609588623L915.380317142857,341.1527900695801L928.4013742857143,343.3337860107422L941.4224314285714,340.0219135284424L954.4434885714286,342.3196201324463L967.4645457142856,342.86583709716797L980.4856028571428,339.7765998840332L993.50666,343.7270622253418L1006.5277171428571,341.59418869018555L1010.4340342857143,341.91804695129395L1023.4550914285713,341.0122947692871L1036.4761485714284,341.7103462219238L1049.4972057142857,342.1818904876709L1062.5182628571429,342.6891117095947L1075.5393199999999,341.2949447631836L1088.560377142857,342.0900707244873L1101.5814342857143,342.4039726257324L1114.6024914285715,342.2048454284668L1127.6235485714285,341.93712997436523L1131.5298657142857,343.1808452606201L1144.550922857143,343.3127670288086L1157.57198,341.07894706726074L1170.593037142857,343.58048248291016L1183.6140942857144,343.19826889038086L1196.6351514285714,342.14095878601074L1209.6562085714284,344.0758113861084L1222.6772657142858,342.8218631744385L1235.6983228571428,343.15512466430664L1248.71938,342.9272346496582L1252.625697142857,340.371768951416L1265.6467542857142,341.5413646697998L1278.6678114285714,343.1979923248291L1291.6888685714284,342.5226192474365L1304.7099257142859,343.72678565979004L1317.7309828571429,343.5107879638672L1330.7520399999999,344.2232208251953L1343.7730971428573,343.86506843566895L1356.7941542857143,344.8081569671631L1369.8152114285713,343.95218658447266L1373.7215285714285,343.3252124786377L1386.7425857142857,342.93276596069336L1399.763642857143,343.99339485168457L1412.7847,343.0978755950928L1425.805757142857,343.0290107727051L1438.8268142857144,343.8805561065674L1451.8478714285714,343.7552719116211L1464.8689285714286,343.6404972076416L1477.8899857142858,343.6581974029541L1490.9110428571428,343.96214294433594L1494.81736,344.06557846069336L1507.838417142857,343.33931732177734L1520.8594742857144,342.95516777038574L1533.8805314285714,343.7945442199707L1546.9015885714284,344.2461757659912L1559.9226457142859,343.8700466156006L1572.9437028571429,343.6261157989502L1585.9647599999998,342.9358081817627L1598.985817142857,342.9261283874512L1612.0068742857143,340.14111328125L1615.9131914285715,343.1404666900635L1628.9342485714285,344.39275550842285L1641.9553057142855,343.4222869873047L1654.976362857143,342.5712947845459L1667.99742,344.3230609893799L1681.0184771428571,344.2414741516113L1694.0395342857144,343.7179355621338L1707.0605914285713,343.93255043029785L1720.0816485714286,343.34070014953613L1733.1027057142855,344.1958408355713L1737.0090228571428,343.5815887451172L1750.03008,344.44530296325684L1763.051137142857,344.07995986938477L1776.0721942857144,343.9040641784668L1789.0932514285714,343.2237129211426L1802.1143085714284,343.62307357788086L1815.1353657142856,342.86196517944336L1828.1564228571428,343.6449222564697L1841.17748,343.90959548950195L1854.198537142857,343.7218074798584L1858.104854285714,343.26768684387207L1871.1259114285715,344.35210037231445L1884.1469685714285,342.7740173339844L1897.1680257142855,342.66477394104004L1910.189082857143,342.75050926208496L1923.21014,342.5378303527832L1936.2311971428571,343.45989990234375L1949.2522542857143,343.11585235595703L1962.2733114285713,343.653772354126L1975.2943685714285,344.41377449035645L1979.2006857142856,342.55525398254395L1992.221742857143,342.9775695800781L2005.2428,344.450834274292L2018.263857142857,342.6730709075928L2031.2849142857142,343.6955337524414L2044.3059714285714,344.65355682373047L2057.3270285714284,343.8127975463867L2070.348085714286,344.2226676940918L2083.369142857143,343.35563468933105L2096.3902,344.28600120544434L2100.2965171428573,344.66296005249023L2113.3175742857143,343.68474769592285L2126.3386314285713,345.0047950744629L2139.3596885714283,344.6126251220703L2152.3807457142857,343.1457214355469L2165.4018028571427,344.26166343688965L2178.4228599999997,344.60792350769043L2191.443917142857,344.1098289489746L2204.464974285714,344.8919563293457L2217.4860314285716,345.09882736206055" style="fill: none;" fill="none"></path></g></g></g></g></g></g><g transform="translate(48, 377)" clip-path="url(#clip_1)"><clipPath id="clip_1"><rect width="2278" height="22"></rect></clipPath><g><g><line x1="0" y1="0" x2="0" y2="5" style="visibility: inherit;" fill="rgb(0, 0, 0)" stroke="rgb(204, 204, 204)" stroke-width="1px"></line><line x1="162.76321428571427" y1="0" x2="162.76321428571427" y2="5" style="visibility: inherit;" fill="rgb(0, 0, 0)" stroke="rgb(204, 204, 204)" stroke-width="1px"></line><line x1="325.52642857142854" y1="0" x2="325.52642857142854" y2="5" style="visibility: inherit;" fill="rgb(0, 0, 0)" stroke="rgb(204, 204, 204)" stroke-width="1px"></line><line x1="488.28964285714284" y1="0" x2="488.28964285714284" y2="5" style="visibility: inherit;" fill="rgb(0, 0, 0)" stroke="rgb(204, 204, 204)" stroke-width="1px"></line><line x1="651.0528571428571" y1="0" x2="651.0528571428571" y2="5" style="visibility: inherit;" fill="rgb(0, 0, 0)" stroke="rgb(204, 204, 204)" stroke-width="1px"></line><line x1="813.8160714285714" y1="0" x2="813.8160714285714" y2="5" style="visibility: inherit;" fill="rgb(0, 0, 0)" stroke="rgb(204, 204, 204)" stroke-width="1px"></line><line x1="976.5792857142857" y1="0" x2="976.5792857142857" y2="5" style="visibility: inherit;" fill="rgb(0, 0, 0)" stroke="rgb(204, 204, 204)" stroke-width="1px"></line><line x1="1139.3425" y1="0" x2="1139.3425" y2="5" style="visibility: inherit;" fill="rgb(0, 0, 0)" stroke="rgb(204, 204, 204)" stroke-width="1px"></line><line x1="1302.1057142857142" y1="0" x2="1302.1057142857142" y2="5" style="visibility: inherit;" fill="rgb(0, 0, 0)" stroke="rgb(204, 204, 204)" stroke-width="1px"></line><line x1="1464.8689285714286" y1="0" x2="1464.8689285714286" y2="5" style="visibility: inherit;" fill="rgb(0, 0, 0)" stroke="rgb(204, 204, 204)" stroke-width="1px"></line><line x1="1627.6321428571428" y1="0" x2="1627.6321428571428" y2="5" style="visibility: inherit;" fill="rgb(0, 0, 0)" stroke="rgb(204, 204, 204)" stroke-width="1px"></line><line x1="1790.3953571428572" y1="0" x2="1790.3953571428572" y2="5" style="visibility: inherit;" fill="rgb(0, 0, 0)" stroke="rgb(204, 204, 204)" stroke-width="1px"></line><line x1="1953.1585714285713" y1="0" x2="1953.1585714285713" y2="5" style="visibility: inherit;" fill="rgb(0, 0, 0)" stroke="rgb(204, 204, 204)" stroke-width="1px"></line><line x1="2115.9217857142858" y1="0" x2="2115.9217857142858" y2="5" style="visibility: inherit;" fill="rgb(0, 0, 0)" stroke="rgb(204, 204, 204)" stroke-width="1px"></line><line x1="2278.685" y1="0" x2="2278.685" y2="5" style="visibility: inherit;" fill="rgb(0, 0, 0)" stroke="rgb(204, 204, 204)" stroke-width="1px"></line></g><g transform="translate(0, 8)"><text x="0" y="0" dx="0em" dy="0.95em" style="text-anchor: middle; visibility: hidden; font-family: &quot;Helvetica Neue&quot;, sans-serif; font-size: 12px; font-weight: 200;" fill="rgb(50, 49, 63)" stroke="none" stroke-width="1px">-2k</text><text x="162.76321428571427" y="0" dx="0em" dy="0.95em" style="text-anchor: middle; visibility: inherit; font-family: &quot;Helvetica Neue&quot;, sans-serif; font-size: 12px; font-weight: 200;" fill="rgb(50, 49, 63)" stroke="none" stroke-width="1px">0</text><text x="325.52642857142854" y="0" dx="0em" dy="0.95em" style="text-anchor: middle; visibility: inherit; font-family: &quot;Helvetica Neue&quot;, sans-serif; font-size: 12px; font-weight: 200;" fill="rgb(50, 49, 63)" stroke="none" stroke-width="1px">2k</text><text x="488.28964285714284" y="0" dx="0em" dy="0.95em" style="text-anchor: middle; visibility: inherit; font-family: &quot;Helvetica Neue&quot;, sans-serif; font-size: 12px; font-weight: 200;" fill="rgb(50, 49, 63)" stroke="none" stroke-width="1px">4k</text><text x="651.0528571428571" y="0" dx="0em" dy="0.95em" style="text-anchor: middle; visibility: inherit; font-family: &quot;Helvetica Neue&quot;, sans-serif; font-size: 12px; font-weight: 200;" fill="rgb(50, 49, 63)" stroke="none" stroke-width="1px">6k</text><text x="813.8160714285714" y="0" dx="0em" dy="0.95em" style="text-anchor: middle; visibility: inherit; font-family: &quot;Helvetica Neue&quot;, sans-serif; font-size: 12px; font-weight: 200;" fill="rgb(50, 49, 63)" stroke="none" stroke-width="1px">8k</text><text x="976.5792857142857" y="0" dx="0em" dy="0.95em" style="text-anchor: middle; visibility: inherit; font-family: &quot;Helvetica Neue&quot;, sans-serif; font-size: 12px; font-weight: 200;" fill="rgb(50, 49, 63)" stroke="none" stroke-width="1px">10k</text><text x="1139.3425" y="0" dx="0em" dy="0.95em" style="text-anchor: middle; visibility: inherit; font-family: &quot;Helvetica Neue&quot;, sans-serif; font-size: 12px; font-weight: 200;" fill="rgb(50, 49, 63)" stroke="none" stroke-width="1px">12k</text><text x="1302.1057142857142" y="0" dx="0em" dy="0.95em" style="text-anchor: middle; visibility: inherit; font-family: &quot;Helvetica Neue&quot;, sans-serif; font-size: 12px; font-weight: 200;" fill="rgb(50, 49, 63)" stroke="none" stroke-width="1px">14k</text><text x="1464.8689285714286" y="0" dx="0em" dy="0.95em" style="text-anchor: middle; visibility: inherit; font-family: &quot;Helvetica Neue&quot;, sans-serif; font-size: 12px; font-weight: 200;" fill="rgb(50, 49, 63)" stroke="none" stroke-width="1px">16k</text><text x="1627.6321428571428" y="0" dx="0em" dy="0.95em" style="text-anchor: middle; visibility: inherit; font-family: &quot;Helvetica Neue&quot;, sans-serif; font-size: 12px; font-weight: 200;" fill="rgb(50, 49, 63)" stroke="none" stroke-width="1px">18k</text><text x="1790.3953571428572" y="0" dx="0em" dy="0.95em" style="text-anchor: middle; visibility: inherit; font-family: &quot;Helvetica Neue&quot;, sans-serif; font-size: 12px; font-weight: 200;" fill="rgb(50, 49, 63)" stroke="none" stroke-width="1px">20k</text><text x="1953.1585714285713" y="0" dx="0em" dy="0.95em" style="text-anchor: middle; visibility: inherit; font-family: &quot;Helvetica Neue&quot;, sans-serif; font-size: 12px; font-weight: 200;" fill="rgb(50, 49, 63)" stroke="none" stroke-width="1px">22k</text><text x="2115.9217857142858" y="0" dx="0em" dy="0.95em" style="text-anchor: middle; visibility: inherit; font-family: &quot;Helvetica Neue&quot;, sans-serif; font-size: 12px; font-weight: 200;" fill="rgb(50, 49, 63)" stroke="none" stroke-width="1px">24k</text><text x="2278.685" y="0" dx="0em" dy="0.95em" style="text-anchor: middle; visibility: hidden; font-family: &quot;Helvetica Neue&quot;, sans-serif; font-size: 12px; font-weight: 200;" fill="rgb(50, 49, 63)" stroke="none" stroke-width="1px">26k</text></g><line x1="0" y1="0" x2="2278.685" y2="0" fill="rgb(0, 0, 0)" stroke="rgb(204, 204, 204)" stroke-width="1px"></line></g></g></g></g></svg>